<?xml version="1.0" encoding="UTF-8"?>
<svg xmlns="http://www.w3.org/2000/svg" viewBox="0 0 398.49 330.8">
  <defs>
    <style>
      .cls-1 {
        fill: #fbb03b;
      }

      .cls-1, .cls-2, .cls-3, .cls-4, .cls-5, .cls-6, .cls-7, .cls-8, .cls-9, .cls-10, .cls-11, .cls-12, .cls-13, .cls-14, .cls-15, .cls-16, .cls-17, .cls-18, .cls-19, .cls-20 {
        stroke-width: 0px;
      }

      .cls-2 {
        fill: #000;
      }

      .cls-3, .cls-12 {
        fill: #c1272d;
      }

      .cls-4, .cls-9 {
        fill: #8cc63f;
      }

      .cls-5 {
        fill: #f2f2f2;
      }

      .cls-6, .cls-10 {
        fill: #c69c6d;
      }

      .cls-7 {
        fill: #f15a24;
      }

      .cls-21 {
        isolation: isolate;
      }

      .cls-8, .cls-15 {
        fill: #1a1a1a;
      }

      .cls-9, .cls-10, .cls-11, .cls-12, .cls-15, .cls-22, .cls-20 {
        mix-blend-mode: multiply;
      }

      .cls-11, .cls-16 {
        fill: #333;
      }

      .cls-13 {
        fill: #e6e6e6;
      }

      .cls-14, .cls-20 {
        fill: #999;
      }

      .cls-17 {
        fill: #009245;
      }

      .cls-18 {
        fill: #8c6239;
      }

      .cls-19 {
        fill: #93278f;
      }
    </style>
  </defs>
  <g class="cls-21">
    <g id="objects">
      <g>
        <path class="cls-2" d="M43.63,117.68s32.96,12.39,55.73,12.67c14.55.18,28.65-18.27,36.93-31.62.54.55,1.07,1.1,1.58,1.68,2.09,3.36,4.13,6.73,6.09,10.15-8.92,14.06-25.42,39.09-31.34,41.51-8.28,3.38-27.48.36-27.57,1.18-.09.81,3.74,12.44,3.74,12.44-8.22-2.47-12.52-11.35-12.52-11.35l1.2,9.28c-8.46-4.8-8.48-8.56-8.48-8.56.19,12.94,11.07,35.26,11.07,35.26-39.23-21.39-36.44-72.65-36.44-72.65Z"/>
        <g>
          <g>
            <g>
              <path class="cls-1" d="M113.76,255.45c-1.03-.91-2.01-1.81-2.92-2.69,0,0,3.01-7.91,11.9-8.73-2.37,4.28-5.38,8.1-8.98,11.42Z"/>
              <path class="cls-19" d="M118.54,259.42c-1.7-1.34-3.3-2.67-4.78-3.97,3.6-3.31,6.61-7.14,8.98-11.42,1.91-.18,4.07-.02,6.55.6-2.58,5.67-6.2,10.63-10.75,14.79Z"/>
              <path class="cls-1" d="M123.52,263.2c-1.73-1.26-3.4-2.52-4.98-3.78,4.55-4.15,8.17-9.12,10.75-14.79,1.03.26,2.12.6,3.26,1.04,0,0,.87.41,2.33,1.24-2.6,6.29-6.42,11.77-11.36,16.29Z"/>
              <path class="cls-19" d="M128.65,266.85c-1.75-1.21-3.47-2.42-5.13-3.64,4.93-4.52,8.76-10,11.36-16.29,1.31.74,3.09,1.82,5.15,3.24-2.56,6.45-6.4,12.06-11.38,16.69Z"/>
              <path class="cls-1" d="M133.9,270.38c-1.77-1.17-3.52-2.35-5.24-3.54,4.98-4.63,8.81-10.24,11.38-16.69,1.53,1.05,3.2,2.29,4.96,3.72-2.51,6.36-6.24,11.91-11.1,16.51Z"/>
              <path class="cls-19" d="M139.24,273.84c-1.78-1.13-3.56-2.28-5.34-3.45,4.85-4.6,8.59-10.15,11.1-16.51,1.54,1.26,3.15,2.67,4.76,4.23-2.43,6.02-5.96,11.31-10.51,15.73Z"/>
              <path class="cls-1" d="M149.75,258.11c1.52,1.47,3.04,3.07,4.53,4.8-2.32,5.41-5.56,10.21-9.64,14.3-1.78-1.09-3.58-2.21-5.4-3.37,4.55-4.42,8.08-9.72,10.51-15.73Z"/>
              <path class="cls-19" d="M155.96,264.95c.9,1.13,1.76,2.18,2.6,3.18-2.16,4.61-5,8.76-8.48,12.36-1.77-1.05-3.58-2.15-5.44-3.29,4.08-4.09,7.32-8.88,9.64-14.3.57.66,1.13,1.34,1.69,2.04Z"/>
              <path class="cls-1" d="M162.95,273.07c-1.96,3.92-4.43,7.48-7.38,10.65-1.74-1.01-3.58-2.09-5.5-3.23,3.48-3.61,6.33-7.75,8.48-12.36,1.56,1.86,3.04,3.51,4.39,4.95Z"/>
              <path class="cls-19" d="M167.54,277.58c-1.76,3.38-3.9,6.5-6.41,9.32-1.68-.95-3.54-2.01-5.55-3.17,2.95-3.17,5.42-6.73,7.38-10.65,1.72,1.82,3.25,3.3,4.58,4.51Z"/>
              <path class="cls-1" d="M172.4,281.52c-1.59,3.06-3.51,5.88-5.72,8.47-1.45-.8-3.33-1.84-5.55-3.09,2.51-2.81,4.65-5.93,6.41-9.32,2.29,2.08,3.96,3.32,4.86,3.93Z"/>
              <path class="cls-19" d="M173.18,282.03s5.27,8.23-3.29,9.7c0,0-1.19-.63-3.21-1.74,2.21-2.59,4.13-5.41,5.72-8.47.51.35.79.51.79.51Z"/>
            </g>
            <path class="cls-8" d="M164.78,271.65s-1.84,12.51-8.23,13.59c0,0-2.63,2.25,4.16,3.73,6.79,1.47,10.54,9.85,10.69,16.59.15,6.74-6.88,21-4.45,22.64,2.43,1.64,12.42-8.44,15.24-16.09,2.82-7.66-.94-10.22-.05-12.16.89-1.93,2.93-3.26,2.93-3.26l4.82,4.62,5.87-6.8s-6.6-2.52-9.48-9.4c-2.87-6.88-11.7-4.3-14.56-6.83-2.86-2.54-4.22-5.66-6.92-6.63Z"/>
            <path class="cls-15" d="M156.55,285.24c2.57-.43,4.41-2.72,5.68-5.3.8.18,1.47.83,1.87,2.22.35,1.2-.84,2.74.54,3.66.61.41,1.17.59,1.9.69,1.89.27,3.1,1.35,4.05,2.94,1.89,3.19,2.87,6.58,3.51,10.22.33,1.86.61,9.81,3.91,9.68,1.52-.06,2.79-.92,3.79-2.02.13-.14.99-1.26,1.41-1.39.12,1.6-.08,3.59-1.03,6.18-2.82,7.65-12.81,17.73-15.24,16.09-2.43-1.64,4.6-15.9,4.45-22.64-.15-6.74-3.89-15.12-10.69-16.59-6.79-1.47-4.16-3.73-4.16-3.73Z"/>
            <path class="cls-1" d="M164.33,294.71l6.24-4.78,5.23,6.82-6.24,4.78-5.23-6.82ZM170.31,292.2l-3.73,2.86,3.23,4.21,3.73-2.86-3.23-4.21Z"/>
          </g>
          <g class="cls-22">
            <g>
              <path class="cls-1" d="M113.76,255.45c-1.03-.91-2.01-1.81-2.92-2.69,0,0,3.01-7.91,11.9-8.73-2.37,4.28-5.38,8.1-8.98,11.42Z"/>
              <path class="cls-19" d="M118.54,259.42c-1.7-1.34-3.3-2.67-4.78-3.97,3.6-3.31,6.61-7.14,8.98-11.42,1.91-.18,4.07-.02,6.55.6-2.58,5.67-6.2,10.63-10.75,14.79Z"/>
              <path class="cls-1" d="M123.52,263.2c-1.73-1.26-3.4-2.52-4.98-3.78,4.55-4.15,8.17-9.12,10.75-14.79,1.03.26,2.12.6,3.26,1.04,0,0,.87.41,2.33,1.24-2.6,6.29-6.42,11.77-11.36,16.29Z"/>
              <path class="cls-19" d="M128.65,266.85c-1.75-1.21-3.47-2.42-5.13-3.64,4.93-4.52,8.76-10,11.36-16.29,1.31.74,3.09,1.82,5.15,3.24-2.56,6.45-6.4,12.06-11.38,16.69Z"/>
              <path class="cls-1" d="M135.41,268.88c-2.08-.63-4.16-1.27-6.27-1.71-.16-.11-.32-.22-.48-.32,4.98-4.63,8.81-10.24,11.38-16.69,1.53,1.05,3.2,2.29,4.96,3.72-2.24,5.68-5.47,10.71-9.59,15Z"/>
              <path class="cls-19" d="M145.83,262.1c-.58-.11-.76.72-.26.96.49.23.97.45,1.47.67-1.4,2.46-3,4.78-4.82,6.92-.58-.1-1.16-.22-1.72-.34-1.69-.39-3.38-.91-5.09-1.43,4.12-4.29,7.35-9.32,9.59-15,1.54,1.26,3.15,2.67,4.76,4.23-.59,1.45-1.24,2.86-1.96,4.23-.65-.04-1.31-.11-1.97-.23Z"/>
              <path class="cls-1" d="M152.72,266.16c-.89,1.7-1.88,3.34-2.96,4.89-2.55.19-5.15.01-7.56-.41,1.82-2.15,3.42-4.46,4.82-6.92,1.89.84,3.8,1.61,5.7,2.43Z"/>
              <path class="cls-1" d="M147.8,262.33c.71-1.37,1.37-2.78,1.96-4.23,1.19,1.15,2.38,2.41,3.56,3.73-1.81.41-3.64.62-5.52.5Z"/>
              <path class="cls-19" d="M149.76,271.05c1.08-1.56,2.07-3.19,2.96-4.89,1.81.79,3.61,1.63,5.32,2.62-2.45,1.36-5.34,2.06-8.28,2.27Z"/>
            </g>
          </g>
        </g>
        <g>
          <g>
            <path class="cls-1" d="M84.92,255.12c-.47-1.07-.9-2.11-1.28-3.12,0,0,5.16-5.01,12.29-2.46-3.36,2.45-7.05,4.31-11.01,5.57Z"/>
            <path class="cls-19" d="M87.17,259.9c-.83-1.64-1.58-3.24-2.25-4.77,3.96-1.26,7.65-3.13,11.01-5.57,1.53.55,3.15,1.44,4.83,2.81-4.02,3.44-8.59,5.96-13.59,7.53Z"/>
            <path class="cls-1" d="M89.65,264.6c-.88-1.59-1.71-3.16-2.49-4.7,5-1.57,9.57-4.09,13.59-7.53.7.57,1.41,1.22,2.13,1.97,0,0,.53.63,1.35,1.79-4.26,3.91-9.17,6.76-14.59,8.47Z"/>
            <path class="cls-19" d="M92.3,269.24c-.91-1.56-1.8-3.11-2.64-4.65,5.42-1.71,10.33-4.56,14.59-8.47.74,1.04,1.72,2.51,2.81,4.35-4.29,4.05-9.25,6.99-14.75,8.77Z"/>
            <path class="cls-1" d="M95.07,273.85c-.94-1.53-1.87-3.07-2.77-4.61,5.5-1.78,10.46-4.72,14.75-8.77.8,1.36,1.64,2.91,2.49,4.65-4.21,4-9.08,6.93-14.47,8.73Z"/>
            <path class="cls-19" d="M97.94,278.42c-.96-1.5-1.93-3.03-2.87-4.57,5.39-1.8,10.25-4.73,14.47-8.73.74,1.52,1.47,3.18,2.15,4.96-4.03,3.76-8.65,6.57-13.74,8.34Z"/>
            <path class="cls-1" d="M111.69,270.08c.64,1.67,1.24,3.45,1.76,5.32-3.73,3.34-7.94,5.87-12.55,7.55-.98-1.47-1.97-2.99-2.95-4.53,5.1-1.77,9.71-4.58,13.74-8.34Z"/>
            <path class="cls-19" d="M114.01,277.58c.28,1.19.57,2.31.86,3.38-3.31,2.78-6.99,4.95-10.97,6.48-.98-1.44-1.99-2.94-3.01-4.49,4.61-1.68,8.83-4.21,12.55-7.55.2.71.39,1.44.57,2.18Z"/>
            <path class="cls-1" d="M116.48,286.35c-2.91,2.32-6.09,4.17-9.5,5.56-.98-1.4-2.01-2.9-3.08-4.46,3.98-1.53,7.66-3.7,10.97-6.48.54,1.99,1.08,3.8,1.61,5.38Z"/>
            <path class="cls-19" d="M118.39,291.46c-2.57,1.98-5.33,3.61-8.28,4.88-.95-1.33-2.01-2.82-3.14-4.44,3.41-1.38,6.59-3.24,9.5-5.56.67,2.02,1.32,3.71,1.91,5.12Z"/>
            <path class="cls-1" d="M120.72,296.24c-2.32,1.78-4.81,3.27-7.45,4.47-.83-1.13-1.91-2.61-3.16-4.37,2.95-1.27,5.71-2.9,8.28-4.88,1.02,2.42,1.86,3.97,2.33,4.78Z"/>
            <path class="cls-19" d="M121.15,296.91s1.11,8.23-6.02,6.29c0,0-.69-.91-1.85-2.49,2.63-1.2,5.12-2.69,7.45-4.47.27.45.42.67.42.67Z"/>
          </g>
          <path class="cls-8" d="M118.4,285.91s-5.91,8.98-11.22,7.51c0,0-2.84.79,1.87,4.36,4.7,3.57,4.58,11.37,2.28,16.61-2.31,5.24-12.84,13.71-11.56,15.84,1.28,2.13,12.6-2.05,17.51-6.93,4.92-4.88,2.94-8.21,4.32-9.38,1.38-1.17,3.43-1.46,3.43-1.46l2.05,5.29,6.96-3.13s-4.18-4.31-3.93-10.64c.25-6.33-7.47-7.51-8.76-10.49-1.29-2.98-1.22-5.87-2.95-7.59Z"/>
          <path class="cls-15" d="M111.33,314.39c2.3-5.25,2.42-13.04-2.28-16.61-4.7-3.57-1.87-4.36-1.87-4.36,1.14.32,2.32.15,3.45-.32.92,1.32,1.14,3.16,2.35,4.42,1.8,1.87,6.11,2.79,5.38,6.13-.42,1.93-2.67,8.39.32,9.31,1.23.38,2.32-1.03,2.88-1.9.66-1,1.87-3.69,3.72-1.54.57.66,1.1,1.19,1.85,1.65,1.73,1.06,3.16.6,4.39-.4,1.13,2.42,2.51,3.86,2.51,3.86l-6.96,3.13-2.05-5.29s-2.05.29-3.43,1.46c-1.38,1.17.59,4.49-4.32,9.38-4.91,4.88-16.23,9.06-17.51,6.93-1.28-2.13,9.25-10.6,11.56-15.84Z"/>
          <path class="cls-1" d="M109.78,303.5l6.52-1.44,1.58,7.13-6.52,1.44-1.58-7.13ZM115.29,303.72l-3.9.86.98,4.4,3.9-.86-.98-4.4Z"/>
        </g>
        <g class="cls-22">
          <g>
            <path class="cls-1" d="M84.92,255.12c-.47-1.07-.9-2.11-1.28-3.12,0,0,5.16-5.01,12.29-2.46-3.36,2.45-7.05,4.31-11.01,5.57Z"/>
            <path class="cls-19" d="M87.17,259.9c-.83-1.64-1.58-3.24-2.25-4.77,3.96-1.26,7.65-3.13,11.01-5.57,1.53.55,3.15,1.44,4.83,2.81-4.02,3.44-8.59,5.96-13.59,7.53Z"/>
            <path class="cls-1" d="M89.65,264.6c-.88-1.59-1.71-3.16-2.49-4.7,5-1.57,9.57-4.09,13.59-7.53.7.57,1.41,1.22,2.13,1.97,0,0,.53.63,1.35,1.79-4.26,3.91-9.17,6.76-14.59,8.47Z"/>
            <path class="cls-19" d="M93.9,264.6c-.28-.18-.62-.1-.77.2-.59,1.2-.95,2.54-1.12,3.94-.81-1.39-1.6-2.78-2.35-4.15,5.42-1.71,10.33-4.56,14.59-8.47.74,1.04,1.72,2.51,2.81,4.35-2.86,2.7-6.02,4.89-9.44,6.59-1.25-.82-2.48-1.66-3.71-2.47Z"/>
            <path class="cls-1" d="M107.94,265.35c-.33-.25-.89.02-.8.46.08.39.18.77.3,1.15-1.42,1.18-2.91,2.25-4.47,3.2-1.85-.88-3.63-1.96-5.37-3.09,3.42-1.7,6.58-3.9,9.44-6.59.8,1.36,1.64,2.91,2.49,4.65-.28.26-.56.51-.84.76-.26-.17-.51-.34-.75-.53Z"/>
            <path class="cls-19" d="M109.26,272.09c-2.22-.28-4.29-.99-6.28-1.93,1.55-.95,3.04-2.02,4.47-3.2.54,1.74,1.42,3.36,1.82,5.13Z"/>
          </g>
        </g>
        <path class="cls-18" d="M312.94,248.5c1.82-.56,2.99-2.4,2.66-4.33-.36-2.1-2.35-3.51-4.45-3.15-87.53,14.94-165.54-24.96-215.57-61.06C41.18,140.7,7.24,97.41,6.9,96.98c-1.31-1.68-3.73-1.99-5.41-.68-1.68,1.31-1.98,3.73-.68,5.41.34.44,34.97,44.6,90.26,84.5,32.53,23.48,65.79,40.94,98.83,51.92,41.45,13.76,82.68,17.29,122.54,10.49.17-.03.34-.07.5-.12Z"/>
        <g class="cls-22">
          <path class="cls-18" d="M44.02,147.45c-8.49-7.91-15.89-15.32-22.03-21.77.42.02.84.03,1.25,0,2.3.56,4.98-.38,6.06-2.37.19-.18.36-.38.54-.58,5.67,5.88,12.33,12.48,19.86,19.48-.52,2.19-3.08,4.22-5.68,5.23Z"/>
          <path class="cls-18" d="M76.02,174.86c-9.8-7.7-18.81-15.39-26.91-22.73,2.28-1.37,4.28-3.22,5.58-5.33,5.83,5.27,12.13,10.72,18.86,16.23-.23,4.22.84,8.06,2.47,11.84Z"/>
          <path class="cls-18" d="M181.3,229.78l-.42-3.2c3.73,1.41,7.5,2.76,11.34,4.04-1.33,2.46-3.34,4.64-5.62,6.38-5.21-1.8-10.42-3.76-15.63-5.88l10.33-1.34Z"/>
          <path class="cls-18" d="M201.52,233.53c33.57,9.92,70.65,14.14,109.63,7.49,2.1-.36,4.09,1.05,4.45,3.15.33,1.93-.84,3.77-2.66,4.33-.16.05-.33.09-.5.12-37.55,6.41-76.31,3.64-115.33-8.2,1.76-2.09,3.25-4.41,4.41-6.89Z"/>
        </g>
        <path class="cls-17" d="M109.79,73.82s2.04,3.27,1.17,5.83c0,0,6.96,2.7,10.96-2.71,4-5.4.65-9.72.65-9.72l-12.78,6.6Z"/>
        <path class="cls-13" d="M108.99,74s-.19,1.82.55,1.78c.74-.05,1.77.34,1.43-1.88-.34-2.22-1.98.1-1.98.1Z"/>
        <path class="cls-13" d="M112.41,79.69s.08-1.52-.53-1.45c-.61.07-1.48-.2-1.1,1.62.38,1.82,1.64-.17,1.64-.17Z"/>
        <path class="cls-13" d="M114.57,79.34s-.2-1.51-.79-1.33c-.59.18-1.49.07-.79,1.79.7,1.72,1.58-.46,1.58-.46Z"/>
        <path class="cls-13" d="M116.6,78.71s-.2-1.51-.79-1.33c-.59.18-1.49.07-.79,1.79.7,1.72,1.58-.46,1.58-.46Z"/>
        <path class="cls-13" d="M118.48,77.47s-.45-1.45-1-1.18c-.55.27-1.46.32-.48,1.9.98,1.58,1.48-.72,1.48-.72Z"/>
        <path class="cls-13" d="M120.37,76.16s-.45-1.45-1-1.18c-.55.28-1.46.32-.48,1.9.98,1.58,1.48-.72,1.48-.72Z"/>
        <path class="cls-13" d="M111.49,73.53s.24,1.82.95,1.6c.71-.22,1.8-.08.95-2.16-.85-2.07-1.9.56-1.9.56Z"/>
        <path class="cls-13" d="M114.08,73.05s.24,1.82.95,1.6c.71-.22,1.8-.08.95-2.16-.85-2.07-1.91.56-1.91.56Z"/>
        <path class="cls-13" d="M116.71,71.91s.24,1.82.95,1.6c.71-.22,1.8-.08.95-2.16-.85-2.07-1.9.56-1.9.56Z"/>
        <path class="cls-13" d="M118.89,70.78s.62,1.73,1.27,1.36c.64-.36,1.74-.46.47-2.31-1.27-1.85-1.74.95-1.74.95Z"/>
        <path class="cls-4" d="M112.33,53.7s-2.65,4.55-1.5,5.59c2.4,2.16.83,5.15-2.61,5.36-3.45.21-9.46,2.55-10.8,6.19,0,0-.32,1.43,3.43.65,3.75-.78,6.92.23,6.92.23,0,0,.41,1.39.14,2.04-.27.65,10.32.22,13.54-4.38,0,0,1.19,9.69-10.49,10.27l-.41-1.01s-2.05.73-1.5,1.6c.55.87,1.79.87,2.11,1.91.32,1.04-4.57,1.79-4.18,3.38.85,3.42,4.86,3.15,16.18-1.4,0,0,3.8-.89,7.33,5.9l3.52,6.79s10.99-1.62,12.2-8.92c0,0-8.64-3.24-8.53-14.52.12-11.28,5.21-13,5.21-13,0,0-21.99-22-30.56-6.68Z"/>
        <path class="cls-9" d="M135.3,58.88c-.18.13-.22.31-.18.48-1.7,2.29-4.29,3.61-6.61.67-.77-.97-1.29-2.1-2.05-3.07-1.08-1.37-2.25-2.09-4-2.26-2.4-.23-4.15,1.67-6.28,2.34-1.82.57-3.71.62-5.4.07.49-1.6,1.55-3.42,1.55-3.42,6.17-11.03,19.3-2.71,26.17,2.81-1.06.81-2.12,1.6-3.2,2.37Z"/>
        <path class="cls-9" d="M136.07,86.34c-.55-2.11-1.62-4.78-3.58-5.96-.58-.35-1.39-.17-1.97.07-1.55.66-3.05,1.46-4.71,1.7,1.7-1.53,3.4-2.89,4.63-4.96,1.17-1.96,2.32-3.87,2.71-6.12,1.32-.09,2.92.81,4.12,1.15.15.04.29.07.44.1-.01.34-.02.69-.03,1.05-.12,11.28,8.53,14.52,8.53,14.52-1.21,7.29-12.2,8.92-12.2,8.92,0,0,0-.01-2.28-4.38.59-.04,1.16-.17,1.7-.42,2.33-1.11,3.29-3.17,2.63-5.68Z"/>
        <path class="cls-9" d="M99.63,70.35c2.41-.76,5.08-2.45,7.63-2.46.44-.02,2.46-.16,2.89-.08.33.64-.92,1.45-.58,2.09-.48.51-1.07.86-1.71,1.12-.39.16-.79.3-1.19.44-1.24-.24-3.42-.48-5.83.03-3.18.66-3.43-.27-3.43-.56.74-.07,1.5-.35,2.22-.57Z"/>
        <path class="cls-5" d="M116.59,61.19s1.59,2.06,3.47,2.01c1.89-.05,3.39-1.04,3.36-2.2-.03-1.16-1.59-2.07-3.48-2.01-1.89.05-3.36,2.2-3.36,2.2Z"/>
        <path class="cls-7" d="M117.42,60.66c-.24.91.14,1.79.85,1.98.71.19,1.48-.39,1.72-1.3.24-.9-.14-1.79-.86-1.98-.71-.19-1.48.39-1.72,1.3Z"/>
        <path class="cls-8" d="M117.64,60.62c-.14.54.09,1.06.51,1.17.42.11.88-.23,1.02-.77.14-.54-.09-1.06-.51-1.17-.42-.11-.88.23-1.02.77Z"/>
        <path class="cls-8" d="M116.64,61.21s.08-.14.25-.35c.17-.22.45-.5.81-.78.19-.13.41-.25.63-.38.25-.08.49-.18.75-.26.28-.02.56-.07.84-.08.28.04.57.08.86.12.25.06.62.18.83.29.24.12.49.25.7.39.44.26.77.58,1.18.92.19.17.43.32.67.4.24.08.47.08.62.04.32-.06.46-.18.46-.17l-.02-.11s-.18-.02-.42-.11c-.12-.05-.24-.11-.34-.22-.11-.1-.2-.24-.33-.43-.23-.37-.62-.93-1.22-1.3-.31-.17-.62-.31-.98-.4-.38-.1-.64-.14-1.01-.18-.35,0-.7,0-1.05-.01-.34.06-.67.15-.99.23-.3.14-.58.28-.83.43-.22.19-.44.36-.62.54-.34.38-.57.72-.71.97-.13.26-.19.41-.19.41l.1.05Z"/>
        <path class="cls-17" d="M126.56,58.57c-1.53-3.45-5-1.85-7.3-.23-.87.47-1.7,1.03-2.69,1.44-.05.03-.11-.04-.07-.08,1.72-2.55,5.11-4.63,8.24-3.58,1.02.46,1.7,1.43,1.93,2.43.01.07-.09.09-.11.03h0Z"/>
        <path class="cls-17" d="M112.58,59.22s-.18-.32-.47-.63c-.15-.15-.31-.33-.52-.45-.21-.12-.46-.22-.7-.35-.08-.06-.16-.12-.24-.17-.59.03-.17,1.01-.09,1.1.13.14.26.28.41.38.25.15.5.25.74.27.47.09.83-.05.83-.05.04-.01.06-.05.04-.09,0,0,0,0,0-.01Z"/>
        <path class="cls-17" d="M109.32,69.39c.21.67.92,1.05,1.59.84.67-.21,1.05-.92.84-1.59-.21-.67-.92-1.05-1.59-.84-.67.21-1.05.92-.84,1.59Z"/>
        <path class="cls-14" d="M110.51,57.33c.41.04.56-.33.48-.64.21-.54.43-1.06.66-1.59.12.02.23.02.32-.03.08.03.16.05.26.04,1.63-.22,3.5.03,5.06-.54,1.54-.57,2.78-2.22,4.43-2.39.25-.03.4-.19.46-.38,4.02-.11,7.28,1.26,8.29,5.54.59,2.53.46,9.96.46,9.96l1.92.21s1.47-3.68,1.49-4.39c2.23-.78,6.01-4.27,6.4-3.63.39.64-1.46,3.69-2.93,5.37-.74.84-.44,2.2-.64,3.3-.07.48-.33,1.57-.44,2.04-.14,1.53-.51,1.48-2.72.78-.36-.51-1.17-.15-.99.46.67,2.3.41,4.04,2.26,5.93,1.41,1.44,2.98,2.39,4.94,2.85,1.22.28,2.37,0,3.37-.59,1.72,1.18,3.52,2.23,5.36,3.12,4.52,2.2,9.04,1.59,13.89,1.78,11.57.45,18.66,10.94,29.73,12.65,7.42,1.15,15.65.53,22.22-3.41,3.36-2.01,5.96-4.86,6.26-8.16,1.51.31,3.02.59,4.54.8,6.52.89,16.05.89,20.37-5.14,2.93-4.09,2.39-9.59-.73-13.46-1.07-1.33-2.32-2.42-3.69-3.24,1.29-1.41,2.15-3.24,2.48-5.17.58-3.5-2.58-6.98-5.01-9.07-2.91-2.51-6.07-4.04-9.99-3.91-2.69.09-5.35.58-8.01.71-4.66-10.95-18.67-8.89-27.37-3.44-6.22,3.89-11.91,8.7-17.9,12.95-3.76,2.66-8.04,5.21-12.8,3.59-3.47-1.18-5.95-3.51-7.3-6.84.47-.17.37-1.03-.25-1.07-1.65-.1-3.28-1.01-4.95-1.19-1.23-.13-2.46-.23-3.71-.16-2.71.14-5.37.61-8.06.91-5.72.64-11-1.94-16.78-1.17-.06,0-.11.03-.16.05-.91-.19-1.59-.77-2.46-1.05-1.28-.41-2.53-.64-3.86-.82-2.08-.3-4.85-.75-6.63-1.94-.12-.08-.23-.09-.33-.08-4.14-1.21-8.18,2.08-7.3,6.54.96,4.9,5.64,3.62,9.38,3.94Z"/>
        <path class="cls-20" d="M108.44,46.85c.1-.02.22,0,.33.08,1.78,1.2,4.55,1.65,6.63,1.94,1.33.19,2.58.41,3.86.82.87.28,1.55.86,2.46,1.05.05-.02.1-.05.16-.05.13-.02.25-.02.38-.04,0,0,0,.01,0,.02.09.31.18.62.28.92.02.06.03.12.04.19-.14,0-.27,0-.41,0-.06.19-.21.35-.46.38-1.44.15-2.57,1.44-3.87,2.14-2.63-1.38-5.47-1.3-8.3-2.39-1.48-.57-4.66-2.63-6.18-1.5-1.76,1.32.96,3.64,1.96,4.29.82.54,1.71,1.08,2.7,1.25,1.01.17,2.12.13,3.13.31-.06.14-.12.28-.17.42.08.32-.07.68-.48.64-3.74-.32-8.42.96-9.38-3.94-.88-4.46,3.16-7.75,7.3-6.54Z"/>
        <path class="cls-20" d="M134.02,70.95c2.22.7,2.58.75,2.72-.78.11-.47.37-1.56.44-2.04.09-.48.08-1.02.11-1.54,2.58-2.73,7.34-3.81,10.72-2.47,4.43,1.75,5.56,6.51,6.14,10.79.03.21.21.42.43.43,6.57.37,14.26-1.54,20.24,1.91,4.96,2.86,8.55,7.65,13.98,9.75,4.7,1.82,10.24,2.44,15,.43,5.17-2.18,9.7-8.27,15.63-4.73.01,0,.02,0,.03.01.09.06.2.1.34.09,3.7-.43,6.07-2.89,8.32-5.59,2.78-3.34,6.51-5.06,10.95-4.44,4.49.63,7.52,5.43,5.74,9.8-4.69,4.68-13.22,4.63-19.21,3.81-1.52-.21-3.03-.49-4.54-.8-.3,3.3-2.91,6.15-6.26,8.16-6.57,3.94-14.8,4.56-22.22,3.41-11.06-1.71-18.16-12.19-29.73-12.65-4.85-.19-9.37.42-13.89-1.78-1.83-.89-3.64-1.94-5.36-3.12-1,.59-2.15.87-3.37.59-1.97-.46-3.53-1.41-4.94-2.85-1.85-1.89-1.59-3.63-2.26-5.93-.18-.61.63-.96.99-.46Z"/>
        <g>
          <path class="cls-8" d="M112.04,37.7S126.39,9.02,151.79,1.53c25.4-7.5,26.36,15.5,47.95,6.98,21.59-8.52,2.47,1.95-.81,3.76-3.28,1.81-5.27,8.91-27.8,2.66-22.53-6.25-22.16,33.04-22.16,33.04,0,0-28.04-2.3-36.94-10.27Z"/>
          <path class="cls-15" d="M149.34,2.33c.07.19.12.4.16.64.19,1.35-.06,2.84-.96,3.93-2.18,2.62-5.17,4.49-7.65,6.8-3.13,2.93-6.63,6.99-6.28,11.62.3,3.93,3.16,6.8,6.87,7.89,3.29.97,6.21.77,9.07,0-1.65,7.68-1.58,14.77-1.58,14.77,0,0-28.04-2.3-36.94-10.27,0,0,13.43-26.83,37.3-35.37Z"/>
          <path class="cls-3" d="M117.74,28.49c9.76,5.6,20.96,7.33,32.26,7.65-1.08,6.46-1.03,11.83-1.03,11.83,0,0-28.04-2.3-36.94-10.27,0,0,1.96-3.91,5.7-9.21Z"/>
          <path class="cls-12" d="M117.74,28.49c3.53,2.03,7.26,3.54,11.1,4.67.53,3.55,8.66,5.49,11.53,6.77,2.63,1.17,5.77,2.64,8.81,3.16-.22,2.94-.2,4.88-.2,4.88,0,0-28.04-2.3-36.94-10.27,0,0,1.96-3.91,5.7-9.21Z"/>
          <path class="cls-8" d="M207.84,53.61s-19.76-6.72-38.69-.79c-18.93,5.92-69.56,5.05-108.58-32.86,0,0,.53-8.24,9.27,1.36,8.74,9.6,21.47,16.04,47.86,15.57,26.39-.47,26.23,15.17,46.2,8.89,19.97-6.29,58.39,6.06,43.94,7.83Z"/>
          <path class="cls-15" d="M69.83,21.31c7.34,8.06,17.49,13.9,36.19,15.28-1.21.91-1.95,2.05-1.77,3.5.44,3.55,6.53,5.23,9.15,6.14,5.81,2,11.43,3.54,17.57,4.25,13.48,1.55,26.74,2.71,40-.72,13.06-3.38,26.21-3.66,38.94,1.03,1.82,1.29,1.49,2.38-2.08,2.82,0,0-19.76-6.72-38.69-.79-18.93,5.92-69.56,5.05-108.58-32.86,0,0,.53-8.24,9.27,1.36Z"/>
        </g>
        <path class="cls-8" d="M191.64,185.32c8.44,13.85,13.61,25.21-.62,41.26-14.23,16.05-53.81,14.4-53.81,14.4,2.02,5.38,14.71,5.33,14.71,5.33-2.42,3.57-8.74,4.82-8.74,4.82.47,2.68,12.11,7.2,12.11,7.2-6.02,2.21-18.76-.2-18.76-.2,2.34,5.28,14.64,8.53,14.64,8.53-21.41,3.8-34.01-15.25-34.01-15.25-.78,6.6,2.2,11.67,2.2,11.67-8.75.24-17.8-5.08-17.51-4.12.3.97,3.66,8.4,3.66,8.4-7.84-2.52-15.68-9.62-15.68-9.62,0,0-2.86,9-4.13,8.33-1.27-.67-28.41-51.92-4.49-72.72,23.92-20.81,66.66-7.9,66.66-7.9,5.81-11.68-.15-44.08-11.29-49.99-11.15-5.9-9.75-13.75-5.59-22.98,4.17-9.23,2.86-16.24,2.86-16.24,8.33-1.58,9.42-9.15,9.42-9.15,2.84-3.41,7.35,3.36,13.31.1,5.96-3.26,9.66.11,9.66.11-.99-.08-2.79,1.64-2.79,1.64,4.57-.25,7.14,1.8,7.14,1.8,0,0-3.85,3.15-6.3,6.05,0,0,10.22,10.58,10.57,18.63.34,8.05,4.44,49.6,16.8,69.88Z"/>
        <path class="cls-15" d="M81.19,193.36c23.92-20.81,66.66-7.9,66.66-7.9,4.01-8.07,2.41-26.04-2.65-38.33,1.41-3.14,3.88-5.19,6.81-1.92,1.59,1.77,2.85,3.86,3.62,6.12,1.43,4.18,2.07,8.75,3.07,13.05.96,4.14,1.94,8.28,2.83,12.44,1.13,5.3,2.94,11.06,2.04,16.52-1.34,8.09-9.4,10.26-16.56,8.31-6.6-1.8-12.61-4.97-19.42-6.07-5.22-.85-11.01-1.15-16.02.91-5.27,2.17-8.85,6.45-10.56,11.86-4.46,14.15.38,28.48,8.18,40.48.36.56,1.12,0,.94-.55-.42-1.31-.95-2.59-1.35-3.91-.37-1.2-.95-4.49,1.9-3.15,2.01.95,3.76,2.57,5.43,4.01,4.16,3.55,8.92,6.9,13.83,9.31.29.14.76-.08.76-.43.01-1.79-.38-3.44-1.01-5.07,8.3,3.23,16.37,7.98,24.92,9.03.41.17.65.26.65.26-6.02,2.21-18.76-.2-18.76-.2,2.34,5.28,14.64,8.53,14.64,8.53-21.41,3.8-34.01-15.25-34.01-15.25-.78,6.6,2.2,11.67,2.2,11.67-8.75.24-17.8-5.08-17.51-4.12.3.97,3.66,8.4,3.66,8.4-7.84-2.52-15.68-9.62-15.68-9.62,0,0-2.86,9-4.13,8.33-1.27-.67-28.41-51.92-4.49-72.72Z"/>
        <path class="cls-4" d="M69.29,145.95s-2.11,1.92-5.19.17c-3.09-1.75-4.57-10.28-13.89-3.45l2.7,2.51s-1.17,5.63-6,4.95l-4.05-3.8s-2.31,4.29-.96,6.58c1.35,2.29-.34,2.57,3.2,3.23,0,0,.08,4.9,1.58,4.6,0,0,.82,2.13,3.21,2.67,0,0,.53,2.22,3.17,2.04,2.65-.18,12.8-2.29,13.52-8.2,0,0,8.99.76,11.76-.57"/>
        <path class="cls-9" d="M42.18,147.83c1.17,3.14,3.68,4.56,6.51,4.89-.27,2.87.81,5.69,4.11,6.66,2.05.6,3.71.37,4.99-.39,2,.74,4.19.66,6.17-.46,4.93-2.79,5.14-7.26,3.6-11.77,1.09-.23,1.73-.81,1.73-.81l9.04,10.72c-2.77,1.33-11.76.57-11.76.57-.73,5.91-10.87,8.01-13.52,8.2-2.65.18-3.17-2.04-3.17-2.04-2.39-.53-3.21-2.67-3.21-2.67-1.5.3-1.58-4.6-1.58-4.6-3.54-.65-1.86-.94-3.2-3.23-.84-1.42-.26-3.62.3-5.08Z"/>
        <path class="cls-8" d="M67.13,142.9s35.12,2.59,57.04-3.55c14.01-3.93,22.34-25.6,26.53-40.74.67.37,1.34.76,1.99,1.17,2.95,2.63,5.86,5.3,8.71,8.02-4.59,16-13.37,44.67-18.38,48.66-6.99,5.57-26.26,8.09-26.12,8.9.14.81,7.1,10.88,7.1,10.88-8.58-.05-15.21-7.36-15.21-7.36l3.77,8.56c-9.47-2.22-10.55-5.82-10.55-5.82,3.83,12.36,20.55,30.71,20.55,30.71-43.67-9.47-55.43-59.44-55.43-59.44Z"/>
        <path class="cls-15" d="M87.91,143.42c-2.3,2.19-3.94,5.54-2.15,8.57,2.77,4.66,9.37,5.04,14.19,5.11,6.46.08,12.92-.9,19.35-1.45,6.86-.59,14.6-1.25,20.05-5.99,4.17-3.62,4.97-9.5,8.1-13.86.74-1.02,3.47-4.02,5.05-2.56.32.3.51.71.63,1.16-3.64,10.62-7.42,19.91-10.12,22.06-6.99,5.57-26.26,8.09-26.12,8.9.14.81,7.1,10.88,7.1,10.88-8.58-.05-15.21-7.36-15.21-7.36l3.77,8.56c-9.47-2.22-10.55-5.82-10.55-5.82,3.83,12.36,20.55,30.71,20.55,30.71-43.67-9.47-55.43-59.44-55.43-59.44,0,0,9.03.66,20.78.52Z"/>
        <path class="cls-6" d="M248.19,236.84s-38.69-39.95-43.96-4.37l-1.03,13.75s-13.15,34.8,43.53,4.23l1.46-13.6Z"/>
        <path class="cls-10" d="M220.16,235.56c1.81.44,3.19,1.77,4.71,2.83,1.2.84,2.46,1.36,3.82,1.93,2.82,1.18,5.75,2.38,8.85,2.48,2.19.07,4.5-.07,6.64.46,1.69.42,2.64,1.25,3.07,2.38l-.28,2.62c-6.39,1.96-12.16,5.4-18.41,7.79-5.21,1.98-15.22,6.12-20.18,1.83-5.21-4.5-2.73-12.87-.96-18.43.44-1.37.77-2.65,2.41-1.86,1.31.63,2.58,1.37,3.92,1.94,2.7,1.16,5.39,1.67,8.33,1.84.5.03.78-.46.51-.88-1.03-1.58-1.84-3.17-2.42-4.92Z"/>
        <path class="cls-6" d="M245.7,236.95s3.78-25.29,43.46-20.92c39.68,4.37,67.24,19.09,97.36,2.08l-13.34,12.18s11.85,2.1,25.3-7.82c0,0-12.59,16.51-24.07,19.43,0,0,13.48,3.53,21.12-2.28,0,0-31.37,37.76-97.18,30.94,0,0,6.98,7.32,16.26,6.82,0,0-51.34,13.26-67.69-26.29l-1.23-14.14Z"/>
        <path class="cls-10" d="M395.54,239.62s-.27.32-.8.9c-4.12,2.78-7.91,5.98-12.23,8.51-4.67,2.73-9.31,5.7-14.42,7.56-5.82,2.12-12.07,3.44-18.09,4.88-5.82,1.38-11.67,2.65-17.57,3.58-12.07,1.91-24.31,2.4-36.51,1.95-2.3-.08-3.66.97-2.66,3.32,1.23,2.89,4.42,4.23,6.97,5.95-13.29,1.58-26.96-2.63-37.67-10.55-2.73-2.02-5.17-4.28-7.65-6.6-2.49-2.33-5.13-4.59-7.28-7.26-.23-.29-.47-.61-.7-.94l-1.21-13.96s.07-.43.26-1.16c.17-.13.33-.27.52-.39,5.7-3.49,13.64,1.7,18.53,4.63,4.72,2.84,9.53,5.9,14.97,7.14,6.48,1.47,13.31,1.05,19.84.08,6.75-.99,12.88-4.1,19.53-5.31-.82,1.67-2.16,3.04-2.9,4.78-.17.4.17.79.58.76,7.74-.66,14.69-4.04,21.77-6.98,3.73-1.55,7.57-3.09,11.56-3.83.16-.03,2.3-.56,2.31-.18.05,1.16-.18,2.22-.7,3.26-.66,1.33-1.45,2.59-2.14,3.9-.25.48.31.84.72.72,15.67-4.54,32.76-8.32,44.63-19.69,1.08-.66,2.18-1.39,3.3-2.22,0,0-12.59,16.51-24.07,19.43,0,0,13.48,3.53,21.12-2.28Z"/>
        <polygon class="cls-16" points="247.53 231.74 249.01 255.48 237.05 255.36 238.79 228.46 247.53 231.74"/>
        <path class="cls-11" d="M237.11,254.45l.51-7.85c3.64.55,7.25,1.15,10.93,1.45l.39,6.25c-3.93-.24-7.87.04-11.82.15Z"/>
        <g>
          <path class="cls-4" d="M21,125.44c-.25-.46-.37-1-.32-1.56.15-1.51,1.49-2.61,3-2.47l5.44.53-1.28-1.17c7.83-5.83,9.14,1.37,11.76,2.83.88.49,3.38.51,4.03.48.34,2.19.81,6.27.87,8.84-.39-.02-2.41.08-2.57.07-.07.44-.25.84-.5,1.18-.31.75-.79,1.42-1.41,2.01.15.28.22.6.19.94-.09.92-.9,1.59-1.82,1.5l-2.02-.2c-2.4,1.01-4.91,1.47-5.98,1.56-2.23.17-2.69-1.7-2.69-1.7-2.02-.44-2.73-2.23-2.73-2.23-1.26.27-1.36-3.88-1.36-3.88-3-.53-1.57-.78-2.72-2.71-.67-1.11-.3-2.8.12-4.02Z"/>
          <path class="cls-9" d="M29.71,137.97c2.26-.38,4.25-1.34,6.52-2.08,1.02-.33,1.96-.65,2.62-1.52.23-.3.25-.81.27-1.16.04-.76.32-1.38.63-2.06.64-1.39.93-2.68.95-4.21,0-.91-.19-1.97-.12-2.94.49.15,2.66.09,3.06.07.34,2.19.81,6.27.87,8.84-.39-.02-2.41.08-2.57.07-.07.44-.25.84-.5,1.18-.31.75-.79,1.42-1.41,2.01.15.28.22.6.19.94-.09.92-.9,1.59-1.82,1.5l-2.02-.2c-2.4,1.01-4.91,1.47-5.98,1.56-2.13.16-2.64-1.52-2.68-1.68.67-.06,1.34-.18,2.01-.34Z"/>
          <path class="cls-9" d="M32.12,134.85c.68-.35,1.61-.99,2.4-1.02.76-.23,1.08.04.94.83-1.01.74-2.12,1.25-3.3,1.65-1.13.38-2.26.75-3.41.98-.71.03-1.83.11-2.87.03-.64-.61-.91-1.26-.91-1.26-.19.04-.35-.03-.49-.16,2.45.64,5.81-.09,7.64-1.04Z"/>
          <path class="cls-9" d="M30.59,130.96c.44-.19.88-.43,1.34-.56.9.52.96.9.18,1.15-.97.49-1.96.96-2.99,1.27-1.64.5-3.65.91-5.42.57-.05-.48-.08-.89-.09-1.08.31.04.63.06.97.06,2.07.01,4.14-.58,6.02-1.41Z"/>
          <path class="cls-9" d="M27.57,126.55c.69-.08,1.39-.2,2.08-.24.08,0,.15,0,.23,0,4.03,6.16,8.18,4.53,7.4,5.47-4.7,1.45-7.43-4.27-7.56-4.22-2.79.87-6.71.73-8.98-1.21.07-.3.16-.58.25-.85,1.02.65,2.06,1.19,3.41,1.22,1.07.02,2.11-.03,3.17-.16Z"/>
        </g>
        <path class="cls-5" d="M117.18,60.82c.04.27.23.47.44.45s.35-.27.32-.54-.23-.47-.44-.45-.35.27-.32.54Z"/>
        <path class="cls-5" d="M118.43,61.85c.04.27.55.43,1.15.35s1.06-.36,1.02-.64-.55-.43-1.15-.35-1.06.36-1.02.64Z"/>
      </g>
    </g>
  </g>
</svg>