<?xml version="1.0" encoding="UTF-8"?>
<svg id="background" xmlns="http://www.w3.org/2000/svg" viewBox="0 0 1710 546.81">
  <defs>
    <style>
      .cls-1 {
        fill: #495356;
      }

      .cls-1, .cls-2, .cls-3, .cls-4, .cls-5, .cls-6, .cls-7, .cls-8, .cls-9, .cls-10, .cls-11, .cls-12, .cls-13, .cls-14, .cls-15, .cls-16 {
        stroke-width: 0px;
      }

      .cls-2 {
        fill: #6e7986;
      }

      .cls-3 {
        fill: #262f45;
      }

      .cls-4 {
        fill: #afa06b;
      }

      .cls-5 {
        fill: #fbfbfb;
      }

      .cls-6 {
        fill: none;
      }

      .cls-7 {
        fill: #384346;
      }

      .cls-8 {
        fill: #918558;
      }

      .cls-9 {
        fill: #7e7648;
      }

      .cls-10 {
        fill: #2d3641;
      }

      .cls-11 {
        fill: #aaa7a7;
      }

      .cls-12 {
        fill: #9c924c;
      }

      .cls-13 {
        fill: #86794a;
      }

      .cls-14 {
        fill: #595345;
      }

      .cls-15 {
        fill: #344826;
      }

      .cls-16 {
        fill: #787153;
      }
    </style>
  </defs>
  <path class="cls-6" d="M1462.98,484.38c-.26-.11-.55-.32-.79-.4.24.07.54.28.79.4,0,0,0,0,0,0Z"/>
  <path class="cls-6" d="M548.29,515.72c-.15.34-.29.68-.43,1.02h0c.15-.34.29-.68.43-1.02h0Z"/>
  <path class="cls-6" d="M473.64,540.91c-.6.02-1.2.03-1.8.05.6-.01,1.2-.03,1.8-.05-.15-1.88.92-3.1,1.95-4.33-1.03,1.24-2.1,2.45-1.95,4.33Z"/>
  <path class="cls-6" d="M558.51,414.94c-1.59,1.05-2.77,2.5-3.31,4.55-.36.05-.71.09-1.07.14.36-.05.71-.09,1.07-.14.53-2.05,1.72-3.5,3.31-4.55Z"/>
  <path class="cls-6" d="M429.08,426.69h0c.26-.68.56-1.34.88-1.97-.33.63-.62,1.29-.88,1.97Z"/>
  <path class="cls-6" d="M813.6,173.93c.86,0,1.73-.08,2.58-.06-.86-.02-1.72.05-2.58.06-3.46.91-6.97,1.36-10.5,1.71,3.53-.35,7.04-.8,10.5-1.71Z"/>
  <path class="cls-6" d="M1312.2,364.39c-2.31-.05-4.62-.09-6.92-.14,0,0,0,0,0,0,2.31.05,4.62.09,6.93.14Z"/>
  <path class="cls-6" d="M1401.92,248.21c3.71-2.6,7.18-5.64,10.3-9.28.91-.22,1.82-.58,2.56-1.07-.75.49-1.65.85-2.57,1.07-3.12,3.64-6.58,6.68-10.3,9.28Z"/>
  <path class="cls-6" d="M1404.06,234.48c-.16-.14-.32-.18-.49-.12.16-.06.33-.02.49.12Z"/>
  <path class="cls-6" d="M1404.66,237.69c2.49-.52,5.17-.86,6.52-3.73,1.36,0,3.14-1.63,4.31-1.04-1.17-.58-2.95,1.04-4.31,1.04-1.35,2.87-4.03,3.21-6.52,3.73Z"/>
  <path class="cls-6" d="M1403.08,234.88c-13.29,2.74-26.47,6.06-39.94,7.82,0,0,0,0,0,0,13.47-1.76,26.65-5.08,39.94-7.82h0Z"/>
  <path class="cls-6" d="M1227.34,335.09c-1.62,1.44-3.59,2.61-4.67,4.47,1.08-1.87,3.05-3.03,4.67-4.47Z"/>
  <path class="cls-6" d="M482.45,397.43c-1.13.92-2.36,1.76-3.08,3.01.72-1.24,1.95-2.08,3.08-3.01Z"/>
  <path class="cls-6" d="M776.84,178.94c-.11.55-.28,1.07-.48,1.56.21-.49.37-1.01.48-1.56-.51-.04-1.03-.07-1.54-.11.52.04,1.03.07,1.54.11Z"/>
  <path class="cls-6" d="M620.1,321.65c1.92-.41,4-.66,5.04-2.88,1.05,0,2.43-1.26,3.33-.81-.9-.45-2.28.8-3.33.81-1.04,2.22-3.12,2.48-5.04,2.89Z"/>
  <path class="cls-6" d="M595.87,342.61c1.35.33,2.49-.07,3.6-.61-1.11.53-2.25.94-3.6.61,0,0,0,0,0,0h0Z"/>
  <path class="cls-6" d="M598.44,338.77s0,0,0,0c3.8-2.46,7.6-4.93,11.4-7.39-3.8,2.46-7.6,4.93-11.4,7.39Z"/>
  <path class="cls-6" d="M779.31,174.88c-1.57,1.09-3.52,1.78-4.02,3.95-4.42,1.89-8.17,4.78-11.88,7.73,3.71-2.95,7.46-5.85,11.88-7.73.5-2.17,2.45-2.86,4.02-3.95Z"/>
  <path class="cls-6" d="M619.64,319.18c-.13-.11-.25-.14-.38-.09.13-.05.25-.02.38.09Z"/>
  <path class="cls-6" d="M618.88,319.49c-10.28,2.12-20.47,4.69-30.89,6.05,0,0,0,0,0,0,10.42-1.36,20.61-3.93,30.89-6.05h0Z"/>
  <path class="cls-6" d="M619.4,328.76c2.34-1.77,4.53-3.8,6.54-6.14.7-.17,1.41-.45,1.98-.82-.58.38-1.28.66-1.98.82-2.01,2.35-4.21,4.37-6.54,6.14Z"/>
  <path class="cls-6" d="M595,342.94c-2.11.71-4.13,1.56-5.37,3.69-.22-.03-.39.04-.54.21.14-.17.32-.24.54-.21,1.23-2.14,3.26-2.99,5.37-3.69Z"/>
  <path class="cls-6" d="M559.24,309.37c-.71,2.53-1.97,4.66-3.45,6.64,1.48-1.98,2.74-4.11,3.45-6.64h0Z"/>
  <path class="cls-6" d="M619.37,252.2c2.5,2.16,5.63,3.06,8.6,4.27-2.97-1.21-6.1-2.11-8.6-4.27Z"/>
  <path class="cls-6" d="M566.3,271.58c1.17,6.14,2.43,12.26,2.83,18.53-11.19-2.49-22.37-4.98-33.56-7.45,11.19,2.47,22.37,4.97,33.56,7.45-.4-6.26-1.66-12.39-2.83-18.53Z"/>
  <path class="cls-6" d="M588.63,346.85c-1.02.1-1.66.73-1.99,1.8-6.28,4.76-13.16,8.43-20.11,11.99,6.95-3.56,13.83-7.23,20.11-11.99.33-1.06.97-1.7,1.99-1.8Z"/>
  <path class="cls-6" d="M531.98,346.09c-.21.55-.27,1.23-.44,1.81,0,0,0,0,0,0,.17-.58.23-1.26.44-1.81Z"/>
  <path class="cls-6" d="M1221.9,342.01c-.22.18-.45.36-.67.55.22-.18.45-.36.67-.54,0,0,0,0,0,0Z"/>
  <path class="cls-6" d="M1376.64,259.82h0c4.92-3.18,9.83-6.37,14.74-9.56-4.92,3.18-9.83,6.38-14.74,9.56Z"/>
  <path class="cls-6" d="M1324.27,358.85c-1.68,1.3-2.93,3.02-3.54,5.34-.46.06-.92.12-1.38.18.46-.06.92-.12,1.38-.18.61-2.32,1.86-4.04,3.53-5.35Z"/>
  <path class="cls-6" d="M1322.33,229.22c.67-.97,1.31-1.98,1.86-3.04-.56,1.06-1.19,2.06-1.86,3.04Z"/>
  <path class="cls-6" d="M1430.03,518.74c1.32,4.78,2.67,9.56,4,14.34-1.33-4.78-2.68-9.56-4-14.34-3.75-14.16-7.51-28.32-11.24-42.49,3.73,14.17,7.49,28.33,11.23,42.49Z"/>
  <path class="cls-6" d="M1424.67,438.78c1.21-3.68,2.5-7.35,3.77-11.02-1.28,3.67-2.57,7.33-3.77,11.02Z"/>
  <path class="cls-6" d="M1654.9,46.65c1.11,0,2.23-.1,3.34-.08-1.11-.03-2.23.07-3.34.08-4.47,1.18-9.01,1.75-13.58,2.21,4.56-.46,9.11-1.04,13.58-2.21Z"/>
  <path class="cls-6" d="M1424.62,438.93c-3.6,11-6.49,22.16-6.33,34.11,0,0,0,0,0,0-.16-11.95,2.72-23.12,6.33-34.12Z"/>
  <path class="cls-6" d="M1382.16,453.31c-3.36,5.65-6.65,11.19-9.94,16.72,0,0,0,0,0,0,3.29-5.54,6.58-11.08,9.94-16.72Z"/>
  <path class="cls-6" d="M1380.64,480.64c1.5-7.84,3.08-15.67,4.63-23.5,3.34-1.01,5.62-3.55,8.13-5.75-2.51,2.2-4.79,4.74-8.13,5.75-1.55,7.83-3.12,15.66-4.63,23.5h0Z"/>
  <path class="cls-6" d="M1327.02,296.24c-2.55.14-3.37,2.21-4.42,3.96,1.05-1.75,1.87-3.82,4.42-3.96.03-1.31.07-2.61.11-3.92-.04,1.31-.07,2.61-.11,3.92Z"/>
  <path class="cls-6" d="M1219.1,348.31c.4.23.92.37,1.57.44h0c-.65-.06-1.17-.21-1.57-.44Z"/>
  <path class="cls-6" d="M1371.04,265.61c-2.3.85-4.41,2-5.78,4.37-.28-.03-.51.06-.69.28.18-.22.41-.31.7-.28,1.37-2.37,3.48-3.51,5.78-4.37Z"/>
  <path class="cls-6" d="M1220.67,348.74c.64-.45,1.28-.89,1.92-1.34-.64.45-1.28.89-1.92,1.34h0Z"/>
  <path class="cls-6" d="M1363.49,270.35c-1.05.26-1.73,1.04-2.1,2.24-9.28,7.04-19.58,12.23-29.86,17.47,10.28-5.24,20.58-10.43,29.86-17.47.37-1.2,1.05-1.98,2.1-2.24Z"/>
  <path class="cls-6" d="M1373.33,264.79c1.74.43,3.22-.1,4.65-.79-1.43.69-2.91,1.21-4.65.78,0,0,0,0,0,0h0Z"/>
  <path class="cls-6" d="M1336.01,177.74c1.21,6.34,2.33,12.69,2.74,19.15-14.46-3.21-28.93-6.44-43.4-9.63,14.47,3.2,28.93,6.42,43.4,9.64-.41-6.47-1.53-12.82-2.74-19.15Z"/>
  <path class="cls-6" d="M1403.71,147.87c2.61,2.25,5.74,3.45,8.87,4.64-3.13-1.2-6.26-2.39-8.87-4.64Z"/>
  <path class="cls-6" d="M1290.71,269.29c-.27.71-.35,1.59-.57,2.34h0c.22-.76.29-1.63.57-2.34Z"/>
  <path class="cls-6" d="M1610.55,47.87c-2.02,1.41-4.55,2.3-5.2,5.11-5.71,2.44-10.57,6.18-15.36,10,4.8-3.82,9.65-7.56,15.36-10,.64-2.81,3.17-3.7,5.2-5.11Z"/>
  <path class="cls-6" d="M1325.95,221.8c-.44,1.55-1.03,2.99-1.74,4.35.71-1.36,1.31-2.8,1.74-4.35h0Z"/>
  <path class="cls-6" d="M1607.35,53.13c-.14.71-.36,1.38-.63,2.01.27-.63.48-1.3.63-2.01-.66-.05-1.33-.1-2-.14.67.05,1.33.1,2,.14Z"/>
  <path class="cls-6" d="M548.61,419.63l-5.35-.11s0,0,0,0c1.78.04,3.57.07,5.36.11Z"/>
  <path class="cls-6" d="M477.83,407.53c.5-.34.99-.69,1.49-1.03-.5.34-.99.69-1.49,1.03h0Z"/>
  <path class="cls-6" d="M560.06,366.93c.03-1.01.05-2.02.08-3.03l-.08,3.03c-1.72.1-2.42,1.33-3.12,2.54.69-1.21,1.39-2.45,3.12-2.54Z"/>
  <path class="cls-6" d="M279.55,361.64h0c.07.14.14.28.21.42-.07-.14-.14-.28-.21-.42Z"/>
  <path class="cls-6" d="M931.21,226.61c16.88,8.61,33.74,17.28,50.61,25.93,4.63,2.39,9.28,4.75,13.92,7.12h0c-4.64-2.37-9.29-4.73-13.92-7.12-16.87-8.65-33.73-17.32-50.61-25.93Z"/>
  <path class="cls-6" d="M329.56,460.98c-3.06,4.3-5.99,8.72-7.57,13.68,1.57-4.95,4.51-9.38,7.57-13.68.02-1.47.14-2.9.73-4.15-.6,1.25-.71,2.69-.73,4.15Z"/>
  <path class="cls-6" d="M275.22,366.57c-2.16,1.06-4.43,1.8-6.21,3.4-2.34.35-4.44,1.21-6.47,2.27,2.02-1.05,4.13-1.92,6.47-2.26,1.78-1.6,4.05-2.34,6.21-3.4Z"/>
  <path class="cls-6" d="M478.77,402.33c-.17.14-.35.28-.52.42.17-.14.35-.28.52-.42h0Z"/>
  <path class="cls-6" d="M476.33,407c.33.29.82.47,1.49.53h0c-.67-.06-1.17-.24-1.49-.53Z"/>
  <path class="cls-1" d="M1380.03,483.8c.2-1.06.41-2.11.61-3.16h0c-.2,1.06-.42,2.11-.61,3.16Z"/>
  <path class="cls-1" d="M1311.8,488.65h0c-1.58,3.66-3.11,7.35-4.68,11.02,1.57-3.67,3.1-7.36,4.68-11.02Z"/>
  <path class="cls-1" d="M1158.18,372.22c-.03.08-.06.15-.1.23h0c.03-.08.06-.15.1-.23Z"/>
  <path class="cls-1" d="M1372.22,470.04s0,0,0,0c-.04.06-.08.13-.11.19-1.83.33-3.39,1.15-4.86,2.19,1.47-1.05,3.03-1.87,4.86-2.19.04-.06.07-.13.11-.19Z"/>
  <path class="cls-14" d="M650.66,444.69c-1.08-3.22-1.08-6.1.63-9.27,9.12-16.94,18.05-33.98,27.09-50.96,2-3.75,3.35-7.49,3.17-11.95-.31-7.87-.09-15.75-.09-23.63.2,0,.4-.02.6-.02,2.12,14.99,4.14,29.99,6.39,44.96,1,6.66-3.49,10.98-6.22,15.95-5.23,9.48-10.74,18.81-16.31,28.09,21.86-9.8,43.71-19.61,65.59-29.36.33-.15.66-.3.99-.46-2.75-14.01-5.52-28.02-8.2-42.05-.42-2.17-1.07-3.94-2.76-5.08-10.23-6.88-16.19-17.17-22.56-27.46-5.53-8.94-6.5-17.75-4.83-27.74.93-5.56.44-11.35,1.09-17.05.83-7.31.94-14.73,1.05-22.1.05-3.37,1.42-3.98,4.31-3.49,14.09,2.35,28.19,4.71,42.32,6.84,4.37.66,6.08,2.15,6.33,7.23.59,12.17,2.36,24.27,3.58,36.41.5,5,.8,10.01,1.17,15.02.13,1.84.07,3.79,2.71,1.81,6.23-4.68,12.4-9.45,18.79-13.9,2.68-1.86,2.3-3.48.96-5.83-5.22-9.15-10.29-18.39-15.51-27.54-1.93-3.37-.19-6.19,1.01-9.06,4.05-9.74,7.67-19.73,12.47-29.07,5.57-10.83,6.83-22.65,9.37-34.21.47-2.12.43-4.42,1.21-6.39,1.92-4.84.28-7.27-4.51-8.25-1.93-.39-3.76-1.26-5.64-1.9-6.02-2.05-6.28-2.87-2.41-8.14,1.04-1.42,2.26-2.71,3.18-4.2.27-.45.52-.91.73-1.4s.37-1.01.48-1.56c-.51-.04-1.03-.07-1.54-.11-4.42,1.89-8.17,4.78-11.88,7.73-.53.42-1.06.85-1.59,1.27-1.41,1.13-2.83,2.24-4.29,3.29-9.23,6.67-18.14,13.81-27.38,20.47-5.15,3.71-11.59,3.42-17.49,4.61-17.98,3.63-36.05,6.87-54.07,10.29-3.04.58-5.66,1.77-6.55,5.21-.12.48-.38.93-.64,1.36-2.17,3.75-3.66,8.28-6.71,11.03-3.92,3.53-7.44-1.99-11.4-2.38-.82-.08-1.65-.03-2.47-.05,2.16,1.68.46,2.22-.82,2.9-.98.52-1.98,1-2.98,1.5-2.99,1.48-5.94,3.02-8.28,5.57.2.2.4.39.61.57,2.5,2.16,5.63,3.06,8.6,4.27.5.2.99.41,1.47.64.24.11.48.23.72.35,2.33,1.19,2.74,2.49,1.46,4.75-7.59,13.35-15.25,26.66-22.59,40.15-1.64,3.02-3.08,2.85-5.34,1.32-13.38-9.09-9.5-7.65-26.84-2.14-5.03,1.6-9.93,3.61-14.89,5.44-1.21.44-2.69.56-2.73,2.39-.71,2.53-1.97,4.66-3.45,6.64-.4.53-.8,1.05-1.23,1.55-.5.6-1.02,1.2-1.54,1.79-1.56,1.77-3.16,3.51-4.53,5.4-5.15,7.14-10.84,13.88-16.23,20.84-.11.15-.2.32-.27.5-.21.55-.27,1.23-.44,1.81,3.89-.98,5.72-4.33,7.85-7.22.49-.67,1-1.31,1.56-1.9,2.9-3.05,5.92-4.34,9.65-5.14,12.46-2.69,25.12-4.46,37.38-8.1,0,0,0,0,0,0,0,0,0,0,0,0,4.53-5.97,10.67-10.11,16.29-14.84.8-.68,1.59-1.36,2.37-2.07,13.23-12.08,28.23-22.18,40.23-35.58,8.43-9.42,18.2-15.82,30.08-19.2,1.36-.39,2.5-1.67,4.45-1.12-1.31,4.29-4.24,7.5-6.53,11.02-4.73,7.27-10.25,14.03-14.61,21.5-3.85,6.59-9.07,11.29-15.17,15.4-6.87,4.63-13.57,9.52-20.39,14.24-.34.24-.7.46-1.04.69-.34.23-.67.47-.95.74-.56.55-.95,1.23-.94,2.26,1.12.06,2.24.13,3.36.19,1.05,0,2.43-1.26,3.33-.81.3.15.55.49.72,1.13.31,1.16-.31,2.07-1.27,2.7-.58.38-1.28.66-1.98.82-2.01,2.35-4.21,4.37-6.54,6.14-1.4,1.06-2.86,2.03-4.35,2.93-2.28,1.36-4.67,2.55-7.12,3.61-1.23.53-2.47,1.03-3.73,1.5-.63.24-1.26.47-1.9.69-1.27.45-2.56.88-3.85,1.29,0,0,0,0,0,0,0,0,0,0,0,0-.86,1.28-1.71,2.56-2.57,3.84,1.35.33,2.49-.07,3.6-.61.67-.32,1.32-.69,2-.97.96-.4,2.02-1.72,3.06-.4.8,1.01.28,2.23-.2,3.33-3.59,8.29-7.17,16.59-10.76,24.88-.57,1.32-1.39,2.44-2.96,2.18-10.14-1.7-20.52-1.53-30.55-4.1-1.73.1-2.43,1.33-3.12,2.54-.1.17-.2.35-.3.51-.12.19-.24.38-.36.56-8.73,12.13-17.34,24.35-26.19,36.39-2.47,3.36-3.03,6.04.2,9.12.5.48.92,1.04,1.3,1.62,1.14,1.76,1.95,3.81,3.8,5.03,1.24-1.68,2.75-2.66,4.49-3.06,1.04-.24,2.17-.28,3.36-.13,0,0,0,0,0,0h0c3.35-6.5,8.09-11.98,12.54-17.67,1.48-1.9,2.93-3.82,4.29-5.81.56-.82,1.34-1.49,1.92-2.3,5.39-7.48,5.26-7.4,10.42.02,6.37,9.17,12.82,18.3,19.52,27.22,4.37,5.82,4.29,12.87,5.99,19.42,1.67,6.47,2.77,13.08,4.21,19.61.24,1.07.51,2.51,1.92,2.64,1.14.1,1.44-1.14,2.08-1.88,9.31-10.66,18.57-21.36,28.06-31.85,2.08-2.3,3.43-7.19,6.25-6.45,3.15.83,1.17,5.61,1.66,8.56.91,5.45,1.63,10.95,2.24,16.46,1.14-.5,2.28-1,3.42-1.51.96-.43,1.93-.86,2.89-1.29ZM651.02,337.04c2.39-10.25,4.78-20.5,7.11-30.76,1.32-5.84,2.52-11.7,3.78-17.55.44-.04.87-.09,1.31-.13,2.43,8.62,4.87,17.24,7.3,25.86.09.32.08.67.16.99,3.04,11.75,3.09,11.83-6.42,18.75-3.19,2.32-6.02,5.32-9.95,6.44-1,.29-2.21,1.46-3.17.27-.91-1.12-.42-2.54-.11-3.86ZM637.66,348.03c-.07-.51-.13-1.02-.2-1.54,3.36-1.18,6.71-2.43,10.1-3.51,1.05-.33,2.45-.57,2.81,1.06.3,1.35-.83,1.69-1.79,1.89-3.63.74-7.28,1.4-10.92,2.1Z"/>
  <path class="cls-14" d="M766.95,546.15s0,0,0,0c7.17-.92,14.06-2.97,20.94-5.03-6.89,2.07-13.78,4.11-20.94,5.03Z"/>
  <path class="cls-14" d="M818.27,349.94c-2.39,2.62-1.94,5.5-2.56,7.92-.79,3.07-1.5,6.16-2.2,9.25,3.19-1.84,6.42-3.59,9.7-5.27-1.62-3.9-3.26-7.85-4.94-11.9Z"/>
  <path class="cls-14" d="M964.27,289.39h0c.09.18.18.36.27.54-.09-.18-.18-.36-.27-.54Z"/>
  <path class="cls-14" d="M956.85,273.78c-5.96,4.19-12.54,7.48-18.46,11.73-4.43,3.18-8.89,3.09-13.68,2.06-6.98-1.49-9.02-.55-7.49,6.19,1.12,4.9.89,9.16-.21,13.1,8.81-6.23,17.48-12.87,28.07-15.16,11.32-2.45,20.9-7.45,29.66-13.79-2.92-1.43-5.83-2.86-8.75-4.29-3.23-1.58-5.83-2.18-9.15.15Z"/>
  <path class="cls-14" d="M1030.25,411.81c-1.1,1.77-1.28,3.89-1.32,6.05-4.52,6.35-8.83,12.92-10.54,20.48,1.71-7.56,6.03-14.12,10.54-20.48.03-2.17.22-4.28,1.31-6.05Z"/>
  <path class="cls-14" d="M856.88,286.47c-6.06,8.85-12.65,16.95-17.39,26.04-2.61,5-2.15,11.68-3,17.62-1.29,9.06-2.57,18.13-4.07,27.25,2.14-.99,4.29-1.96,6.46-2.91,8.34-4.39,16.49-9.23,25.07-13.07,2.29-1.02,4.53-2.12,6.73-3.27-4.33-16.41-8.66-32.82-13.01-49.23-.17-.63-.41-1.25-.8-2.42Z"/>
  <path class="cls-14" d="M959.85,295.15c-3.13,1.75-6.59,2.66-9.22,5.02-3.02.45-5.75,1.57-8.36,2.93,2.62-1.36,5.34-2.48,8.36-2.93,2.63-2.36,6.09-3.28,9.22-5.02Z"/>
  <path class="cls-10" d="M826.26,174.86c-3.08-.24-6.15-.54-9.22-.93-.28-.04-.57-.05-.85-.06-.86-.02-1.72.05-2.58.06-3.45.91-6.97,1.36-10.5,1.71-1.02.1-2.03.2-3.05.29-2.73.25-5.46.52-8.16.95-5,.8-10.03,1.38-15.05,2.05-.11.55-.28,1.07-.48,1.56-.21.49-.45.95-.73,1.4-.91,1.49-2.13,2.78-3.18,4.2-3.88,5.27-3.61,6.09,2.41,8.14,1.88.64,3.71,1.5,5.64,1.9,4.79.98,6.43,3.41,4.51,8.25-.78,1.98-.75,4.27-1.21,6.39-2.54,11.56-3.8,23.38-9.37,34.21-4.81,9.35-8.42,19.33-12.47,29.07-1.19,2.87-2.93,5.69-1.01,9.06,5.23,9.15,10.29,18.39,15.51,27.54,1.34,2.35,1.72,3.97-.96,5.83-6.39,4.44-12.56,9.22-18.79,13.9-2.64,1.98-2.57.03-2.71-1.81-.37-5.01-.67-10.03-1.17-15.02-1.21-12.14-2.99-24.24-3.58-36.41-.25-5.08-1.96-6.57-6.33-7.23-14.13-2.14-28.22-4.49-42.32-6.84-2.89-.48-4.26.13-4.31,3.49-.12,7.38-.22,14.79-1.05,22.1-.65,5.7-.16,11.49-1.09,17.05-1.67,9.99-.7,18.8,4.83,27.74,6.37,10.29,12.33,20.58,22.56,27.46,1.69,1.14,2.34,2.9,2.76,5.08,2.68,14.03,5.45,28.04,8.2,42.05,6.81-3.19,13.07-7.63,20.46-9.51,18.29-10.67,37.17-20.16,56.4-28.95,1.38-.84,2.76-1.66,4.16-2.47.7-3.09,1.41-6.18,2.2-9.25.62-2.42.17-5.29,2.56-7.92,1.68,4.05,3.32,8,4.94,11.9,3.04-1.55,6.11-3.04,9.21-4.47,1.5-9.13,2.78-18.19,4.07-27.25.84-5.94.39-12.61,3-17.62,4.74-9.09,11.34-17.18,17.39-26.04.39,1.18.63,1.79.8,2.42,4.34,16.41,8.68,32.82,13.01,49.23,16.25-8.48,30.49-20.1,45.43-30.61.3-.21.6-.43.9-.64,1.1-3.94,1.32-8.2.21-13.1-1.53-6.74.5-7.69,7.49-6.19,4.79,1.02,9.25,1.11,13.68-2.06,5.92-4.24,12.5-7.54,18.46-11.73,3.33-2.34,5.93-1.73,9.15-.15,2.92,1.42,5.83,2.86,8.75,4.29,4.25-3.07,8.3-6.46,12.26-10.03-1.82-4.21-3.64-8.43-5.43-12.65-.35-.83-.94-1.9.24-2.69-16.87-8.65-33.72-17.32-50.61-25.93-3.13-1.6-5.99-3.41-7.46-6.85-6.89-3.19-13.78-6.37-20.68-9.56-.09,5.14,4.86,6.86,7.07,10.48,1.68,2.74,2.12,5.18,1.62,8.02-2.86,16.44-5.8,32.86-8.7,49.3-.17.94.28,2.21-.97,2.57-1.1.31-1.75-.74-2.42-1.42-3.63-3.66-7.12-7.49-11.33-10.49-8.14-5.81-10.19-15.3-13.97-23.78-9.12-20.45-13.26-42.32-17.87-64.07-.21-.97-.08-2.01-.11-3.02-.5-1.01-1.34-1.46-2.4-1.56,0,0,0,0,0,0,0,0,0,0,0,0-9.25-.43-18.5-.65-27.73-1.38ZM819.54,224.89c-1.99,3.65-4.55,6.98-6.81,10.48-7.68,11.9-15.33,23.83-23.05,35.7-.84,1.29-1.34,3.03-3.78,3.58.97-2.65,1.64-5.01,2.66-7.19,7.5-16.07,15.02-32.12,22.69-48.1.63-1.32.88-5.32,3.55-2.9,2.25,2.05,7.44,3.46,4.73,8.44Z"/>
  <path class="cls-16" d="M315.16,534.09c3.74-2.94,7.25,3.47,11.61,2.8-.42-.89-.6-2.08-1.28-2.61-7.64-5.99-7.38-14.42-6.62-22.8.93-10.15,1.48-20.31,1.96-30.49.07-1.44.26-2.83.57-4.18.17-.73.36-1.45.59-2.16,1.57-4.95,4.51-9.38,7.57-13.68.02-1.47.14-2.9.73-4.15.09-.18.18-.35.29-.53.28-.46.64-.89,1.1-1.28,2.38-5.53,4.38-11.27,7.27-16.51,2.05-3.71,1.14-6.26-1.12-9-2.65-3.21-5.29-6.43-8-9.58-2.22-2.58-2.1-5.19-1.09-8.37,4.57-14.37,9.12-28.75,13.17-43.27,2.51-9,4.09-18.26,6.13-27.4.22-1,.76-2.04-.22-2.75-.94-.68-1.85-.02-2.7.57-4.1,2.83-8.2,5.65-12.35,8.39-.92.61-2.23,1.41-3.09,1.16-1.65-.48-1.04-2.31-.93-3.51.68-8,2.14-15.93,1.93-24-.05-2.02-.22-4.03-.33-6.04-8.01,8.17-17.26,14.96-25.39,22.9-11.78,11.51-23.58,22.22-40.23,25.82-8.47,1.83-15.35,7.26-22.41,12.22-13.12,9.23-25.54,19.57-40.34,26.2-6.63,2.97-12.94,6.72-19.39,10.11,1.01,16.04,1.72,32.1,3.16,48.1.63,6.96-2.72,10.99-7.36,14.77-1.41,1.15-2.9,2.22-4.2,3.48-15.64,15.2-31.18,30.52-46.95,45.59-2.99,2.86-6.26,5.44-9.15,8.44-.97,1.01-2.08,1.69-3.51,1.55-9.47-.95-18.94-1.94-28.41-2.86-3.62-.35-2.7-1.71-.99-3.64,5.07-5.72,9.97-11.61,15.08-17.3,8.34-9.29,17.32-18.06,25.03-27.85,5.73-7.27,10.11-15.7,14.68-23.84,6.53-11.62,13.92-22.73,19.78-34.74-14.87,6.8-29.46,14.14-43.61,22.39-.07,1.93-1.56,2.92-2.74,4.02-11.51,10.76-22.84,21.75-34.73,32.06-4.43,3.84-10.13,6.23-15.42,8.93-9.8,5.01-18.51,11.79-26.31,19.28-7.23,6.95-15.21,5.8-23.12,4.99-4.62-.48-9.23-.63-13.83-.63v27.19c1.69,1.62,3.37,3.27,5.01,4.94h65.99c2.37-4.83,4.74-9.66,7.12-14.5.51.25,1.03.5,1.54.76-2.25,4.58-4.49,9.16-6.74,13.74h27.74c13.3-4.13,26.51-8.59,39.51-13.76.31.41.61.81.92,1.22-3.09,4.18-6.19,8.36-9.28,12.54h10.64c17.83-13.65,37.02-25.29,55.58-37.86,7.73-5.24,14.28-11.87,21.28-17.98,10.58-9.23,21.03-18.63,31.97-27.64-.35,6.73-2.84,12.69-4.54,18.85-3.12,11.3-6.36,22.57-9.75,33.8-.9,2.99-.35,4.16,2.73,4.93,5.44,1.36,10.81,3.09,16.08,5.01,4.06,1.48,7.11.99,10.17-2.38,8.07-8.9,16.49-17.46,24.65-26.28,2.69-2.91,4.37-3.36,5.43,1.15.42,1.78,1.08,3.58,2.01,5.13,3.75,6.31,2.57,12.8,1.3,19.49-1.5,7.9-3.25,15.78-4.11,23.77h12.08c.25-.44.51-.88.76-1.31,2.27-3.9,3.78-8.82,7.06-11.4ZM108.93,470.57c0,3.73-.73,5.43-3.71,5.68.99-1.52,1.98-3.03,3.71-5.68ZM101.55,483.6c.52.24,1.05.48,1.57.73-3.13,6.37-6.26,12.75-9.39,19.12-.52-.26-1.04-.52-1.56-.78,3.13-6.35,6.25-12.71,9.38-19.06ZM279.39,361.82c.05-.06.12-.12.16-.18h0c.07.14.14.28.21.42-.09.12-.19.24-.28.36-.07-.14-.2-.28-.19-.41,0-.06.05-.13.1-.18ZM239.74,470.04c-2.14-1.64-1.46-3.6-1.41-5.2.49-16.3-1.02-32.55-1.33-48.83-.17-9.19-.35-18.43-.74-27.64-.12-2.89.7-4.82,3.45-5.91.65-.26,1.29-.53,1.93-.82,4.47-1.99,8.76-4.47,13.66-5.36,2.47-1.23,4.8-2.77,7.24-4.04,2.02-1.05,4.13-1.92,6.47-2.27,1.78-1.6,4.05-2.34,6.21-3.4.31-.15.62-.31.92-.48.81-.45,1.58-.97,2.3-1.63-2.37,8.98-5.51,17.54-9.33,25.85-1.69,8.09-5.87,15.28-8,23.22-7.08,18.72-14.15,37.43-21.37,56.52ZM290.28,439.93c-.37.74-1.12,1.33-1.33,2.1-3.88,14.21-16.51,19.59-26.69,27.43-.85.65-1.9,1.05-2.6.04-.53-.77.28-1.52.82-2.15,7.15-8.29,14.3-16.57,21.43-24.87,3.78-4.4,7.55-8.81,11.3-13.23.55-.64,1.02-1.32,2.42-.86-1.19,4.14-3.45,7.77-5.36,11.54Z"/>
  <path class="cls-9" d="M546.49,516.31c.36-.41,1.19-.41,1.81-.59,0,0,0-.01,0-.02h.01s-.01.02-.02.02c-.15.34-.29.68-.43,1.02,2.74-3.71,5.56-7.4,9.46-10.03,1.88-6.96,8.07-10.95,11.31-16.95,9.04-16.76,26.84-19.57,41.66-26.98,11.13-5.56,22.67-10.27,34.06-15.27-.62-5.51-1.33-11-2.24-16.46-.5-2.96,1.49-7.74-1.66-8.56-2.82-.74-4.17,4.15-6.25,6.45-9.49,10.49-18.76,21.19-28.06,31.85-.64.73-.94,1.98-2.08,1.88-1.42-.13-1.69-1.57-1.92-2.64-1.44-6.53-2.54-13.15-4.21-19.61-1.69-6.55-1.61-13.6-5.99-19.42-6.7-8.92-13.14-18.05-19.52-27.22-5.16-7.42-5.04-7.5-10.42-.02-.58.81-1.36,1.48-1.92,2.3-1.36,1.99-2.81,3.91-4.29,5.81-4.45,5.69-9.18,11.17-12.54,17.67h0l5.35.11c1.59.03,3.17.06,4.76.09h0c.26-.03.51-.07.77-.1.36-.05.71-.09,1.07-.14.54-2.05,1.72-3.49,3.31-4.55.53-.35,1.1-.66,1.71-.93.13-.06.87.69.81.92-.7,2.6-2.21,4.58-4.64,5.76-1.82,1.61-1.35,3.85-1.05,5.69,2.49,15.56-3.19,28.41-12.05,40.52-4.22,5.76-7.29,12.39-11.36,18.29-7.6,11.01-9.79,24.13-14.14,36.38-2.97,8.35-5.66,16.79-8.33,25.25h10.99c3.64-4.25,7.27-8.51,10.9-12.77,5.04-5.91,10.05-11.86,15.14-17.73ZM548.53,515.29c-.07.14-.14.28-.21.42h-.01c.08-.15.15-.29.23-.42Z"/>
  <path class="cls-9" d="M573.12,495.51c.22.5.46.98.71,1.45-.25-.47-.49-.95-.71-1.45,2.89-2.65,5.78-6.16,9.26-7.43-3.48,1.27-6.37,4.78-9.26,7.43Z"/>
  <path class="cls-9" d="M858.05,507.16c-2.69,9.63-5.96,19.1-8.94,28.65h0c2.98-9.55,6.25-19.02,8.94-28.65Z"/>
  <path class="cls-3" d="M480.2,206.31c-.32.19-.63.38-.91.58-9.59,6.83-18.98,14.01-29,20.12-4.88,2.97-5.91,7.27-7.16,11.82-5.61,20.51-11.24,41.01-16.46,61.62-1.01,4-3.62,5.78-6.33,7.77-9.62,7.07-19.11,14.35-29.09,20.84-5.58,3.62-6.03,9.31-7.63,14.55-3.8,12.49-6.95,25.19-10.84,37.65-2.34,7.49-8.46,12.68-12.71,19.01-3.3,4.92-6.97,9.58-10.45,14.33,1.76,1.55,2.9.47,4.02-.08,16.7-8.13,33.57-15.93,50-24.57,9.8-5.16,17.94-13.03,26.77-19.74,7.39-5.61,14.67-11.37,22.03-17.02,1.72-1.32,3.55-1.53,5.52-.26,3.21,2.06,6.35,4.32,9.79,5.89,3.58,1.63,3.01,3.58,1.54,6.31-6.44,11.93-12.44,24.13-19.31,35.79-3.7,6.29-9.08,11.48-14.34,16.6-1.71,1.66-3.31,3.42-4.6,5.39-.39.59-.75,1.2-1.07,1.83s-.62,1.29-.88,1.97c11.75-6.07,22.75-13.45,34.17-20.1,7.12-4.14,13.71-9.26,21.52-12.14,9.9-8.25,19.25-17.12,28.26-26.33,1.29-1.32,2.57-2.64,3.84-3.97,5.04-5.26,9.78-10.82,14.66-16.25.17-.58.23-1.26.44-1.81.07-.18.16-.35.27-.5,5.4-6.96,11.08-13.7,16.23-20.84,1.37-1.9,2.97-3.64,4.53-5.4.52-.59,1.04-1.18,1.54-1.79.42-.51.83-1.03,1.23-1.55,1.48-1.98,2.74-4.11,3.45-6.64-4.31.67-8.62,1.34-12.93,2-6.91,1.04-13.82,2.08-20.74,3.13,5.54-3.59,11.74-5.15,17.77-7.18-2.52-6.53-8.01-10.86-11.79-16.46-2.21-3.27-4.61-6.4-7.73-10.71,4.72,1,8.25,1.72,11.76,2.5,11.19,2.47,22.37,4.97,33.56,7.45-.4-6.26-1.66-12.39-2.83-18.53-.17-.88-.33-1.75-.49-2.63-.43-2.34-.83-4.69-1.14-7.05-.2-1.5-1.08-3.23.09-4.3,1.35-1.22,2.72.46,4,.99,5.66,2.31,11.31,4.69,16.9,7.16,1.71.76,3.37,1.37,5.25,1.09.85-7.28,2.11-14.53,2.07-21.88-.02-3.35,1.29-3.64,3.97-2.37,5.81,2.75,11.71,5.32,17.56,7.99,1.36.62,2.67,1.35,4.24,1.07,2.34-2.55,5.29-4.09,8.28-5.57,1-.49,2-.98,2.98-1.5,1.29-.68,2.98-1.22.82-2.9-6.15-3.09-11.82-7.73-19.4-6.13-.31.07-.71.09-.97-.05-7.46-3.92-15.74-6.16-22.52-11.47-10.46-2.78-20.85-5.82-31.38-8.27-12.13-2.82-23.85-7.34-36.32-8.73-6.32-.7-12.57-2.28-18.9-2.68-6.2-.4-12.23-2.41-18.5-1.82.14,1.59-.62,2.46-1.59,3.13-.14.1-.28.19-.42.28-.21.13-.42.26-.63.38Z"/>
  <path class="cls-14" d="M385.43,509.5c5.48-6.94,13.13-12.12,19.82-18.07,6.32-5.62,12.82-11.04,18.93-16.88,3.98-3.8,4.61-9.56,6.66-14.45,4.72-11.25,9.04-22.68,13.49-34.05.71-1.82,1.97-2.95,3.56-3.99,8.03-5.27,15.98-10.68,23.98-16,.31-.2.62-.41.93-.61.95-.58,1.97-1.03,3.18-.86h0c.76-.61,1.52-1.23,2.27-1.84.17-.14.35-.28.52-.42.05-.49.16-.93.32-1.32,0,0,0,0,0,0,.08-.2.17-.38.28-.56.72-1.24,1.95-2.08,3.08-3.01.18-.15.36-.3.53-.45.78-.7,1.46-1.48,1.8-2.52-7.81,2.88-14.4,7.99-21.52,12.14-11.42,6.65-22.43,14.02-34.17,20.1h0c.26-.68.56-1.34.88-1.97s.69-1.24,1.07-1.83c1.3-1.98,2.89-3.73,4.6-5.39,5.26-5.12,10.63-10.31,14.34-16.6,6.87-11.67,12.87-23.86,19.31-35.79,1.47-2.73,2.04-4.67-1.54-6.31-3.44-1.57-6.58-3.82-9.79-5.89-1.97-1.27-3.8-1.06-5.52.26-7.36,5.65-14.64,11.41-22.03,17.02-8.84,6.71-16.97,14.59-26.77,19.74-16.44,8.65-33.3,16.45-50,24.57-1.12.54-2.26,1.62-4.02.08,3.48-4.75,7.15-9.41,10.45-14.33,4.26-6.33,10.38-11.52,12.71-19.01,3.89-12.46,7.04-25.16,10.84-37.65,1.59-5.24,2.05-10.93,7.63-14.55,9.99-6.49,19.48-13.77,29.09-20.84,2.7-1.99,5.32-3.77,6.33-7.77,5.22-20.61,10.84-41.12,16.46-61.62,1.24-4.54,2.28-8.84,7.16-11.82,10.02-6.11,19.41-13.29,29-20.12.28-.2.6-.39.91-.58.21-.13.42-.25.63-.38.14-.09.29-.18.42-.28.96-.67,1.73-1.54,1.59-3.13-8.57-1.71-17.17-3.22-25.96-2.99-2.45,5.68-7.95,8.32-12.15,12.14-12.36,11.24-25.19,21.94-37.87,32.82-12.05,10.34-24.08,20.7-36.23,30.9-1.6,1.34-2.72,3.37-4.45,4.58-.78.55-1.69.93-2.82,1h0c-11.01,11.25-22.01,22.49-33.02,33.74.11,2.02.28,4.03.33,6.04.21,8.07-1.25,16-1.93,24-.1,1.2-.71,3.03.93,3.51.86.25,2.16-.55,3.09-1.16,4.15-2.74,8.25-5.57,12.35-8.39.85-.59,1.75-1.25,2.7-.57.99.71.45,1.76.22,2.75-2.04,9.14-3.62,18.4-6.13,27.4-4.05,14.52-8.61,28.9-13.17,43.27-1.01,3.18-1.13,5.79,1.09,8.37,2.71,3.15,5.35,6.37,8,9.58,2.26,2.74,3.17,5.29,1.12,9-2.89,5.23-4.89,10.98-7.27,16.51,6.07-3.15,10.52-8.41,15.8-12.6,5.83-4.63,11.4-9.61,17.14-14.38.93-.77,1.68-2.61,3.2-1.61,1.24.81.61,2.49.62,3.78.05,7.24.01,14.48.05,21.73,0,.74-.36,1.68,1.16,2.52,3.62-7.86,7.79-15.46,10.66-23.54,4.03-11.35,13.48-16.66,21.84-23.38,1.65,1.79.47,2.99.19,4.2-6.85,30.05-14.94,59.75-23.61,89.3-.51,1.75-.52,3.48-3.16,3.61-10.18.52-20.36,1.21-30.52,2.02-3.06.24-4.43-1-5.26-3.86-2.81-9.65-6-19.19-8.6-28.9-1.11-4.15-1.11-8.6-1.62-12.92-3.06,4.3-6,8.72-7.57,13.68-.22.71-.42,1.43-.59,2.16-.31,1.35-.5,2.74-.57,4.18-.48,10.18-1.03,20.34-1.96,30.49-.76,8.38-1.02,16.81,6.62,22.8.68.53.87,1.72,1.28,2.61,2.37,1.36,4.77,2.66,7.2,3.9,4.36,2.22,8.82,4.21,13.35,6.02h11.59c7.51-10.84,14.79-21.88,22.72-32.38,1.25-1.66,2.52-3.3,3.8-4.93ZM429.06,426.7h.01c-.08.15-.16.29-.24.43.08-.14.16-.29.23-.43Z"/>
  <path class="cls-15" d="M1215.25,521.22c-.78.02-1.56.04-2.33.06.78-.02,1.55-.04,2.33-.06-.2-2.43,1.18-4,2.52-5.6-1.34,1.6-2.72,3.17-2.52,5.6Z"/>
  <path class="cls-15" d="M1167.09,535.2c15.27-4.65,30.56-9.27,45.83-13.92h0c-15.27,4.65-30.56,9.27-45.83,13.92Z"/>
  <path class="cls-8" d="M475.23,510.4c-1.44-1.12-2.3.7-3.2,1.49-7.94,7.02-15.74,14.22-23.77,21.13-5.19,4.46-9.96,9.44-15.26,13.78h19.53c6.43-1.95,12.86-3.9,19.29-5.86,1.28-8.9,2.59-17.8,3.83-26.71.18-1.3.63-3.02-.43-3.84Z"/>
  <path class="cls-8" d="M326.77,536.9c-4.37.67-7.87-5.74-11.61-2.8-3.28,2.58-4.79,7.5-7.06,11.4-.25.44-.51.88-.76,1.31h39.99c-4.53-1.81-8.99-3.8-13.35-6.02-2.43-1.24-4.83-2.53-7.2-3.9Z"/>
  <path class="cls-8" d="M382.09,546.81h4.51c-1.63-.41-3.1-.46-4.51,0Z"/>
  <path class="cls-8" d="M298.07,503.55c-.93-1.56-1.59-3.36-2.01-5.13-1.06-4.51-2.74-4.06-5.43-1.15-8.16,8.81-16.58,17.38-24.65,26.28-3.06,3.38-6.12,3.87-10.17,2.38-5.27-1.93-10.64-3.65-16.08-5.01-3.08-.77-3.63-1.93-2.73-4.93,3.39-11.22,6.63-22.49,9.75-33.8,1.7-6.15,4.19-12.12,4.54-18.85-10.95,9.01-21.39,18.41-31.97,27.64-7,6.1-13.54,12.74-21.28,17.98-18.56,12.57-37.75,24.21-55.58,37.86h34.63c1.51-.35,2.88-.35,4.14,0h10.99c1.8-5.58,3.63-11.14,5.21-16.78.3-1.06.59-2.13.86-3.2,1.09-4.19,3.45-5.62,7.14-6.03,1.3-.14,2.61-.25,3.89-.51.94-.2,2.03-.88,2.57.3.26.57-.16,1.62-.53,2.3-4.37,7.98-8.76,15.95-13.15,23.92h97.05c.86-7.99,2.62-15.87,4.11-23.77,1.27-6.7,2.46-13.18-1.3-19.49Z"/>
  <path class="cls-12" d="M471.83,540.96s0,0,0,0h0c-6.43,1.96-12.86,3.9-19.29,5.86h23.46c-1-1.77-1.77-3.75-2.36-5.9-.6.01-1.2.03-1.8.05Z"/>
  <path class="cls-12" d="M530.68,540.96c3.42-8.37,9.91-14.53,15.19-21.54.67-.88,1.32-1.78,1.99-2.68.15-.34.29-.68.43-1.02-.62.18-1.45.17-1.81.59-5.08,5.88-10.09,11.82-15.14,17.73-3.63,4.26-7.26,8.52-10.9,12.77h4.51c.56-2.47,3.81-3.97,5.72-5.86Z"/>
  <path class="cls-12" d="M626.35,546.81h0c-.05-.14-.1-.28-.16-.4.06.13.11.26.16.4Z"/>
  <path class="cls-12" d="M548.31,515.71h-.01s0,0,0,0h0s.01,0,.02,0Z"/>
  <path class="cls-7" d="M125.3,482.23c-7.72,9.8-16.69,18.56-25.03,27.85-5.11,5.69-10.01,11.58-15.08,17.3-1.71,1.93-2.63,3.29.99,3.64,9.47.93,18.94,1.92,28.41,2.86,1.43.14,2.53-.54,3.51-1.55,2.89-3,6.16-5.58,9.15-8.44,15.76-15.07,31.3-30.39,46.95-45.59,1.3-1.27,2.79-2.33,4.2-3.48,4.65-3.79,7.99-7.81,7.36-14.77-1.45-16-2.16-32.06-3.16-48.1-7.84,3.43-15.51,7.2-22.83,11.69-5.86,12.01-13.25,23.12-19.78,34.74-4.58,8.14-8.96,16.57-14.68,23.84Z"/>
  <path class="cls-11" d="M611.44,235.54c7.58-1.6,13.26,3.04,19.4,6.13.82.01,1.65-.03,2.47.05,3.96.39,7.48,5.92,11.4,2.38,3.05-2.75,4.54-7.28,6.71-11.03.25-.43.51-.88.64-1.36.89-3.44,3.51-4.64,6.55-5.21,18.03-3.42,36.09-6.66,54.07-10.29,5.89-1.19,12.34-.9,17.49-4.61,9.24-6.66,18.14-13.8,27.38-20.47,1.46-1.05,2.88-2.17,4.29-3.29.53-.42,1.06-.85,1.59-1.27,3.71-2.95,7.46-5.85,11.88-7.73.5-2.17,2.46-2.86,4.02-3.95.28-.2.56-.41.8-.64.37-.35.69-.76.91-1.26-10.46-3.43-20.28-2.2-29.94,3.26-6.28,3.55-13.11,6.08-19.66,9.13-1.4.65-2.81.76-4.29.62-.5,1.18-.85.25-1.24-.13-2.18.53-3.63,2.16-5.35,3.46-4.32,3.28-8.13,7.53-13.53,8.98-7.48,2.02-15.11,2.79-21.96,7.55-5.74,3.99-13.19,5.35-19.29,8.92-9.78,5.74-19.26,7.57-29.66,1.85-2.4-1.32-5.21-2.66-8.44-1.98-11.25,2.38-22.57,4.38-33.78,6.94-1.93.44-4.89-.58-5.94,2.46,6.78,5.3,15.06,7.55,22.52,11.47.26.14.66.12.97.05Z"/>
  <path class="cls-3" d="M856.5,180.81c4.61,21.74,8.75,43.61,17.87,64.07,3.78,8.48,5.83,17.96,13.97,23.78,4.21,3.01,7.7,6.83,11.33,10.49.68.68,1.32,1.73,2.42,1.42,1.25-.35.8-1.63.97-2.57,2.9-16.43,5.84-32.86,8.7-49.3.49-2.83.05-5.27-1.62-8.02-2.21-3.62-7.16-5.34-7.07-10.48-7.46-6.45-15.68-11.84-23.9-17.17-7.67-4.97-14.56-11.14-22.78-15.25.03,1.01-.09,2.05.11,3.02Z"/>
  <path class="cls-11" d="M36.95,510.32c7.8-7.5,16.51-14.27,26.31-19.28,5.29-2.7,10.99-5.1,15.42-8.93,11.9-10.3,23.22-21.3,34.73-32.06,1.18-1.1,2.66-2.09,2.74-4.02-6,1.53-11.02,5.23-16.59,7.71-21.6,9.63-43.16,19.33-64.75,28.99-9.66,4.32-19.52,8.25-28.98,12.98-1.89.95-3.85,1.79-5.83,2.61v16.35c4.6,0,9.21.16,13.83.63,7.91.82,15.89,1.96,23.12-4.99Z"/>
  <path class="cls-4" d="M177.08,546.81h4.14c-1.25-.35-2.62-.35-4.14,0Z"/>
  <path class="cls-2" d="M0,546.81h5.01c-1.65-1.67-3.32-3.32-5.01-4.94v4.94Z"/>
  <path class="cls-12" d="M140.18,533.05c-13,5.17-26.21,9.63-39.51,13.76h31.15c3.09-4.18,6.19-8.36,9.28-12.54-.31-.41-.61-.81-.92-1.22Z"/>
  <path class="cls-2" d="M931.21,226.61c16.88,8.61,33.74,17.28,50.61,25.93,4.63,2.39,9.28,4.75,13.92,7.12.46-.45.92-.9,1.39-1.35,1.53-1.5,3.11-2.96,4.69-4.41-14.8-6.58-29.61-13.17-44.46-19.64-11.19-4.88-22.09-10.44-33.61-14.52,1.46,3.44,4.32,5.25,7.46,6.85Z"/>
  <path class="cls-2" d="M370.63,275.39c12.16-10.2,24.19-20.56,36.23-30.9,12.67-10.88,25.51-21.58,37.87-32.82,4.2-3.82,9.7-6.46,12.15-12.14-6.41-3.24-11.51-2.57-16.12,2.12-24.5,24.94-49.01,49.87-73.49,74.82-1.39,1.41-2.61,3-3.9,4.5,1.13-.07,2.03-.45,2.82-1,1.72-1.21,2.85-3.24,4.45-4.58Z"/>
  <path class="cls-16" d="M727.14,185.97c1.48.14,2.88.03,4.29-.62,6.56-3.04,13.38-5.58,19.66-9.13,9.66-5.46,19.48-6.69,29.94-3.26,6.8-1.24,13.64-.24,20.37.24,4.05.29,8.15.31,12.2.72.86,0,1.73-.08,2.58-.06.29,0,.57.03.85.06,3.07.38,6.14.68,9.22.93,9.23.73,18.49.95,27.73,1.38,0,0,0,0,0,0-.56-.61-1.03-1.36-1.69-1.82-16.85-11.66-33.77-23.22-50.54-35.01-3.1-2.18-5.35-1.93-8.47-.08-17.22,10.19-33.34,22.06-49.53,33.79-5.64,4.09-12.09,7.19-16.62,12.81-.41-.03-.83-.06-1.24-.09.39.38.74,1.31,1.24.13Z"/>
  <path class="cls-16" d="M1158.08,372.45c-.15.35-.31.71-.44,1.07h0c.14-.36.29-.72.44-1.07h0Z"/>
  <path class="cls-13" d="M473.64,540.91c-.15-1.88.92-3.1,1.95-4.33.34-.41.69-.83.98-1.27,11.03-16.85,22.08-33.69,33.07-50.57,2.78-4.28,2.97-9.5,4.62-14.19.37-1.07.02-1.93-1.16-2.36-2.3-.85-1.06-2.08-.11-2.93,2.19-1.96,3.18-4.66,4.58-7.1,1.56-9.97,8.82-17.01,12.77-25.76,1.5-3.32,4.31-5.94,5.05-9.68-1.85-1.22-2.66-3.27-3.8-5.03-.38-.59-.8-1.14-1.3-1.62-3.23-3.08-2.67-5.77-.2-9.12,8.85-12.04,17.45-24.26,26.19-36.39.13-.18.25-.37.36-.56.1-.17.2-.34.3-.51.69-1.21,1.39-2.45,3.12-2.54l.08-3.03c-12.1,7.39-24.4,14.51-35.33,23.68-10.49,8.8-23.43,13.36-34.52,21.09-2.71,1.89-5.74,3.34-8.31,5.4-.12.1-.24.18-.35.26-1.68,1.11-2.19-.44-3.14-1.21-2.12.89-4.24,1.78-6.48,2.72-.74.31-1.5.63-2.27.95,1.99-4.06,7.26-4.59,8.13-9.18.9.26,1.3-.22,1.44-1.1-.5.34-.99.69-1.49,1.03-.02.01-.04.03-.06.04h0s.04-.03.06-.04c-.67-.06-1.17-.24-1.49-.53-.45-.4-.6-1.01-.49-1.79.03-.2.07-.4.13-.62-1.21-.17-2.23.28-3.18.86-.32.19-.63.4-.93.61-8,5.32-15.95,10.72-23.98,16-1.59,1.05-2.85,2.18-3.56,3.99-4.45,11.37-8.76,22.8-13.49,34.05-2.05,4.89-2.69,10.64-6.66,14.45-6.11,5.84-12.61,11.26-18.93,16.88-6.69,5.95-14.33,11.13-19.82,18.07-1.29,1.63-2.55,3.27-3.8,4.93-7.93,10.51-15.21,21.54-22.72,32.38h23.18c1.41-.46,2.88-.41,4.51,0h46.4c5.3-4.34,10.07-9.32,15.26-13.78,8.03-6.91,15.83-14.11,23.77-21.13.9-.8,1.76-2.61,3.2-1.49,1.06.83.61,2.54.43,3.84-1.24,8.91-2.55,17.81-3.83,26.71h0s0,0,0,0c.6-.01,1.2-.03,1.8-.05ZM509.53,469.42c.11.05.25.08.32.16.04.05-.05.2-.07.3-.18-.09-.36-.17-.55-.26.1-.07.2-.14.31-.21Z"/>
  <path class="cls-1" d="M561.96,306.98c4.96-1.82,9.86-3.84,14.89-5.44,17.34-5.51,13.46-6.95,26.84,2.14,2.25,1.53,3.69,1.7,5.34-1.32,7.34-13.49,15-26.81,22.59-40.15,1.28-2.26.87-3.56-1.46-4.75-.24-.12-.48-.24-.72-.35-.48-.23-.98-.43-1.47-.64-2.97-1.21-6.1-2.11-8.6-4.27-.21-.18-.41-.37-.61-.57-1.57.27-2.88-.45-4.24-1.07-5.85-2.67-11.75-5.24-17.56-7.99-2.68-1.27-3.99-.98-3.97,2.37.04,7.36-1.22,14.6-2.07,21.88-.63,8.59-1.28,17.19-1.88,25.78-.11,1.61-.46,2.47-2.38,1.95-5.82-1.57-11.68-2.99-17.53-4.46-11.19-2.49-22.37-4.98-33.56-7.45-3.52-.78-7.05-1.5-11.76-2.5,3.12,4.31,5.52,7.44,7.73,10.71,3.78,5.6,9.27,9.93,11.79,16.46,2.26.39,2.7,2.15,2.97,4.05,4.31-.67,8.62-1.34,12.93-2h0c.03-1.83,1.52-1.95,2.73-2.39Z"/>
  <path class="cls-11" d="M566.53,360.64c6.95-3.56,13.83-7.23,20.11-11.99.33-1.06.97-1.7,1.99-1.8.15-.01.3-.02.46,0,.14-.17.32-.24.54-.21,1.23-2.14,3.26-2.99,5.37-3.69.3-.1.6-.2.91-.3,0,0-.03-.03-.03-.03h0,0s0,0,0,0c.85-1.28,1.71-2.56,2.57-3.84,3.8-2.46,7.6-4.93,11.4-7.39,3.8-2.46,7.61-4.92,11.42-7.36,1.4-.9,2.57-2.89,4.69-1.4.7-.17,1.41-.45,1.98-.82.96-.63,1.57-1.54,1.27-2.7-.17-.64-.42-.98-.72-1.13-.9-.45-2.28.8-3.33.81-1.04,2.22-3.12,2.48-5.04,2.88-.44.09-.88.2-1.29.33-18.64,6.1-37.24,12.4-56.07,17.85-7.67,2.22-12.76,7.5-18.15,12.46-12.11,11.12-23.8,22.7-35.66,34.1-.36.35-.66.82-1.09,1.02-9.87,4.61-18.8,11.13-29.07,14.92-.17.14-.35.28-.52.42-.76.61-1.51,1.23-2.27,1.84h0c-.06.22-.1.42-.13.62-.11.78.03,1.39.49,1.79.33.29.82.47,1.49.53.5-.34.99-.69,1.49-1.03,1.27.76,2.29.18,2.94-.85,2.74-4.32,7.63-4.66,11.88-6.41-3.56,6.52-8.92,10.96-15.63,13.88.95.78,1.45,2.32,3.14,1.21.11-.07.23-.16.35-.26,2.57-2.06,5.6-3.51,8.31-5.4,11.09-7.73,24.03-12.29,34.52-21.09,10.93-9.17,23.23-16.29,35.33-23.68,1.13-.58,2.27-1.16,3.4-1.74.99-.51,1.99-1.01,2.98-1.52Z"/>
  <path class="cls-11" d="M477.83,407.53s-.04.03-.06.04h0s.04-.03.06-.04h0Z"/>
  <path class="cls-9" d="M619.13,319.16s.07-.05.1-.06c0,0,.02-.01.02-.01.13-.05.25-.02.38.09.08.07.17.18.25.32.76-.03,1.47-.16,1.89-.92-.01-1.03.38-1.71.94-2.26.28-.27.61-.51.95-.74.34-.23.7-.45,1.04-.69,6.81-4.72,13.52-9.61,20.39-14.24,6.1-4.11,11.32-8.82,15.17-15.4,4.37-7.47,9.89-14.23,14.61-21.5,2.29-3.52,5.22-6.74,6.53-11.02-1.95-.55-3.09.73-4.45,1.12-11.87,3.38-21.64,9.78-30.08,19.2-12,13.4-27.01,23.5-40.23,35.58-.77.71-1.57,1.4-2.37,2.07-5.62,4.74-11.76,8.87-16.29,14.84,0,0,0,0,0,0,10.42-1.36,20.61-3.93,30.89-6.05.09-.15.17-.26.25-.33Z"/>
  <path class="cls-7" d="M688.44,393.82c-2.24-14.97-4.27-29.97-6.39-44.96-.2,0-.4.02-.6.02,0,7.88-.23,15.77.09,23.63.18,4.45-1.18,8.2-3.17,11.95-9.04,16.98-17.97,34.02-27.09,50.96-1.7,3.17-1.7,6.04-.63,9.27,5.08-2.27,10.16-4.55,15.25-6.83,5.57-9.28,11.08-18.61,16.31-28.09,2.74-4.96,7.22-9.29,6.22-15.95Z"/>
  <path class="cls-16" d="M507.84,387.41c.43-.2.73-.67,1.09-1.02,11.86-11.39,23.55-22.98,35.66-34.1,5.4-4.95,10.49-10.24,18.15-12.46,18.83-5.45,37.42-11.75,56.07-17.85.41-.14.85-.24,1.29-.33,1.92-.41,4-.67,5.04-2.89-1.12-.07-2.24-.13-3.36-.19-.42.75-1.13.89-1.89.92-.34,0-.67,0-1.01,0-10.28,2.12-20.47,4.69-30.89,6.05-12.26,3.65-24.92,5.41-37.38,8.1-3.73.81-6.75,2.1-9.65,5.14-.56.58-1.07,1.23-1.56,1.9-2.14,2.9-3.96,6.25-7.85,7.22,0,0,0,0,0,0-4.88,5.42-9.62,10.99-14.66,16.25-1.28,1.33-2.56,2.65-3.84,3.97-9.02,9.22-18.37,18.08-28.26,26.33-.34,1.05-1.01,1.83-1.8,2.52-.17.15-.35.3-.53.45-1.13.92-2.36,1.76-3.08,3.01-.1.18-.2.37-.28.56,0,0,0,0,0,0-.16.4-.27.83-.32,1.32h0c10.27-3.79,19.2-10.31,29.07-14.92Z"/>
  <path class="cls-7" d="M590.61,371.03c1.56.26,2.39-.86,2.96-2.18,3.58-8.29,7.16-16.59,10.76-24.88.48-1.11,1-2.32.2-3.33-1.04-1.31-2.11,0-3.06.4-.68.28-1.33.65-2,.97-1.11.53-2.25.94-3.6.61h0s.03.03.03.03c-.82,3.41-3.58,3.64-6.27,3.99-.22-.03-.4.04-.54.21-.14,1.55-1.03,2.05-2.45,1.8-6.28,4.76-13.17,8.43-20.11,11.99-.99.51-1.99,1.01-2.98,1.52-1.14.58-2.27,1.16-3.4,1.74-.03,1.01-.06,2.02-.08,3.03,10.03,2.57,20.41,2.4,30.55,4.1Z"/>
  <path class="cls-10" d="M654.31,340.64c3.92-1.12,6.75-4.12,9.95-6.44,9.51-6.92,9.46-7,6.42-18.75-.08-.32-.07-.67-.16-.99-2.43-8.62-4.86-17.24-7.3-25.86-.44.04-.87.09-1.31.13-1.25,5.85-2.45,11.72-3.78,17.55-2.33,10.26-4.72,20.51-7.11,30.76-.31,1.32-.79,2.75.11,3.86.97,1.19,2.17.02,3.17-.27Z"/>
  <path class="cls-8" d="M539.89,419.65c-1.74.4-3.25,1.38-4.49,3.06-.74,3.74-3.55,6.36-5.05,9.68-3.96,8.74-11.21,15.79-12.77,25.76,5.89-3.06,9.89-8.38,14.05-13.22,5.34-6.22,11.23-11.84,16.8-17.81,1.54-1.65,3.03-3.32,4.07-5.3.35-.66.64-1.35.88-2.09-1.59-.03-3.17-.06-4.76-.09-1.79-.04-3.57-.07-5.36-.11-1.2-.15-2.32-.11-3.36.13Z"/>
  <path class="cls-7" d="M775.29,178.83c.52.04,1.03.07,1.54.11,5.02-.68,10.05-1.25,15.05-2.05,2.71-.43,5.44-.7,8.16-.95,1.02-.1,2.03-.19,3.05-.29,3.53-.35,7.04-.8,10.5-1.71-4.05-.41-8.15-.43-12.2-.72-6.74-.48-13.58-1.48-20.37-.24-.23.5-.54.91-.91,1.26-.25.24-.52.45-.8.64-1.57,1.09-3.52,1.78-4.02,3.95Z"/>
  <path class="cls-5" d="M625.94,322.61c-2.12-1.49-3.29.5-4.69,1.4-3.81,2.44-7.62,4.9-11.42,7.36-3.8,2.46-7.6,4.93-11.4,7.39h0c1.29-.41,2.58-.84,3.85-1.29.64-.22,1.27-.45,1.9-.69,1.26-.47,2.51-.97,3.73-1.5,2.46-1.06,4.84-2.24,7.12-3.61,1.5-.89,2.95-1.87,4.35-2.93,2.34-1.77,4.53-3.8,6.54-6.14Z"/>
  <path class="cls-7" d="M650.37,344.05c-.36-1.64-1.76-1.39-2.81-1.06-3.39,1.08-6.74,2.33-10.1,3.51.07.51.13,1.02.2,1.54,3.64-.69,7.29-1.36,10.92-2.1.96-.19,2.09-.54,1.79-1.89Z"/>
  <path class="cls-3" d="M981.58,255.23c1.79,4.23,3.61,8.44,5.43,12.65,2.94-2.66,5.84-5.41,8.73-8.21-4.64-2.37-9.29-4.73-13.92-7.12-1.17.79-.59,1.86-.24,2.69Z"/>
  <path class="cls-7" d="M814.8,216.45c-2.66-2.42-2.91,1.58-3.55,2.9-7.67,15.98-15.2,32.04-22.69,48.1-1.02,2.19-1.69,4.54-2.66,7.19,2.44-.54,2.94-2.29,3.78-3.58,7.72-11.88,15.36-23.8,23.05-35.7,2.26-3.5,4.82-6.83,6.81-10.48,2.71-4.98-2.48-6.39-4.73-8.44Z"/>
  <path class="cls-7" d="M330.29,456.83c-.6,1.25-.71,2.69-.73,4.15.51,4.32.51,8.77,1.62,12.92,2.6,9.71,5.8,19.25,8.6,28.9.83,2.85,2.2,4.1,5.26,3.86,10.16-.81,20.34-1.5,30.52-2.02,2.65-.13,2.65-1.86,3.16-3.61,8.67-29.55,16.76-59.25,23.61-89.3.28-1.21,1.46-2.41-.19-4.2-8.36,6.72-17.81,12.04-21.84,23.38-2.87,8.08-7.05,15.68-10.66,23.54-1.53-.84-1.16-1.78-1.16-2.52-.03-7.24,0-14.48-.05-21.73,0-1.29.62-2.97-.62-3.78-1.52-1-2.27.84-3.2,1.61-5.73,4.76-11.3,9.74-17.14,14.38-5.27,4.19-9.72,9.46-15.8,12.6-.46.39-.82.82-1.1,1.28-.11.17-.2.35-.29.53Z"/>
  <path class="cls-14" d="M256.74,407.63c-3.09-5.93-6.08-11.91-9.29-17.76-1.62-2.95-1.13-4.86,1.68-6.67,2.61-1.69,5.15-3.65,6.16-6.91-4.9.89-9.19,3.37-13.66,5.36-.64.28-1.28.56-1.93.82-2.74,1.09-3.57,3.02-3.45,5.91.39,9.21.57,18.45.74,27.64.31,16.28,1.82,32.53,1.33,48.83-.05,1.6-.73,3.55,1.41,5.2,7.21-19.08,14.29-37.8,21.37-56.52-2.51-1.16-3.22-3.69-4.36-5.89Z"/>
  <path class="cls-3" d="M249.14,383.2c-2.81,1.81-3.3,3.72-1.68,6.67,3.21,5.86,6.2,11.84,9.29,17.76,1.15,2.2,1.86,4.74,4.36,5.89,2.13-7.93,6.32-15.13,8-23.22-2.49-5.34.67-10.53.45-15.83-.06-1.55,1.04-3.15-.55-4.5-2.34.35-4.44,1.21-6.47,2.26-2.45,1.27-4.78,2.82-7.24,4.04-1.01,3.26-3.54,5.23-6.16,6.91Z"/>
  <path class="cls-8" d="M293.21,429.24c-3.75,4.42-7.52,8.84-11.3,13.23-7.14,8.3-14.28,16.58-21.43,24.87-.54.63-1.35,1.38-.82,2.15.69,1.02,1.75.62,2.6-.04,10.18-7.84,22.81-13.22,26.69-27.43.21-.76.96-1.36,1.33-2.1,1.91-3.77,4.17-7.4,5.36-11.54-1.41-.46-1.88.21-2.42.86Z"/>
  <path class="cls-7" d="M269.56,374.48c.21,5.3-2.94,10.5-.45,15.83,3.81-8.31,6.96-16.87,9.33-25.85-.72.66-1.49,1.18-2.3,1.63-.3.17-.61.33-.92.48-2.16,1.06-4.43,1.8-6.21,3.4,1.59,1.35.49,2.95.55,4.5Z"/>
  <path class="cls-8" d="M103.12,484.32c-.52-.24-1.05-.48-1.57-.73-3.13,6.35-6.25,12.71-9.38,19.06.52.26,1.04.52,1.56.78,3.13-6.37,6.26-12.75,9.39-19.12Z"/>
  <path class="cls-8" d="M78.12,532.31c-2.37,4.83-4.74,9.66-7.12,14.5h1.92c2.25-4.58,4.49-9.16,6.74-13.74-.51-.25-1.03-.5-1.54-.76Z"/>
  <path class="cls-8" d="M108.93,470.57c-1.73,2.65-2.72,4.17-3.71,5.68,2.97-.25,3.7-1.95,3.71-5.68Z"/>
  <path class="cls-7" d="M279.76,362.05c-.07-.14-.14-.28-.21-.42h0c-.05.06-.11.12-.16.18-.05.06-.1.12-.1.18-.01.13.12.28.19.41.09-.12.19-.24.28-.36Z"/>
  <path class="cls-4" d="M531.93,485.18c4.07-5.89,7.14-12.52,11.36-18.29,8.87-12.11,14.55-24.97,12.05-40.52-.29-1.84-.76-4.08,1.05-5.69-.4-.4-.79-.8-1.19-1.2-.36.05-.71.09-1.07.14-.26.03-.51.07-.77.1h0c-.23.74-.53,1.43-.88,2.09-1.04,1.98-2.53,3.65-4.07,5.3-5.57,5.96-11.46,11.58-16.8,17.81-4.15,4.84-8.16,10.16-14.05,13.22-1.41,2.45-2.39,5.15-4.58,7.1-.95.85-2.19,2.09.11,2.93,1.18.43,1.53,1.29,1.16,2.36-1.65,4.7-1.84,9.92-4.62,14.19-10.99,16.88-22.03,33.72-33.07,50.57-.29.44-.63.86-.98,1.27-1.03,1.24-2.1,2.45-1.95,4.33.59,2.15,1.36,4.13,2.36,5.9h33.46c2.66-8.46,5.36-16.91,8.33-25.25,4.36-12.25,6.55-25.37,14.14-36.38Z"/>
  <path class="cls-8" d="M555.2,419.48c.4.4.79.8,1.19,1.2,2.43-1.18,3.94-3.16,4.64-5.76.06-.23-.68-.97-.81-.92-.61.27-1.18.58-1.71.93-1.59,1.05-2.77,2.5-3.31,4.55Z"/>
  <path class="cls-12" d="M548.53,515.29c-.08.14-.15.27-.23.41h.01c.07-.13.14-.27.21-.41Z"/>
  <path class="cls-7" d="M586.66,294.57c1.92.52,2.26-.34,2.38-1.95.6-8.6,1.25-17.19,1.88-25.78-1.88.28-3.54-.33-5.25-1.09-5.6-2.47-11.24-4.84-16.9-7.16-1.29-.53-2.66-2.21-4-.99-1.17,1.06-.29,2.8-.09,4.3.31,2.36.71,4.71,1.14,7.05.16.88.33,1.76.49,2.63,1.17,6.14,2.43,12.26,2.83,18.53,5.85,1.48,11.71,2.89,17.53,4.46Z"/>
  <path class="cls-2" d="M543.33,307.32c-6.03,2.03-12.23,3.59-17.77,7.18,6.91-1.04,13.82-2.08,20.74-3.13-.27-1.9-.71-3.66-2.97-4.05Z"/>
  <path class="cls-3" d="M429.06,426.7c-.08.14-.16.29-.23.43.08-.14.16-.28.24-.42h-.01Z"/>
  <path class="cls-16" d="M211.88,520.59c-.54-1.18-1.63-.49-2.57-.3-1.28.27-2.59.37-3.89.51-3.69.41-6.05,1.84-7.14,6.03-.28,1.07-.57,2.14-.86,3.2-1.58,5.64-3.41,11.2-5.2,16.78h5.99c4.39-7.97,8.78-15.94,13.15-23.92.37-.68.79-1.73.53-2.3Z"/>
  <path class="cls-5" d="M494.13,399.24c-4.25,1.75-9.14,2.09-11.88,6.41-.65,1.03-1.67,1.61-2.94.85-.14.88-.54,1.36-1.44,1.1-.87,4.59-6.14,5.12-8.13,9.18.77-.32,1.53-.64,2.27-.95,2.23-.94,4.35-1.83,6.48-2.72,6.71-2.92,12.08-7.35,15.63-13.88Z"/>
  <path class="cls-4" d="M509.85,469.59c-.06-.09-.21-.11-.32-.16-.1.07-.2.14-.31.21.18.09.36.17.55.26.03-.1.11-.25.07-.3Z"/>
  <path class="cls-14" d="M589.63,346.63c2.69-.35,5.46-.58,6.27-3.99-.3.1-.61.2-.91.3-2.11.71-4.13,1.56-5.37,3.69Z"/>
  <path class="cls-14" d="M586.64,348.65c1.42.24,2.31-.26,2.45-1.8-.16,0-.31,0-.46,0-1.02.1-1.66.73-1.99,1.8Z"/>
  <path class="cls-14" d="M619.26,319.08s-.02.01-.02.01c-.03.02-.07.03-.1.06-.08.07-.17.18-.25.33h0c.34,0,.67,0,1.01,0-.08-.14-.17-.24-.25-.32-.13-.11-.25-.14-.38-.09Z"/>
  <path class="cls-14" d="M1710,409.05c-1.12-3.72-1.28-7.16,0-10.75v-67.21c-2.32,3.33-4.77,6.61-7.76,9.57-1.24-2.87.6-4.56,1.53-6.26,2.07-3.81,4.15-7.62,6.23-11.42v-129.57c-7.59,10.97-15.72,21.11-21.63,32.44-3.38,6.47-2.79,15.11-3.88,22.78-2.79,19.58-5.52,39.17-9.66,59.12-4.55-10.96-9.1-21.93-13.9-33.49-3.09,3.39-2.51,7.11-3.31,10.24-2.68,10.47-4.78,21.1-7.29,31.61-1.06,4.45.21,5.15,4.51,4.62,11.81-1.47,23.67-2.47,35.54-3.36,3.62-.27,7.18-.55,10.76-1.26,3.86-.77,5.72.19,3.5,4.81-4.31,8.97-8.46,18.05-12.19,27.29-12.18,30.17-21.54,61.37-31.71,92.26-1.98,6.01-1.51,12.78-.41,18.8,1.66,9.07,1.07,18.18,1.77,27.21.89,11.54,2.82,23.2,1.46,36.01-4.29-4.96-6.43-10.18-8.3-15.21-2.78-7.47-7.87-11.21-15.02-13.51-9.96-3.21-19.73-7.05-29.57-10.66-1.2-.44-2.44-1.38-3.6-.47-1.55,1.22-.4,2.73-.06,4.17,2.07,8.85,3.86,17.78,6.22,26.55,1.02,3.78-.21,5.41-3.48,6.02-8.57,1.58-17.12,3.28-25.75,4.41-5.12.67-7.69-4.34-11-7.03-8.48-6.9-16.28-14.66-24.46-21.94-3.04-2.7-3.23-5.85-2.47-9.47,4.87-23.06,9.68-46.13,14.59-69.18,1.8-8.43-.94-16.4-2.45-24.41-6.1-32.28-12.64-64.49-18.8-96.76-.54-2.81-1.38-5.09-3.57-6.56-13.23-8.9-20.94-22.21-29.17-35.51-7.16-11.56-8.41-22.96-6.25-35.87,1.21-7.19.57-14.67,1.41-22.04,1.08-9.46,1.21-19.04,1.36-28.58.07-4.35,1.84-5.14,5.58-4.52,18.23,3.04,36.45,6.09,54.72,8.85,5.65.85,7.87,2.78,8.19,9.34.77,15.73,3.06,31.39,4.63,47.08.65,6.46,1.03,12.95,1.51,19.43.17,2.38.09,4.9,3.5,2.34,8.06-6.05,16.04-12.22,24.3-17.97,3.46-2.41,2.97-4.5,1.24-7.54-6.75-11.83-13.3-23.78-20.06-35.61-2.49-4.36-.24-8,1.3-11.72,5.24-12.6,9.92-25.51,16.13-37.6,7.2-14.01,8.84-29.29,12.12-44.24.6-2.74.56-5.72,1.57-8.27,2.48-6.26.37-9.41-5.83-10.67-2.49-.51-4.86-1.62-7.29-2.45-7.78-2.65-8.13-3.71-3.11-10.53,1.35-1.83,2.92-3.51,4.11-5.43.35-.58.67-1.18.94-1.81.27-.63.48-1.3.63-2.01-.66-.05-1.33-.1-2-.14-5.71,2.44-10.57,6.18-15.36,10-.69.55-1.37,1.09-2.05,1.64-1.83,1.46-3.66,2.9-5.55,4.26-11.94,8.62-23.46,17.86-35.4,26.48-6.65,4.8-14.99,4.42-22.61,5.96-23.26,4.7-46.61,8.89-69.92,13.31-3.93.74-7.32,2.29-8.47,6.74-.16.62-.5,1.2-.82,1.76-2.81,4.85-4.74,10.71-8.68,14.26-5.07,4.57-9.62-2.57-14.74-3.08-1.06-.11-2.13-.04-3.2-.06,2.79,2.18.6,2.87-1.07,3.75-1.27.67-2.56,1.3-3.85,1.94-3.87,1.91-7.69,3.9-10.71,7.2.26.26.52.5.79.73,2.61,2.25,5.74,3.45,8.87,4.64.75.29,1.5.58,2.25.88.64.26,1.28.53,1.9.82.31.15.62.3.93.45,3.01,1.54,3.55,3.22,1.89,6.14-9.82,17.26-19.72,34.48-29.21,51.93-2.13,3.91-3.99,3.69-6.9,1.71-17.3-11.76-12.28-9.89-34.71-2.77-6.5,2.06-12.84,4.67-19.25,7.03-1.56.57-3.48.73-3.53,3.09-.44,1.55-1.03,2.99-1.74,4.35,0,.01-.01.02-.02.03-.56,1.06-1.19,2.06-1.86,3.04-.76,1.09-1.57,2.15-2.43,3.18-.65.78-1.31,1.55-1.99,2.31-2.02,2.29-4.09,4.53-5.86,6.99-6.66,9.23-14.01,17.95-20.99,26.95-.15.19-.26.41-.35.65-.27.71-.35,1.59-.57,2.34,5.03-1.26,7.39-5.6,10.15-9.34.64-.86,1.3-1.7,2.02-2.45,3.75-3.94,7.66-5.61,12.48-6.65,16.12-3.48,32.49-5.76,48.34-10.48,0,0,0,0,0,0h0c5.86-7.72,13.8-13.07,21.07-19.2,1.04-.87,2.06-1.77,3.06-2.68,17.1-15.63,36.51-28.68,52.03-46.01,10.91-12.18,23.54-20.46,38.9-24.82,1.76-.5,3.23-2.16,5.76-1.45-1.69,5.54-5.48,9.7-8.44,14.25-6.11,9.4-13.25,18.14-18.9,27.81-4.98,8.52-11.73,14.6-19.62,19.92-8.89,5.99-17.55,12.31-26.36,18.41-.45.31-.91.59-1.35.89-.44.3-.86.61-1.23.96-.73.71-1.23,1.59-1.22,2.92,1.45.08,2.9.17,4.35.25,1.36,0,3.14-1.62,4.31-1.04.39.19.71.63.93,1.46.39,1.5-.4,2.68-1.64,3.49-.75.49-1.65.85-2.56,1.07-3.12,3.64-6.58,6.68-10.3,9.28-1.24.87-2.5,1.68-3.8,2.45-2.95,1.76-6.03,3.3-9.21,4.66-1.59.68-3.2,1.33-4.83,1.94-.81.31-1.63.6-2.46.89-1.65.58-3.31,1.13-4.98,1.66h0s0,0,0,0c-1.11,1.66-2.21,3.31-3.32,4.97,1.74.43,3.22-.1,4.65-.78.86-.41,1.71-.89,2.59-1.25,1.24-.51,2.62-2.22,3.96-.52,1.03,1.31.36,2.88-.26,4.31-4.65,10.72-9.28,21.45-13.91,32.18-.74,1.7-1.8,3.16-3.82,2.82-13.11-2.2-26.54-1.97-39.5-5.3-2.55.14-3.37,2.21-4.42,3.96-.15.25-.31.49-.47.72-11.29,15.68-22.42,31.49-33.86,47.06-3.19,4.34-3.91,7.81.26,11.8.65.62,1.19,1.34,1.68,2.1,1.47,2.28,2.53,4.93,4.91,6.51,1.6-2.17,3.56-3.44,5.8-3.96,1.35-.31,2.8-.36,4.35-.17,0,0,0,0,0,0h0c4.34-8.41,10.46-15.49,16.21-22.85,1.92-2.45,3.79-4.94,5.55-7.51.73-1.06,1.73-1.93,2.48-2.98,6.96-9.67,6.81-9.57,13.48.02,8.24,11.86,16.57,23.67,25.24,35.2,5.65,7.52,5.55,16.65,7.74,25.11,2.16,8.36,3.58,16.92,5.44,25.36.31,1.38.65,3.24,2.49,3.41,1.47.14,1.86-1.48,2.69-2.43,12.04-13.78,24.02-27.62,36.29-41.19,2.69-2.97,4.44-9.3,8.08-8.34,4.07,1.07,1.51,7.25,2.15,11.08,2.11,12.55,3.44,25.26,4.56,37.96,1.91,21.55,3.48,43.13,5.1,64.7.28,3.68.09,7.4.12,11.11.02,2.32.7,4.15,3.39,3.03,14.99-6.21,31.95-9.14,44.69-18.84,14.96-11.39,29.23-24.88,35.33-44.45,2.05-6.59,5.27-12.81,8.11-19.13,2.9-6.44,9.44-8.61,14.76-11.9,3.04-1.88,2.34,1.4,1.83,3.27-3.05,11.06-6.08,22.13-9.13,33.19-3.05,11.06-5.89,22.19-9.29,33.15-1.35,4.34-.75,8.1.84,11.98,7.8,19.04,15.64,38.05,23.46,57.08.62,1.51.47,3.23,3.33,2.28,11.52-3.86,23.62-5.56,35.55-6.47,10.02-.76,20.27,1.64,30.41,2.74,14.15,1.53,28.28,3.16,42.43,4.72,1.06.12,2.15-.07,3.21.04,8.54.87,8.43.86,10.08-8.06,6.04-32.51,12.15-65.01,18.27-97.5.06-.33.52-.59,1.68-1.83v53.31c3.71-1.81,4.77-4.39,5.97-6.68.73-1.39,1.46-2.78,2.19-4.18v-69.6ZM1444.65,257.59c3.09-13.25,6.18-26.5,9.19-39.78,1.71-7.55,3.26-15.13,4.88-22.7.57-.06,1.13-.11,1.7-.17,3.15,11.14,6.3,22.29,9.44,33.44.12.41.1.87.21,1.29,3.93,15.2,4,15.3-8.3,24.25-4.13,3-7.79,6.87-12.86,8.32-1.29.37-2.85,1.88-4.1.34-1.17-1.44-.55-3.29-.15-5ZM1441.49,269.09c-4.7.95-9.41,1.82-14.12,2.71-.08-.66-.17-1.32-.25-1.99,4.35-1.53,8.67-3.14,13.06-4.54,1.35-.43,3.16-.74,3.63,1.37.39,1.75-1.08,2.19-2.32,2.44ZM1462.66,485.25c-.05.07-.1.13-.16.16-.25.1-.69-.25-1.04-.41.15-.36.23-.93.48-1.03.06-.03.14-.02.22,0,.01,0,.02.01.04.01.24.07.54.28.79.4,0,0,0,0,0,0h0c-.12.27-.19.66-.32.88ZM1458.41,402.16c4.27,21.54,8.68,43.05,13.22,65.41,5.8-6.04,9.37-12.67,13.69-18.72,1.1-1.55,1.89-5.37,4.17-3.71,2.09,1.52,3.35,5.15,1.31,8.23-1.3,1.97-2.84,3.79-4.41,5.55-6.46,7.22-12.96,14.4-19.48,21.56-.68.74-1.48,1.67-2.73.79-.07-.39-.35-1.03-.2-1.16,7.51-6.58,4.78-13.85,1.95-21.59-7.42-20.34-14.36-40.87-21.62-61.27-1.55-4.35-1.62-8.19.67-12.43,11.79-21.9,23.34-43.94,35.03-65.9,2.58-4.85,4.33-9.69,4.1-15.45-.4-10.17-.11-20.37-.11-30.56.26-.01.51-.02.77-.03,2.74,19.38,5.36,38.79,8.26,58.14,1.29,8.61-4.51,14.21-8.05,20.62-7.93,14.37-16.34,28.47-24.82,42.52-1.6,2.65-2.31,5.24-1.76,8ZM1698.6,345.61c-.12-.3-.47-.76-.36-.99.26-.54.73-.98,1.11-1.46.14.39.42.78.4,1.16-.03.67-.27,1.31-1.15,1.28Z"/>
  <path class="cls-10" d="M1692.45,348.23c3.73-9.24,7.88-18.32,12.19-27.29,2.22-4.62.36-5.58-3.5-4.81-3.58.71-7.14.99-10.76,1.26-11.87.88-23.73,1.89-35.54,3.36-4.3.53-5.57-.17-4.51-4.62,2.51-10.52,4.61-21.14,7.29-31.61.8-3.13.22-6.85,3.31-10.24,4.8,11.56,9.35,22.53,13.9,33.49,4.15-19.95,6.88-39.54,9.66-59.12,1.09-7.68.5-16.31,3.88-22.78,5.91-11.33,14.04-21.47,21.63-32.44V51.25c-.66-1.02-1.66-1.5-2.88-1.62h0s0,0,0,0c-11.96-.55-23.93-.84-35.86-1.78-3.98-.31-7.95-.7-11.92-1.2-.36-.05-.73-.07-1.1-.08-1.11-.03-2.23.07-3.34.08-4.47,1.18-9.01,1.75-13.58,2.21-1.31.13-2.63.26-3.94.38-3.53.33-7.06.67-10.56,1.23-6.47,1.04-12.98,1.78-19.47,2.66-.14.71-.36,1.38-.63,2.01-.27.63-.59,1.23-.94,1.81-1.18,1.93-2.76,3.6-4.11,5.43-5.02,6.82-4.67,7.88,3.11,10.53,2.43.83,4.8,1.94,7.29,2.45,6.19,1.27,8.31,4.41,5.83,10.67-1.01,2.55-.97,5.53-1.57,8.27-3.28,14.95-4.92,30.23-12.12,44.24-6.22,12.09-10.89,25-16.13,37.6-1.54,3.71-3.79,7.36-1.3,11.72,6.76,11.83,13.31,23.78,20.06,35.61,1.73,3.04,2.22,5.14-1.24,7.54-8.26,5.75-16.24,11.92-24.3,17.97-3.41,2.56-3.33.04-3.5-2.34-.47-6.48-.86-12.97-1.51-19.43-1.57-15.7-3.86-31.35-4.63-47.08-.32-6.57-2.54-8.49-8.19-9.34-18.27-2.76-36.5-5.81-54.72-8.85-3.74-.62-5.5.16-5.58,4.52-.15,9.54-.29,19.13-1.36,28.58-.84,7.37-.21,14.85-1.41,22.04-2.16,12.91-.91,24.31,6.25,35.87,8.23,13.3,15.94,26.61,29.17,35.51,2.19,1.47,3.03,3.75,3.57,6.56,6.17,32.27,12.7,64.47,18.8,96.76,1.51,8.01,4.25,15.97,2.45,24.41-4.91,23.05-9.71,46.12-14.59,69.18-.76,3.62-.57,6.77,2.47,9.47,8.19,7.28,15.98,15.04,24.46,21.94,3.31,2.7,5.88,7.7,11,7.03,8.63-1.13,17.19-2.83,25.75-4.41,3.27-.6,4.5-2.23,3.48-6.02-2.36-8.77-4.15-17.69-6.22-26.55-.33-1.43-1.49-2.95.06-4.17,1.16-.91,2.4.02,3.6.47,9.84,3.61,19.6,7.45,29.57,10.66,7.14,2.3,12.24,6.04,15.02,13.51,1.87,5.03,4,10.25,8.3,15.21,1.36-12.81-.57-24.47-1.46-36.01-.7-9.03-.1-18.15-1.77-27.21-1.11-6.02-1.57-12.79.41-18.8,10.17-30.9,19.52-62.09,31.71-92.26ZM1623.96,172.28c-1.08,1.66-1.73,3.92-4.89,4.62,1.25-3.43,2.12-6.48,3.44-9.3,9.69-20.78,19.42-41.54,29.35-62.21.82-1.71,1.14-6.88,4.59-3.75,2.91,2.65,9.62,4.48,6.12,10.91-2.57,4.72-5.88,9.03-8.8,13.55-9.94,15.39-19.82,30.81-29.8,46.17Z"/>
  <path class="cls-10" d="M1710,322.98c-2.08,3.81-4.16,7.61-6.23,11.42-.93,1.71-2.77,3.39-1.53,6.26,2.99-2.97,5.44-6.24,7.76-9.57v-8.12Z"/>
  <path class="cls-16" d="M1010.31,512.41c4.84-3.81,9.37,4.49,15.02,3.62-.54-1.15-.78-2.68-1.66-3.38-9.88-7.75-9.54-18.65-8.56-29.49,1.2-13.13,1.92-26.26,2.54-39.43.09-1.86.34-3.66.74-5.4,1.71-7.56,6.03-14.12,10.54-20.48.03-2.17.22-4.28,1.32-6.05.37-.59.83-1.15,1.43-1.65,3.08-7.15,5.66-14.58,9.4-21.35,2.65-4.79,1.48-8.09-1.44-11.64-3.42-4.15-6.84-8.31-10.35-12.39-2.87-3.34-2.71-6.71-1.4-10.83,5.9-18.58,11.8-37.17,17.04-55.95,3.24-11.64,5.29-23.62,7.93-35.43.29-1.29.99-2.64-.29-3.56-1.22-.88-2.39-.03-3.49.73-5.3,3.65-10.6,7.31-15.97,10.85-1.2.79-2.88,1.83-4,1.51-2.13-.61-1.34-2.98-1.21-4.53.88-10.34,2.77-20.6,2.49-31.04-.07-2.61-.28-5.21-.43-7.82-8.84,9.02-18.85,16.75-28.14,25.2-1.59,1.45-3.16,2.91-4.69,4.41-.46.45-.92.9-1.39,1.35h0c-2.89,2.8-5.78,5.56-8.73,8.21-3.96,3.58-8.02,6.96-12.26,10.03-8.76,6.34-18.34,11.34-29.66,13.79-10.59,2.29-19.27,8.92-28.07,15.16-.3.21-.6.43-.9.64-14.94,10.51-29.18,22.13-45.43,30.61-2.21,1.15-4.45,2.25-6.73,3.27-8.58,3.84-16.73,8.69-25.07,13.07,1.3,20.74,2.22,41.51,4.09,62.2.82,9-3.51,14.21-9.52,19.1-1.82,1.49-3.75,2.87-5.44,4.5-20.23,19.66-40.33,39.46-60.71,58.95-3.87,3.7-8.1,7.04-11.84,10.91-1.26,1.31-2.69,2.19-4.54,2.01-12.25-1.22-24.49-2.5-36.74-3.7-4.68-.46-3.49-2.22-1.28-4.71,6.56-7.4,12.9-15.01,19.5-22.37,10.79-12.02,22.39-23.35,32.37-36.02,7.41-9.4,13.07-20.3,18.99-30.83,8.44-15.03,18-29.39,25.58-44.93-19.23,8.79-38.1,18.28-56.4,28.95-.09,2.49-2.01,3.77-3.54,5.2-14.89,13.91-29.53,28.13-44.92,41.46-5.73,4.96-13.1,8.05-19.94,11.55-12.67,6.47-23.93,15.24-34.02,24.93-9.35,8.98-19.67,7.5-29.89,6.45-11.97-1.24-23.87-.77-35.76-.52-.29,0-.58.03-.86.07-.57.08-1.12.22-1.65.42-3.48,1.27-6.36,4.78-9.26,7.43.22.5.46.98.71,1.45.04.07.08.14.12.21.22.39.44.77.67,1.14,2.81,4.34,6.99,7.19,11.13,10.03,1.66,1.13,3.31,2.26,4.87,3.48,12.91,10.12,23.57,22.52,35.15,33.99.17.17.3.37.41.6.06.13.11.26.16.4h28.62c.34-.14.68-.29,1.03-.42,6.27-2.48,12.75-4.48,19.44-6.09-4.14,2.17-8.29,4.34-12.43,6.51h8.53c37.79-10.9,75.78-21.15,112.5-35.75.4.52.79,1.05,1.19,1.57-8.43,11.39-16.86,22.79-25.3,34.18h6.19c.28-.18.56-.39.83-.66h0s0,0,0,0c1.4-3.74,4.24-5.89,7.24-7.84,1.8-1.17,3.66-2.26,5.29-3.58,25.11-20.27,52.75-36.81,79.37-54.83,10-6.77,18.46-15.36,27.51-23.25,13.69-11.94,27.19-24.09,41.35-35.74-.46,8.7-3.68,16.41-5.87,24.37-4.03,14.62-8.22,29.19-12.6,43.71-1.17,3.87-.46,5.38,3.53,6.37,7.03,1.76,13.97,3.99,20.79,6.48,5.25,1.92,9.19,1.28,13.15-3.08,10.44-11.5,21.32-22.58,31.88-33.98,3.48-3.76,5.65-4.35,7.03,1.49.54,2.3,1.4,4.62,2.6,6.64,4.85,8.16,3.32,16.55,1.68,25.21-3.05,16.08-6.92,32.1-5.78,48.69h5.68c3.83-6.62,7.61-13.15,11.39-19.66,2.93-5.05,4.89-11.41,9.13-14.75ZM743.63,430.26c0,4.82-.95,7.03-4.79,7.35,1.28-1.96,2.56-3.92,4.79-7.35ZM736.11,448.05c-4.05,8.24-8.1,16.48-12.15,24.72-.67-.34-1.34-.67-2.01-1.01,4.04-8.22,8.09-16.44,12.13-24.65.68.31,1.35.63,2.03.94ZM696.54,529.92c-.67-.33-1.33-.65-2-.98,3.08-6.28,6.16-12.55,9.24-18.83.66.33,1.33.65,1.99.98-3.08,6.28-6.16,12.55-9.24,18.83ZM981.93,376.82c.71-.83,1.31-1.7,3.13-1.11-1.53,5.36-4.46,10.05-6.93,14.92-.48.95-1.45,1.72-1.72,2.71-5.02,18.38-21.35,25.33-34.52,35.48-1.1.85-2.46,1.36-3.36.05-.68-1,.36-1.96,1.06-2.78,9.24-10.71,18.49-21.43,27.71-32.16,4.89-5.69,9.76-11.39,14.62-17.11ZM964.06,289.62c.07-.08.15-.15.21-.23h0s0,0,0,0c.09.18.18.36.27.54-.12.16-.24.31-.36.47-.09-.18-.26-.37-.25-.54,0-.08.06-.16.13-.24ZM912.78,429.57c-2.77-2.13-1.88-4.66-1.82-6.72.64-21.08-1.32-42.09-1.72-63.15-.22-11.88-.45-23.83-.96-35.74-.16-3.74.91-6.23,4.46-7.64.84-.34,1.67-.69,2.5-1.06,5.79-2.58,11.33-5.78,17.66-6.94,3.19-1.59,6.2-3.58,9.37-5.23,2.62-1.36,5.34-2.48,8.36-2.93,2.63-2.36,6.09-3.28,9.22-5.02,1.04-.58,2.05-1.26,2.97-2.11-3.06,11.62-7.13,22.68-12.06,33.43-2.18,10.46-7.6,19.77-10.35,30.02-9.15,24.2-18.3,48.41-27.63,73.09Z"/>
  <path class="cls-9" d="M1710,478.65c-.73,1.39-1.46,2.78-2.19,4.18-1.2,2.29-2.26,4.87-5.97,6.68v-53.31c-1.16,1.24-1.62,1.5-1.68,1.83-6.11,32.5-12.23,64.99-18.27,97.5-1.66,8.92-1.55,8.93-10.08,8.06-1.06-.11-2.15.08-3.21-.04-14.14-1.56-28.28-3.19-42.43-4.72-10.14-1.1-20.4-3.5-30.41-2.74-11.92.91-24.03,2.61-35.55,6.47-2.86.96-2.71-.77-3.33-2.28-7.82-19.03-15.66-38.05-23.46-57.08-1.59-3.87-2.19-7.64-.84-11.98,3.4-10.95,6.24-22.08,9.29-33.15,3.05-11.06,6.08-22.13,9.13-33.19.52-1.87,1.21-5.14-1.83-3.27-5.32,3.28-11.86,5.46-14.76,11.9-2.84,6.32-6.06,12.54-8.11,19.13-6.1,19.57-20.37,33.05-35.33,44.45-12.74,9.7-29.7,12.64-44.69,18.84-2.69,1.11-3.38-.72-3.39-3.03-.02-3.7.16-7.42-.12-11.11-1.62-21.57-3.18-43.15-5.1-64.7-1.13-12.7-2.46-25.41-4.56-37.96-.64-3.82,1.92-10.01-2.15-11.08-3.64-.96-5.39,5.37-8.08,8.34-12.27,13.56-24.26,27.4-36.29,41.19-.83.95-1.21,2.56-2.69,2.43-1.83-.17-2.18-2.03-2.49-3.41-1.87-8.44-3.28-17-5.44-25.36-2.19-8.47-2.09-17.59-7.74-25.11-8.67-11.54-17-23.34-25.24-35.2-6.67-9.6-6.51-9.7-13.48-.02-.75,1.05-1.76,1.91-2.48,2.98-1.75,2.57-3.63,5.06-5.55,7.51-5.75,7.36-11.87,14.44-16.21,22.85h0c2.31.05,4.62.09,6.92.14,2.05.04,4.1.08,6.15.12h0c.33-.04.66-.09.99-.13.46-.06.92-.12,1.38-.18.61-2.32,1.86-4.04,3.54-5.34.24-.19.49-.36.74-.53.68-.45,1.42-.85,2.21-1.2.17-.07,1.13.89,1.05,1.18-.91,3.36-2.85,5.92-6,7.45-2.35,2.08-1.74,4.98-1.36,7.36,3.23,20.12-4.12,36.75-15.59,52.4-5.46,7.45-9.42,16.03-14.69,23.65-9.82,14.23-12.66,31.2-18.29,47.04-5.94,16.7-11.03,33.72-16.45,50.61h4.41c9.95-11.41,19.76-22.95,29.59-34.47,6.52-7.64,13-15.33,19.57-22.93.46-.54,1.54-.52,2.34-.76,0,0,0-.02.01-.02l.02.02s-.02,0-.03,0c-1.58,3.66-3.11,7.35-4.68,11.02-1.57,3.68-3.18,7.34-4.91,10.94-1.95,4.05-2.24,7.52-.34,11.74,2.49,5.5,4.15,11.38,6.21,17.09.5,1.38.72,3.26,2.45,3.49,1.96.26,2.09-1.64,2.7-3.01,4.99-11.29,10.12-22.51,15.06-33.83,1.54-3.53,3.98-5.89,6.98-8.19,10.36-7.95,20.48-16.23,30.64-24.45.23-.19.47-.38.71-.56.21-.16.42-.31.63-.46,1.47-1.05,3.03-1.87,4.86-2.19.04-.06.07-.13.11-.19,3.29-5.54,6.58-11.08,9.94-16.72,1.13-1.9,2.27-3.82,3.42-5.75,2.18,3.61-1.01,6.49-.31,9.58,3.34-1.01,5.62-3.55,8.13-5.75.84-.73,1.7-1.43,2.64-2.02,1.44-.91,2.85-2.5,4.53-1.86,2.05.78,1.15,3.03,1.16,4.63.09,8.65.04,17.31.8,25.98,2.07-20.62,4.14-41.25,6.21-61.87.48-.02.95-.04,1.43-.06,1.06,8.35,1.87,16.75,3.23,25.05.54,3.31.85,6.66,1.13,10,.63,7.37,1.15,14.75,3.77,21.8-.16-11.95,2.73-23.11,6.33-34.11.02-.05.03-.1.05-.15,1.21-3.68,2.5-7.35,3.77-11.02,1.7-4.89,3.39-9.79,4.86-14.76-.08,13.94,1.75,27.81-.43,41.7-.57,3.61-.43,7.39-.25,11.07.78,16.31-1.37,32.53-1.28,48.81,0,1.52.1,3.08-1.31,4.15,1.32,4.78,2.67,9.56,4,14.34,1.27,4.57,2.51,9.14,3.7,13.73h272.28v-68.16Z"/>
  <path class="cls-9" d="M1311.81,488.62c.1-.18.19-.35.29-.53-.09.18-.18.37-.27.55l-.02-.02Z"/>
  <path class="cls-3" d="M1223.74,88.53c-.41.24-.81.49-1.18.75-12.4,8.83-24.55,18.12-37.51,26.02-6.31,3.85-7.65,9.41-9.26,15.28-7.26,26.52-14.53,53.03-21.28,79.69-1.31,5.17-4.69,7.47-8.18,10.04-12.43,9.14-24.71,18.56-37.62,26.95-7.22,4.69-7.8,12.04-9.86,18.82-4.91,16.15-8.99,32.57-14.01,48.68-3.02,9.68-10.94,16.39-16.44,24.58-4.27,6.36-9.01,12.39-13.52,18.53,2.27,2,3.75.6,5.2-.1,21.6-10.51,43.41-20.6,64.66-31.78,12.68-6.67,23.19-16.85,34.62-25.53,9.56-7.26,18.97-14.71,28.49-22.01,2.23-1.71,4.59-1.98,7.14-.34,4.15,2.67,8.21,5.59,12.66,7.61,4.63,2.11,3.89,4.63,1.99,8.15-8.33,15.43-16.08,31.2-24.97,46.28-4.79,8.13-11.74,14.85-18.54,21.46-2.21,2.15-4.27,4.42-5.95,6.98-.75,1.14-1.42,2.35-2,3.62-.03.08-.06.15-.1.23-.15.35-.31.71-.44,1.07,15.19-7.86,29.42-17.39,44.19-25.99,9.21-5.36,17.74-11.98,27.83-15.7,12.8-10.67,24.89-22.13,36.55-34.05,1.67-1.7,3.32-3.41,4.97-5.14,6.52-6.8,12.65-13.99,18.95-21.01.22-.75.29-1.63.57-2.34.09-.24.2-.46.35-.65,6.98-9,14.33-17.72,20.99-26.95,1.77-2.46,3.84-4.7,5.86-6.99.67-.76,1.34-1.53,1.99-2.31.85-1.03,1.67-2.08,2.43-3.18.67-.97,1.31-1.98,1.86-3.04,0-.01.01-.02.02-.03.71-1.36,1.31-2.8,1.74-4.35-5.58.86-11.15,1.73-16.73,2.59-8.94,1.35-17.88,2.7-26.82,4.04,7.16-4.64,15.18-6.66,22.98-9.28-3.26-8.44-10.36-14.04-15.25-21.28-2.86-4.22-5.96-8.28-10-13.85,6.1,1.29,10.66,2.23,15.21,3.23,14.47,3.2,28.93,6.42,43.4,9.63-.41-6.47-1.53-12.82-2.74-19.15-.3-1.6-.61-3.2-.92-4.81-.22-1.13-.43-2.27-.64-3.4-.56-3.03-1.07-6.06-1.48-9.12-.26-1.93-1.39-4.18.12-5.55,1.74-1.58,3.51.6,5.18,1.28,7.32,2.99,14.62,6.06,21.86,9.26,2.21.98,4.36,1.77,6.79,1.41,1.09-9.41,2.73-18.78,2.68-28.3-.02-4.33,1.67-4.71,5.13-3.07,7.52,3.56,15.14,6.88,22.71,10.33,1.76.8,3.45,1.74,5.48,1.39,3.02-3.3,6.85-5.29,10.71-7.2,1.29-.64,2.58-1.27,3.85-1.94,1.67-.88,3.85-1.57,1.07-3.75-7.95-3.99-15.29-9.99-25.09-7.92-.4.08-.91.11-1.26-.07-9.64-5.07-20.36-7.97-29.12-14.83-13.52-3.59-26.97-7.53-40.59-10.7-15.68-3.65-30.84-9.49-46.96-11.29-8.18-.91-16.26-2.94-24.45-3.47-8.02-.52-15.81-3.11-23.93-2.35.19,2.06-.81,3.18-2.05,4.05-.18.12-.36.24-.55.36-.27.17-.55.33-.82.49Z"/>
  <path class="cls-14" d="M1027.89,267.56c-.13,1.55-.92,3.92,1.21,4.53,1.11.32,2.8-.72,4-1.51,5.37-3.54,10.67-7.2,15.97-10.85,1.1-.76,2.27-1.61,3.49-.73,1.28.92.58,2.27.29,3.56-2.64,11.81-4.68,23.8-7.93,35.43-5.24,18.78-11.13,37.37-17.04,55.95-1.31,4.11-1.47,7.49,1.4,10.83,3.51,4.08,6.92,8.24,10.35,12.39,2.93,3.55,4.09,6.85,1.44,11.64-3.74,6.77-6.32,14.2-9.4,21.35,7.85-4.07,13.61-10.88,20.43-16.3,7.54-5.99,14.74-12.43,22.16-18.59,1.2-.99,2.17-3.37,4.14-2.09,1.6,1.05.79,3.22.8,4.89.06,9.36.02,18.73.06,28.1,0,.96-.47,2.17,1.51,3.26,4.68-10.16,10.08-19.99,13.79-30.44,5.21-14.67,17.43-21.55,28.24-30.24,2.14,2.32.61,3.86.25,5.43-8.86,38.85-19.32,77.27-30.53,115.48-.66,2.26-.67,4.5-4.09,4.67-13.17.67-26.33,1.56-39.47,2.61-3.96.31-5.73-1.3-6.8-4.99-3.63-12.48-7.76-24.82-11.12-37.37-1.44-5.36-1.44-11.13-2.1-16.71-4.52,6.35-8.84,12.92-10.54,20.48-.39,1.74-.65,3.54-.74,5.4-.62,13.16-1.34,26.3-2.54,39.43-.99,10.84-1.32,21.74,8.56,29.49.88.69,1.12,2.23,1.66,3.38,3.07,1.76,6.17,3.44,9.31,5.04,9.42,4.79,19.15,8.85,29.2,12.17,10.81-15.42,21.11-31.26,32.43-46.26,1.62-2.14,3.26-4.27,4.92-6.38,7.09-8.98,16.98-15.67,25.63-23.36,8.17-7.27,16.58-14.27,24.48-21.83,5.14-4.92,5.96-12.36,8.62-18.68,6.11-14.55,11.69-29.33,17.44-44.03.92-2.35,2.55-3.81,4.61-5.17,10.38-6.82,20.66-13.81,31.01-20.69.4-.26.8-.53,1.21-.78,1.23-.75,2.54-1.34,4.11-1.12h0c.98-.79,1.96-1.58,2.94-2.38.22-.18.45-.36.67-.55.06-.63.21-1.2.42-1.71,0,0,0,0,0,0,.1-.25.22-.5.36-.73,1.08-1.87,3.05-3.03,4.67-4.47,1.01-.9,1.89-1.91,2.32-3.26-10.1,3.72-18.63,10.34-27.83,15.7-14.77,8.6-29,18.14-44.19,25.99h0c.14-.36.29-.72.44-1.07.03-.08.06-.15.1-.23.57-1.27,1.24-2.48,2-3.62,1.68-2.56,3.74-4.83,5.95-6.98,6.8-6.61,13.75-13.33,18.54-21.46,8.88-15.09,16.64-30.86,24.97-46.28,1.9-3.53,2.64-6.04-1.99-8.15-4.44-2.03-8.51-4.95-12.66-7.61-2.54-1.64-4.91-1.37-7.14.34-9.52,7.31-18.94,14.76-28.49,22.01-11.43,8.68-21.95,18.86-34.62,25.53-21.26,11.18-43.07,21.27-64.66,31.78-1.44.7-2.92,2.1-5.2.1,4.51-6.14,9.25-12.17,13.52-18.53,5.5-8.19,13.42-14.9,16.44-24.58,5.03-16.11,9.1-32.53,14.01-48.68,2.06-6.78,2.64-14.13,9.86-18.82,12.91-8.39,25.19-17.81,37.62-26.95,3.5-2.57,6.88-4.88,8.18-10.04,6.75-26.65,14.02-53.17,21.28-79.69,1.61-5.88,2.95-11.44,9.26-15.28,12.96-7.9,25.11-17.19,37.51-26.02.37-.26.77-.5,1.18-.75.27-.16.55-.32.82-.49.19-.12.37-.24.55-.36,1.25-.87,2.24-1.99,2.05-4.05-11.09-2.21-22.21-4.17-33.57-3.87-3.16,7.35-10.28,10.76-15.71,15.7-15.99,14.53-32.58,28.37-48.97,42.44-15.58,13.37-31.14,26.77-46.86,39.96-2.07,1.74-3.52,4.36-5.75,5.92-1.01.71-2.18,1.2-3.64,1.3h0c-14.23,14.54-28.46,29.09-42.7,43.63.15,2.61.36,5.21.43,7.82.27,10.44-1.61,20.7-2.49,31.04ZM1157.31,374.09c.1-.18.2-.37.3-.55h.01c-.1.19-.21.37-.31.55Z"/>
  <path class="cls-8" d="M1167.09,535.2c15.27-4.65,30.56-9.27,45.83-13.92,1.66-11.51,3.35-23.02,4.96-34.54.24-1.68.82-3.9-.56-4.97-1.87-1.45-2.98.9-4.14,1.93-10.27,9.08-20.35,18.39-30.74,27.32-10.35,8.91-19.41,19.4-31.68,26.02-4.3,2.32-8.17,3.15-12.76,1.83-11.45-3.31-22.98-6.34-34.39-9.78-3.82-1.15-6.93-.99-10.06,1.67-1.94,1.64-4.37,2.67-6.51,4.1-9.47,6.34-13.9,6.05-23.21-1.62-10.05-3.32-19.78-7.37-29.2-12.17-3.14-1.6-6.24-3.28-9.31-5.04-5.65.87-10.18-7.43-15.02-3.62-4.24,3.34-6.2,9.7-9.13,14.75-3.78,6.51-7.56,13.03-11.39,19.66h138.83c3.72-1.04,7.43-2.1,11.12-3.24,9.11-2.81,18.23-5.6,27.35-8.37Z"/>
  <path class="cls-8" d="M989.89,498.12c1.64-8.66,3.18-17.05-1.68-25.21-1.2-2.01-2.06-4.34-2.6-6.64-1.37-5.84-3.54-5.25-7.03-1.49-10.55,11.4-21.44,22.48-31.88,33.98-3.96,4.37-7.91,5-13.15,3.08-6.82-2.49-13.76-4.72-20.79-6.48-3.98-1-4.7-2.5-3.53-6.37,4.38-14.51,8.58-29.09,12.6-43.71,2.19-7.96,5.41-15.67,5.87-24.37-14.16,11.65-27.66,23.81-41.35,35.74-9.05,7.89-17.51,16.47-27.51,23.25-26.63,18.03-54.26,34.57-79.37,54.83-1.63,1.32-3.49,2.41-5.29,3.58-3,1.95-5.84,4.1-7.24,7.84,0,0,0,0,0,0,7.17-.92,14.06-2.97,20.94-5.03,4.13-1.24,8.26-2.48,12.45-3.5,10.15-2.45,20.23-5.29,30.19-8.46,4.97-1.58,8.65-.28,12.05,3.13.23.23.46.46.69.69,1.61,1.61,3.25,3.11,5.84,2.82,2.98-9.55,6.25-19.02,8.94-28.65.38-1.38.76-2.75,1.12-4.14,1.41-5.42,4.47-7.27,9.24-7.8,1.68-.19,3.38-.32,5.03-.66,1.22-.25,2.63-1.14,3.32.38.34.73-.2,2.09-.69,2.98-7.64,13.97-15.34,27.92-23.03,41.87,1.62,3.06,4.2,3.8,7.48,3.85,19.39.32,38.85-.11,58.14,1.55,4.22.36,8.42.93,12.61,1.63h52.85c-1.14-16.59,2.73-32.61,5.78-48.69Z"/>
  <path class="cls-12" d="M1430.03,518.74c-3.75-14.16-7.51-28.32-11.23-42.49-.27-1.04-.33-2.13-.5-3.2,0,0,0,0,0,0-2.63-7.04-3.14-14.43-3.77-21.8-.29-3.35-.59-6.7-1.13-10-1.35-8.3-2.17-16.7-3.23-25.05-.48.02-.95.04-1.43.06-2.07,20.62-4.14,41.25-6.21,61.87-.76-8.67-.71-17.32-.8-25.98-.02-1.6.89-3.86-1.16-4.63-1.68-.64-3.09.96-4.53,1.86-.94.59-1.8,1.29-2.64,2.02-2.51,2.2-4.79,4.74-8.13,5.75-1.55,7.83-3.12,15.66-4.63,23.5-.2,1.06-.42,2.11-.61,3.16-.28,1.5-.31,2.99-1.41,4.2-10.41,11.46-20.78,22.96-31.24,34.37-.79.87-2.21,1.14-3.33,1.69-.22.15-.44.31-.66.46.15-.22.3-.45.45-.67h0c8.61-15.91,17.19-31.84,25.85-47.72,1.03-1.9,2.4-3.6,2.42-5.9-1.83.32-3.39,1.14-4.86,2.19-.21.15-.42.3-.63.46-.24.18-.47.37-.71.56-10.16,8.22-20.28,16.5-30.64,24.45-3,2.3-5.44,4.66-6.98,8.19-4.94,11.31-10.07,22.54-15.06,33.83-.61,1.37-.74,3.27-2.7,3.01-1.73-.23-1.95-2.11-2.45-3.49-2.06-5.7-3.72-11.59-6.21-17.09-1.9-4.21-1.61-7.69.34-11.74,1.73-3.6,3.34-7.26,4.91-10.94,1.57-3.67,3.1-7.36,4.68-11.02-.8.23-1.87.22-2.34.76-6.57,7.6-13.05,15.29-19.57,22.93-9.83,11.52-19.63,23.06-29.59,34.47h177.42c-1.18-4.59-2.43-9.16-3.7-13.73-1.33-4.78-2.68-9.56-4-14.34Z"/>
  <path class="cls-12" d="M1230.51,538.87c-8.61-2.88-12.97-9.26-15.26-17.64-.78.02-1.56.04-2.33.06h0c-15.27,4.65-30.56,9.27-45.83,13.92-9.12,2.78-18.24,5.56-27.35,8.37-3.69,1.14-7.4,2.19-11.12,3.24h118.99c-.67-.26-1.34-.53-1.99-.82-5.08-2.28-9.84-5.36-15.11-7.12Z"/>
  <path class="cls-12" d="M1311.83,488.64l-.02-.02s0,.02-.01.02h0s.02,0,.03,0Z"/>
  <path class="cls-7" d="M823.21,361.85c-3.27,1.67-6.51,3.42-9.7,5.27-1.39.81-2.78,1.62-4.16,2.47-7.58,15.53-17.14,29.9-25.58,44.93-5.92,10.53-11.58,21.43-18.99,30.83-9.98,12.67-21.58,24-32.37,36.02-6.61,7.36-12.94,14.97-19.5,22.37-2.21,2.5-3.4,4.25,1.28,4.71,12.25,1.2,24.49,2.48,36.74,3.7,1.85.18,3.28-.7,4.54-2.01,3.74-3.88,7.97-7.22,11.84-10.91,20.39-19.49,40.48-39.29,60.71-58.95,1.68-1.64,3.61-3.02,5.44-4.5,6.01-4.9,10.33-10.1,9.52-19.1-1.87-20.68-2.79-41.46-4.09-62.2-2.16.95-4.32,1.92-6.46,2.91-3.1,1.43-6.17,2.92-9.21,4.47Z"/>
  <path class="cls-11" d="M1393.46,126.33c9.8-2.07,17.14,3.93,25.09,7.92,1.07.02,2.14-.04,3.2.06,5.12.51,9.67,7.65,14.74,3.08,3.94-3.55,5.87-9.42,8.68-14.26.32-.56.66-1.14.82-1.76,1.15-4.45,4.54-6,8.47-6.74,23.31-4.42,46.67-8.61,69.92-13.31,7.62-1.54,15.96-1.16,22.61-5.96,11.95-8.62,23.46-17.85,35.4-26.48,1.89-1.36,3.72-2.8,5.55-4.26.68-.55,1.37-1.09,2.05-1.64,4.8-3.82,9.65-7.56,15.36-10,.64-2.81,3.18-3.7,5.2-5.11.37-.26.72-.53,1.04-.83.48-.46.89-.98,1.18-1.63-13.52-4.44-26.22-2.84-38.72,4.21-8.12,4.59-16.95,7.87-25.43,11.8-1.81.84-3.64.98-5.54.8-.65,1.53-1.1.33-1.61-.17-2.82.68-4.7,2.79-6.92,4.47-5.59,4.24-10.52,9.73-17.5,11.62-9.67,2.61-19.54,3.6-28.4,9.77-7.42,5.16-17.06,6.91-24.94,11.54-12.65,7.42-24.91,9.79-38.35,2.39-3.11-1.71-6.74-3.44-10.92-2.56-14.54,3.08-29.19,5.67-43.68,8.97-2.5.57-6.33-.74-7.68,3.18,8.76,6.86,19.48,9.76,29.12,14.83.34.18.85.15,1.26.07Z"/>
  <path class="cls-11" d="M731.5,408.5c-21.88,9.75-43.73,19.56-65.59,29.36-5.08,2.28-10.16,4.56-15.25,6.83-.96.43-1.93.86-2.89,1.29-1.14.51-2.28,1.01-3.42,1.51-11.4,5.01-22.94,9.71-34.06,15.27-14.81,7.41-32.62,10.22-41.66,26.98-3.24,6-9.43,9.99-11.31,16.95,5.05-.6,7.45-5.26,11.3-7.7,1.59-1,2.45-3.04,4.49-3.5,2.9-2.65,5.78-6.15,9.26-7.43.54-.2,1.08-.34,1.65-.42.28-.04.57-.06.86-.07,11.89-.26,23.79-.72,35.76.52,10.22,1.06,20.54,2.53,29.89-6.45,10.09-9.69,21.35-18.46,34.02-24.93,6.84-3.5,14.22-6.59,19.94-11.55,15.38-13.33,30.03-27.54,44.92-41.46,1.52-1.42,3.44-2.71,3.54-5.2-7.4,1.89-13.65,6.32-20.46,9.51-.33.15-.66.31-.99.46Z"/>
  <path class="cls-4" d="M860.52,543.64c-3.29-.05-5.87-.79-7.48-3.85-2.32-.29-3.67-1.58-3.93-3.98h0c-2.59.29-4.23-1.2-5.84-2.82-.23-.23-.46-.46-.69-.69-3.4-3.41-7.09-4.7-12.05-3.13-9.96,3.16-20.04,6-30.19,8.46-4.19,1.01-8.32,2.26-12.45,3.5-6.89,2.07-13.78,4.11-20.94,5.03-.27.27-.54.48-.83.66h165.14c-4.19-.69-8.39-1.27-12.61-1.63-19.29-1.66-38.75-1.23-58.14-1.55Z"/>
  <path class="cls-2" d="M625.78,545.81c-11.58-11.47-22.25-23.88-35.15-33.99-1.56-1.22-3.21-2.35-4.87-3.48-4.15-2.83-8.33-5.69-11.13-10.03-.24-.37-.46-.75-.67-1.14-.04-.07-.08-.14-.12-.21-.25-.47-.49-.95-.71-1.45-2.04.46-2.9,2.49-4.49,3.5-3.86,2.44-6.25,7.09-11.3,7.7-3.9,2.63-6.73,6.32-9.46,10.03,0,0,0,0,0,0-.66.9-1.32,1.79-1.99,2.68-5.28,7.01-11.77,13.17-15.19,21.54,4.56,1.95,9.11,3.9,13.67,5.86h82c-.05-.14-.1-.28-.16-.4-.11-.23-.24-.43-.41-.6Z"/>
  <path class="cls-12" d="M785.23,512.63c-.4-.52-.79-1.05-1.19-1.57-36.72,14.61-74.7,24.85-112.5,35.75h88.39c8.43-11.39,16.86-22.79,25.3-34.18Z"/>
  <path class="cls-12" d="M656,546.39c-.34.14-.69.28-1.03.42h8.04c4.14-2.17,8.29-4.34,12.43-6.51-6.69,1.6-13.17,3.6-19.44,6.09Z"/>
  <path class="cls-2" d="M1082.04,177.86c15.72-13.19,31.28-26.59,46.86-39.96,16.39-14.07,32.99-27.91,48.97-42.44,5.43-4.94,12.55-8.35,15.71-15.7-8.29-4.19-14.89-3.32-20.85,2.74-31.69,32.25-63.38,64.49-95.04,96.76-1.79,1.83-3.37,3.88-5.05,5.82,1.46-.09,2.63-.59,3.64-1.3,2.23-1.57,3.68-4.19,5.75-5.92Z"/>
  <path class="cls-11" d="M530.68,540.96c-1.91,1.89-5.16,3.39-5.72,5.86h19.39c-4.56-1.95-9.11-3.9-13.67-5.86Z"/>
  <path class="cls-16" d="M1543.08,62.22c1.91.18,3.73.05,5.54-.8,8.48-3.93,17.31-7.21,25.43-11.8,12.49-7.06,25.2-8.65,38.72-4.21,8.79-1.61,17.63-.31,26.35.31,5.24.37,10.54.4,15.78.93,1.11,0,2.23-.1,3.34-.08.37,0,.74.03,1.1.08,3.97.5,7.94.88,11.92,1.2,11.93.94,23.91,1.23,35.86,1.78,0,0,0,0,0,0-.72-.79-1.33-1.75-2.19-2.35-21.79-15.08-43.68-30.03-65.36-45.27-4.01-2.82-6.91-2.5-10.96-.11-22.27,13.18-43.12,28.52-64.05,43.7-7.29,5.29-15.64,9.3-21.49,16.56-.54-.04-1.07-.08-1.61-.12.51.5.96,1.7,1.61.17Z"/>
  <path class="cls-13" d="M1288.59,380.89c1.94-4.29,5.57-7.68,6.54-12.51-2.39-1.57-3.44-4.23-4.91-6.51-.49-.76-1.03-1.48-1.68-2.1-4.18-3.99-3.46-7.46-.26-11.8,11.44-15.57,22.57-31.38,33.86-47.06.17-.23.32-.47.47-.72,1.05-1.75,1.87-3.82,4.42-3.96.04-1.31.07-2.61.11-3.92-15.65,9.56-31.56,18.77-45.69,30.62-13.57,11.38-30.3,17.27-44.64,27.27-3.51,2.44-7.42,4.32-10.75,6.98-.16.13-.31.24-.46.33-2.18,1.43-2.83-.56-4.06-1.57-2.74,1.15-5.49,2.3-8.37,3.51-.96.4-1.94.81-2.94,1.23,2.57-5.26,9.38-5.94,10.51-11.88,1.16.33,1.68-.29,1.86-1.42-.64.45-1.28.89-1.92,1.34-.02.02-.05.03-.07.05h0s.05-.03.07-.05c-.65-.06-1.17-.21-1.57-.44-.13-.08-.25-.16-.36-.26-.59-.52-.78-1.31-.63-2.32.04-.25.09-.52.17-.8-1.57-.22-2.88.36-4.11,1.12-.41.25-.81.52-1.21.78-10.35,6.88-20.62,13.87-31.01,20.69-2.06,1.35-3.69,2.82-4.61,5.17-5.75,14.7-11.33,29.48-17.44,44.03-2.65,6.32-3.48,13.77-8.62,18.68-7.9,7.56-16.31,14.56-24.48,21.83-8.65,7.7-18.54,14.39-25.63,23.36-1.66,2.11-3.3,4.23-4.92,6.38-11.32,15-21.62,30.85-32.43,46.26,9.3,7.67,13.74,7.96,23.21,1.62,2.13-1.43,4.57-2.45,6.51-4.1,3.13-2.65,6.24-2.82,10.06-1.67,11.41,3.44,22.94,6.47,34.39,9.78,4.59,1.32,8.45.49,12.76-1.83,12.26-6.62,21.32-17.11,31.68-26.02,10.39-8.94,20.47-18.24,30.74-27.32,1.17-1.03,2.27-3.38,4.14-1.93,1.38,1.07.79,3.28.56,4.97-1.61,11.52-3.29,23.03-4.96,34.54h0s0,0,0,0c.78-.02,1.55-.04,2.33-.06-.2-2.43,1.19-4,2.52-5.6.45-.53.89-1.07,1.26-1.64,14.27-21.79,28.55-43.57,42.76-65.4,3.6-5.53,3.84-12.28,5.98-18.35.48-1.38.03-2.49-1.49-3.05-2.97-1.09-1.37-2.7-.14-3.79,2.84-2.53,4.11-6.02,5.93-9.19,2.02-12.89,11.4-22,16.52-33.31ZM1261.99,429.38c-.24-.11-.47-.22-.71-.33.13-.09.26-.18.39-.27.14.07.33.1.41.21.05.07-.06.26-.1.39Z"/>
  <path class="cls-1" d="M1329.48,218.71c6.41-2.36,12.75-4.97,19.25-7.03,22.43-7.12,17.41-8.99,34.71,2.77,2.91,1.98,4.77,2.2,6.9-1.71,9.49-17.45,19.4-34.66,29.21-51.93,1.66-2.92,1.12-4.6-1.89-6.14-.31-.16-.62-.31-.93-.45-.63-.29-1.26-.56-1.9-.82-.74-.3-1.5-.59-2.25-.88-3.13-1.2-6.27-2.39-8.87-4.64-.27-.23-.53-.48-.79-.73-2.03.35-3.72-.58-5.48-1.39-7.57-3.45-15.19-6.77-22.71-10.33-3.46-1.64-5.15-1.26-5.13,3.07.05,9.52-1.58,18.89-2.68,28.3-.82,11.11-1.66,22.23-2.44,33.34-.15,2.09-.59,3.2-3.08,2.53-7.53-2.03-15.11-3.86-22.66-5.77-14.47-3.21-28.93-6.44-43.4-9.64-4.55-1.01-9.12-1.94-15.21-3.23,4.04,5.57,7.14,9.63,10,13.85,4.89,7.24,11.99,12.84,15.25,21.28,2.92.5,3.5,2.78,3.84,5.24,5.58-.86,11.15-1.73,16.73-2.59h0c.04-2.37,1.97-2.52,3.53-3.09Z"/>
  <path class="cls-11" d="M1218.74,348.05c.11.09.23.18.36.26.4.23.92.37,1.57.44.64-.45,1.28-.89,1.92-1.34,1.65.98,2.96.23,3.8-1.1,3.54-5.59,9.87-6.03,15.36-8.29-4.6,8.44-11.54,14.17-20.22,17.95,1.23,1.01,1.88,3,4.06,1.57.14-.1.3-.21.46-.33,3.32-2.66,7.24-4.54,10.75-6.98,14.34-10,31.07-15.89,44.64-27.27,14.13-11.85,30.04-21.07,45.69-30.62,1.46-.76,2.93-1.51,4.4-2.25,10.28-5.24,20.58-10.43,29.86-17.47.38-1.2,1.06-1.98,2.1-2.24.15-.04.31-.06.47-.08.19-.02.39-.02.6-.01.18-.22.41-.31.69-.28,1.37-2.37,3.49-3.51,5.78-4.37.77-.28,1.55-.54,2.33-.79,0,0-.04-.04-.04-.04h0,0s0,0,0,0c1.11-1.66,2.21-3.31,3.32-4.97,4.92-3.18,9.83-6.37,14.74-9.56,4.92-3.18,9.84-6.36,14.77-9.52,1.81-1.16,3.32-3.74,6.06-1.81.91-.22,1.82-.58,2.57-1.07,1.24-.82,2.04-1.99,1.64-3.49-.22-.82-.54-1.26-.93-1.46-1.17-.58-2.95,1.04-4.31,1.04-1.35,2.87-4.03,3.2-6.52,3.73-.57.12-1.14.25-1.67.43-24.11,7.89-48.16,16.03-72.51,23.08-9.92,2.87-16.5,9.7-23.48,16.11-15.66,14.38-30.77,29.36-46.11,44.09-.47.45-.86,1.06-1.41,1.32-12.76,5.96-24.31,14.39-37.59,19.29-.22.18-.45.36-.67.54-.98.79-1.96,1.58-2.94,2.38h0c-.08.28-.14.55-.17.8-.15,1.01.04,1.8.63,2.32Z"/>
  <path class="cls-11" d="M1220.67,348.74s-.05.03-.07.05h0s.05-.03.07-.05h0s0,0,0,0Z"/>
  <path class="cls-9" d="M1403.41,234.46s.09-.06.13-.08c.01,0,.02-.02.03-.02.16-.06.33-.02.49.12.11.09.22.23.32.41.99-.03,1.91-.21,2.45-1.19-.02-1.33.49-2.21,1.22-2.92.36-.35.79-.66,1.23-.96.44-.3.9-.58,1.35-.89,8.81-6.1,17.48-12.42,26.36-18.41,7.89-5.32,14.64-11.4,19.62-19.92,5.65-9.66,12.79-18.41,18.9-27.81,2.96-4.55,6.75-8.71,8.44-14.25-2.52-.71-4,.95-5.76,1.45-15.35,4.37-27.99,12.65-38.9,24.82-15.52,17.33-34.92,30.38-52.03,46.01-1,.92-2.03,1.81-3.06,2.68-7.27,6.12-15.21,11.47-21.07,19.2h0c13.47-1.76,26.65-5.08,39.94-7.82.11-.19.22-.33.33-.42Z"/>
  <path class="cls-7" d="M1484.99,351.64c3.54-6.42,9.34-12.01,8.05-20.62-2.9-19.36-5.52-38.76-8.26-58.14-.26.01-.51.02-.77.03,0,10.19-.29,20.39.11,30.56.23,5.76-1.52,10.6-4.1,15.45-11.69,21.96-23.24,44-35.03,65.9-2.28,4.24-2.22,8.08-.67,12.43,7.26,20.4,14.2,40.93,21.62,61.27,2.82,7.74,5.56,15.01-1.95,21.59-.15.13.12.77.2,1.16,1.24.88,2.05-.05,2.73-.79,6.52-7.16,13.02-14.34,19.48-21.56,1.57-1.76,3.11-3.58,4.41-5.55,2.04-3.08.77-6.71-1.31-8.23-2.28-1.66-3.07,2.17-4.17,3.71-4.32,6.06-7.89,12.68-13.69,18.72-4.54-22.36-8.95-43.87-13.22-65.41-.55-2.76.16-5.35,1.76-8,8.47-14.05,16.89-28.15,24.82-42.52Z"/>
  <path class="cls-9" d="M1710,398.3c-1.28,3.59-1.12,7.03,0,10.75v-10.75Z"/>
  <path class="cls-16" d="M1259.49,322.72c.55-.26.94-.87,1.41-1.32,15.34-14.74,30.45-29.72,46.11-44.09,6.98-6.41,13.56-13.24,23.48-16.11,24.35-7.05,48.4-15.2,72.51-23.08.53-.17,1.1-.31,1.67-.43,2.49-.53,5.17-.86,6.52-3.73-1.45-.09-2.9-.17-4.35-.25-.54.98-1.46,1.15-2.45,1.19-.43,0-.87,0-1.3,0-13.29,2.74-26.47,6.06-39.94,7.82-15.86,4.71-32.23,7-48.34,10.48-4.82,1.04-8.73,2.71-12.48,6.65-.72.76-1.38,1.59-2.02,2.45-2.76,3.74-5.12,8.08-10.15,9.34h0c-6.31,7.02-12.44,14.21-18.95,21.01-1.65,1.72-3.31,3.43-4.97,5.14-11.66,11.92-23.75,23.38-36.55,34.05-.44,1.35-1.31,2.36-2.32,3.26-1.62,1.44-3.59,2.61-4.67,4.47-.13.23-.25.47-.36.73,0,0,0,0,0,0-.21.51-.36,1.08-.42,1.71,0,0,0,0,0,0,13.28-4.9,24.83-13.33,37.59-19.29Z"/>
  <path class="cls-7" d="M1373.33,264.79h0s.04.04.04.04c-1.06,4.4-4.63,4.71-8.11,5.16-.28-.03-.51.06-.7.28-.18,2-1.33,2.65-3.17,2.33-9.28,7.04-19.59,12.23-29.86,17.47-1.47.75-2.94,1.5-4.4,2.25-.04,1.31-.07,2.61-.11,3.92,12.97,3.33,26.39,3.1,39.5,5.3,2.02.34,3.09-1.12,3.82-2.82,4.63-10.73,9.26-21.46,13.91-32.18.62-1.43,1.3-3,.26-4.31-1.35-1.7-2.73,0-3.96.52-.88.36-1.73.84-2.59,1.25-1.43.69-2.91,1.21-4.65.79Z"/>
  <path class="cls-10" d="M1448.9,262.24c5.07-1.45,8.73-5.32,12.86-8.32,12.3-8.95,12.23-9.05,8.3-24.25-.11-.42-.09-.87-.21-1.29-3.14-11.15-6.29-22.29-9.44-33.44-.57.06-1.13.11-1.7.17-1.62,7.57-3.17,15.15-4.88,22.7-3.01,13.27-6.11,26.52-9.19,39.78-.4,1.71-1.02,3.55.15,5,1.25,1.54,2.81.02,4.1-.34Z"/>
  <path class="cls-8" d="M1300.93,364.42c-2.25.52-4.2,1.79-5.8,3.96-.96,4.83-4.59,8.22-6.54,12.51-5.12,11.3-14.5,20.42-16.52,33.31,7.62-3.96,12.79-10.83,18.17-17.1,6.9-8.05,14.52-15.32,21.72-23.03,1.99-2.13,3.92-4.29,5.26-6.85.45-.85.83-1.75,1.14-2.71-2.05-.04-4.1-.08-6.15-.12-2.31-.05-4.62-.09-6.93-.14-1.55-.19-3-.15-4.35.17Z"/>
  <path class="cls-7" d="M1605.35,52.98c.67.05,1.33.1,2,.14,6.49-.87,13-1.62,19.47-2.66,3.5-.56,7.03-.9,10.56-1.23,1.32-.12,2.63-.25,3.94-.38,4.56-.46,9.11-1.04,13.58-2.21-5.24-.53-10.54-.56-15.78-.93-8.71-.61-17.56-1.91-26.35-.31-.29.65-.7,1.18-1.18,1.63-.32.3-.67.58-1.04.83-2.02,1.41-4.55,2.3-5.2,5.11Z"/>
  <path class="cls-5" d="M1412.22,238.93c-2.74-1.93-4.25.65-6.06,1.81-4.93,3.16-9.85,6.34-14.77,9.52-4.92,3.18-9.83,6.38-14.74,9.56h0c1.67-.53,3.34-1.08,4.98-1.66.82-.29,1.64-.59,2.46-.89,1.63-.61,3.24-1.25,4.83-1.94,3.18-1.37,6.26-2.9,9.21-4.66,1.29-.77,2.56-1.59,3.8-2.45,3.71-2.6,7.18-5.64,10.3-9.28Z"/>
  <path class="cls-7" d="M1443.81,266.65c-.47-2.11-2.28-1.8-3.63-1.37-4.39,1.4-8.71,3.01-13.06,4.54.08.66.17,1.32.25,1.99,4.71-.9,9.43-1.76,14.12-2.71,1.24-.25,2.71-.69,2.32-2.44Z"/>
  <path class="cls-10" d="M1698.24,344.62c-.11.23.24.68.36.99.88.03,1.12-.61,1.15-1.28.02-.38-.26-.78-.4-1.16-.38.48-.86.91-1.11,1.46Z"/>
  <path class="cls-7" d="M1462.19,483.98s-.02-.01-.04-.01c-.08-.02-.16-.02-.22,0-.26.11-.33.67-.48,1.03.36.16.79.51,1.04.41.06-.03.12-.08.16-.16.14-.22.21-.6.32-.88h0c-.26-.11-.55-.32-.79-.4Z"/>
  <path class="cls-7" d="M1656.45,101.64c-3.44-3.13-3.77,2.05-4.59,3.75-9.92,20.67-19.65,41.43-29.35,62.21-1.32,2.83-2.19,5.87-3.44,9.3,3.15-.7,3.81-2.96,4.89-4.62,9.98-15.36,19.87-30.78,29.8-46.17,2.92-4.53,6.23-8.83,8.8-13.55,3.5-6.44-3.21-8.27-6.12-10.91Z"/>
  <path class="cls-7" d="M1031.03,434.57c3.36,12.55,7.49,24.89,11.12,37.37,1.07,3.69,2.84,5.31,6.8,4.99,13.14-1.05,26.3-1.94,39.47-2.61,3.42-.17,3.43-2.41,4.09-4.67,11.22-38.21,21.67-76.63,30.53-115.48.36-1.57,1.88-3.11-.25-5.43-10.81,8.69-23.03,15.57-28.24,30.24-3.71,10.45-9.11,20.28-13.79,30.44-1.98-1.09-1.5-2.3-1.51-3.26-.04-9.37,0-18.73-.06-28.1-.01-1.67.8-3.84-.8-4.89-1.97-1.29-2.94,1.09-4.14,2.09-7.42,6.16-14.62,12.6-22.16,18.59-6.82,5.42-12.57,12.23-20.43,16.3-.6.51-1.06,1.06-1.43,1.65-1.1,1.77-1.28,3.89-1.31,6.05.66,5.58.66,11.34,2.1,16.71Z"/>
  <path class="cls-14" d="M934.77,348.87c-3.99-7.66-7.86-15.4-12.01-22.97-2.1-3.82-1.46-6.28,2.18-8.63,3.38-2.18,6.66-4.72,7.96-8.94-6.33,1.16-11.88,4.36-17.66,6.94-.83.37-1.66.72-2.5,1.06-3.54,1.42-4.62,3.9-4.46,7.64.51,11.91.74,23.86.96,35.74.39,21.05,2.36,42.07,1.72,63.15-.06,2.06-.95,4.59,1.82,6.72,9.33-24.68,18.48-48.88,27.63-73.09-3.24-1.49-4.16-4.78-5.64-7.62Z"/>
  <path class="cls-3" d="M924.94,317.27c-3.64,2.35-4.27,4.81-2.18,8.63,4.15,7.57,8.02,15.31,12.01,22.97,1.48,2.84,2.4,6.13,5.64,7.62,2.75-10.26,8.17-19.56,10.35-30.02-3.21-6.9.86-13.62.58-20.47-.08-2.01,1.34-4.08-.72-5.83-3.02.45-5.75,1.57-8.36,2.93-3.17,1.65-6.18,3.64-9.37,5.23-1.3,4.22-4.58,6.76-7.96,8.94Z"/>
  <path class="cls-8" d="M939.6,426.08c-.7.82-1.75,1.78-1.06,2.78.9,1.31,2.26.8,3.36-.05,13.17-10.14,29.5-17.09,34.52-35.48.27-.99,1.24-1.76,1.72-2.71,2.47-4.88,5.39-9.57,6.93-14.92-1.82-.59-2.43.28-3.13,1.11-4.85,5.72-9.72,11.43-14.62,17.11-9.23,10.73-18.47,21.44-27.71,32.16Z"/>
  <path class="cls-7" d="M951.35,305.99c.28,6.85-3.8,13.57-.58,20.47,4.93-10.75,9-21.81,12.06-33.43-.93.85-1.93,1.53-2.97,2.11-3.13,1.75-6.59,2.66-9.22,5.02,2.06,1.75.64,3.82.72,5.83Z"/>
  <path class="cls-8" d="M721.95,471.76c.67.34,1.34.67,2.01,1.01,4.05-8.24,8.1-16.48,12.15-24.72-.68-.31-1.35-.63-2.03-.94-4.04,8.22-8.09,16.44-12.13,24.65Z"/>
  <path class="cls-8" d="M694.54,528.94c.67.33,1.33.65,2,.98,3.08-6.28,6.16-12.55,9.24-18.83-.66-.33-1.33-.65-1.99-.98-3.08,6.28-6.16,12.55-9.24,18.83Z"/>
  <path class="cls-8" d="M743.63,430.26c-2.24,3.43-3.52,5.39-4.79,7.35,3.84-.32,4.78-2.53,4.79-7.35Z"/>
  <path class="cls-7" d="M964.54,289.93c-.09-.18-.18-.36-.27-.54h0c-.06.08-.14.15-.21.23s-.12.16-.13.24c-.02.17.16.36.25.54.12-.16.24-.31.36-.47Z"/>
  <path class="cls-4" d="M1290.64,449.16c5.26-7.62,9.23-16.2,14.69-23.65,11.47-15.66,18.81-32.29,15.59-52.4-.38-2.38-.99-5.28,1.36-7.36-.51-.52-1.02-1.03-1.54-1.55-.46.06-.92.12-1.38.18-.33.04-.66.09-.99.13h0c-.3.96-.69,1.86-1.14,2.71-1.35,2.56-3.27,4.72-5.26,6.85-7.2,7.71-14.82,14.98-21.72,23.03-5.37,6.26-10.55,13.14-18.17,17.1-1.82,3.16-3.09,6.66-5.93,9.19-1.23,1.1-2.83,2.7.14,3.79,1.53.56,1.98,1.67,1.49,3.05-2.14,6.07-2.38,12.82-5.98,18.35-14.21,21.83-28.49,43.61-42.76,65.4-.38.57-.82,1.11-1.26,1.64-1.34,1.6-2.72,3.17-2.52,5.6,2.29,8.38,6.65,14.77,15.26,17.64,5.27,1.76,10.03,4.84,15.11,7.12.66.3,1.32.56,1.99.82h8.28c5.42-16.9,10.51-33.91,16.45-50.61,5.63-15.84,8.47-32.81,18.29-47.04Z"/>
  <path class="cls-14" d="M1418.79,476.25c3.73,14.17,7.49,28.33,11.24,42.49,1.41-1.07,1.32-2.63,1.31-4.15-.09-16.28,2.06-32.5,1.28-48.81-.18-3.68-.32-7.46.25-11.07,2.18-13.89.35-27.76.43-41.7-1.47,4.96-3.15,9.86-4.86,14.76-1.28,3.67-2.57,7.33-3.77,11.02-.02.05-.03.1-.05.15-3.6,11-6.49,22.17-6.33,34.12.16,1.07.22,2.17.5,3.2Z"/>
  <path class="cls-4" d="M1372.11,470.23c-.03,2.3-1.39,4.01-2.42,5.9-8.66,15.89-17.24,31.81-25.85,47.72h0c-.15.23-.3.45-.45.67.22-.15.44-.31.66-.46,1.12-.55,2.54-.83,3.33-1.69,10.46-11.41,20.83-22.9,31.24-34.37,1.1-1.21,1.13-2.7,1.41-4.2.2-1.06.41-2.11.61-3.16,1.5-7.84,3.08-15.67,4.63-23.5-.7-3.09,2.49-5.97.31-9.58-1.15,1.93-2.29,3.85-3.42,5.75-3.36,5.65-6.65,11.19-9.94,16.72-.04.06-.07.13-.11.19Z"/>
  <path class="cls-8" d="M1320.73,364.2c.51.52,1.02,1.03,1.54,1.55,3.15-1.52,5.09-4.08,6-7.45.08-.29-.88-1.26-1.05-1.18-.79.35-1.53.75-2.21,1.2-.26.17-.5.35-.74.53-1.68,1.3-2.93,3.02-3.53,5.35Z"/>
  <path class="cls-12" d="M1312.1,488.09c-.1.18-.19.35-.29.53l.02.02c.09-.18.18-.37.27-.55Z"/>
  <path class="cls-7" d="M1361.41,202.66c2.48.67,2.93-.44,3.08-2.53.78-11.12,1.62-22.23,2.44-33.34-2.43.36-4.58-.43-6.79-1.41-7.24-3.2-14.54-6.26-21.86-9.26-1.67-.68-3.44-2.86-5.18-1.28-1.51,1.37-.38,3.62-.12,5.55.41,3.05.92,6.09,1.48,9.12.21,1.14.42,2.27.64,3.4.31,1.6.61,3.2.92,4.81,1.21,6.34,2.33,12.69,2.74,19.15,7.56,1.91,15.14,3.74,22.66,5.77Z"/>
  <path class="cls-2" d="M1305.39,219.15c-7.8,2.62-15.82,4.64-22.98,9.28,8.94-1.35,17.88-2.7,26.82-4.04-.34-2.46-.92-4.74-3.84-5.24Z"/>
  <path class="cls-3" d="M1157.31,374.09c.1-.18.21-.36.31-.54h-.01c-.1.17-.2.36-.3.54Z"/>
  <path class="cls-16" d="M853.04,539.79c7.69-13.95,15.39-27.89,23.03-41.87.48-.88,1.02-2.24.69-2.98-.69-1.52-2.1-.63-3.32-.38-1.65.34-3.35.48-5.03.66-4.77.53-7.83,2.38-9.24,7.8-.36,1.38-.73,2.76-1.12,4.14-2.69,9.63-5.96,19.1-8.94,28.65.26,2.4,1.61,3.68,3.93,3.98Z"/>
  <path class="cls-5" d="M1241.76,338.01c-5.49,2.26-11.82,2.7-15.36,8.29-.85,1.33-2.16,2.09-3.8,1.1-.17,1.14-.7,1.75-1.86,1.42-1.13,5.94-7.94,6.62-10.51,11.88,1-.42,1.98-.83,2.94-1.23,2.89-1.21,5.63-2.36,8.37-3.51,8.68-3.77,15.62-9.51,20.22-17.95Z"/>
  <path class="cls-4" d="M1261.28,429.05c.24.11.47.22.71.33.04-.13.15-.32.1-.39-.08-.11-.27-.14-.41-.21-.13.09-.26.18-.39.27Z"/>
  <path class="cls-14" d="M1365.26,269.98c3.48-.45,7.06-.75,8.11-5.16-.78.25-1.57.51-2.33.79-2.3.85-4.41,2-5.78,4.37Z"/>
  <path class="cls-14" d="M1361.39,272.59c1.83.31,2.98-.33,3.17-2.33-.21-.01-.41,0-.6.01-.16.02-.32.04-.47.08-1.05.26-1.73,1.04-2.1,2.24Z"/>
  <path class="cls-14" d="M1403.57,234.36s-.02.01-.03.02c-.04.02-.09.04-.13.08-.11.09-.22.23-.33.42h0c.43,0,.87,0,1.3,0-.11-.18-.22-.31-.32-.41-.16-.14-.32-.18-.49-.12Z"/>
</svg>