<?xml version="1.0" encoding="UTF-8"?>
<svg id="OBJECTS" xmlns="http://www.w3.org/2000/svg" viewBox="0 0 500 500">
  <defs>
    <style>
      .cls-1 {
        fill: #29abe2;
        fill-rule: evenodd;
        stroke-width: 0px;
      }
    </style>
  </defs>
  <path class="cls-1" d="M433.29,287.28c14.3,1.14,25.71,13.25,25.71,27.82h0c0,15.36-12.55,27.9-27.9,27.9H68.08c-15.36,0-27.9-12.55-27.9-27.9h0c0-13.78,10.18-25.27,23.34-27.47-.09-1.32-.09-2.54-.09-3.86,0-27.55,21.41-50.37,49.05-53.61,4.91-41.42,41.77-73.53,86.43-73.53,29.83,0,56.07,14.3,71.78,36.06,6.67-2.02,13.69-3.07,20.97-3.07,31.59,0,58.27,19.74,66.69,46.68,6.05-2.11,12.64-3.25,19.57-3.25,30.62,0,55.46,23.08,55.46,51.6,0,.88,0,1.75-.09,2.63h0Z"/>
</svg>