<?xml version="1.0" encoding="UTF-8"?>
<svg xmlns="http://www.w3.org/2000/svg" viewBox="0 0 1590.02 1077">
  <defs>
    <style>
      .cls-1, .cls-2 {
        fill-rule: evenodd;
      }

      .cls-1, .cls-2, .cls-3 {
        stroke-width: 0px;
      }

      .cls-1, .cls-3 {
        fill: #29abe2;
      }

      .cls-2 {
        fill: #f2f2f2;
      }
    </style>
  </defs>
  <g id="BACKGROUND">
    <rect class="cls-3" x="1090.02" y="104" width="500" height="500"/>
  </g>
  <g id="OBJECTS">
    <path class="cls-2" d="M559.95,653.93h2.35c.47-6.62,6.23-11.83,13.27-11.83.72,0,1.41.06,2.08.17,2.69-7.62,10.33-13.1,19.37-13.1,7.04,0,13.24,3.35,16.9,8.45,1.27-.3,2.58-.44,3.93-.44,9.09,0,16.43,6.82,16.43,15.21,0,.53-.03,1.03-.08,1.55h.22c5.9,0,10.75,4.82,10.75,10.75h0c0,5.9-4.85,10.75-10.75,10.75h-74.47c-5.93,0-10.78-4.85-10.78-10.75h0c0-5.93,4.85-10.75,10.78-10.75h0Z"/>
    <path class="cls-2" d="M668.38,870.02h14.41c.36-5.79,5.18-10.39,11.08-10.39,2.05,0,3.96.55,5.62,1.5,1.77-6.32,7.59-10.94,14.49-10.94,1.94,0,3.8.36,5.51,1.02,3.41-6.51,10.22-10.97,18.09-10.97,9.75,0,17.92,6.87,19.95,16.04,6.26,1,11.03,6.4,11.03,12.94,0,.28,0,.55-.03.8h11.36c4.35,0,7.9,3.55,7.9,7.9h0c0,4.35-3.55,7.9-7.9,7.9h-111.51c-4.32,0-7.87-3.55-7.87-7.9h0c0-4.35,3.55-7.9,7.87-7.9h0Z"/>
    <path class="cls-2" d="M598.05,1042.62c3.6-6.79,10.72-11.39,18.95-11.39,9.09,0,16.84,5.65,19.97,13.66,1.83-.8,3.82-1.22,5.93-1.22,7.12,0,13.08,4.88,14.74,11.44.8-.22,1.63-.33,2.52-.33,5.1,0,9.25,4.16,9.25,9.28,0,1.27-.25,2.52-.72,3.63,2.27.3,4.02,2.27,4.02,4.63h0c0,2.58-2.08,4.68-4.65,4.68h-123.06c-2.58,0-4.68-2.11-4.68-4.68h0c0-2.3,1.69-4.24,3.91-4.6-.03-.22-.03-.47-.03-.69,0-4.13,3.32-7.45,7.45-7.45.69,0,1.39.08,2.02.28.89-6.84,6.73-12.13,13.82-12.13,2.96,0,5.73.94,8.01,2.55,2.52-5.68,8.2-9.61,14.82-9.61,2.8,0,5.43.72,7.73,1.97h0Z"/>
    <path class="cls-1" d="M1206.02,735.82c7.23.58,13,6.7,13,14.07h0c0,7.77-6.35,14.11-14.11,14.11h-183.6c-7.77,0-14.11-6.35-14.11-14.11h0c0-6.97,5.15-12.78,11.81-13.89-.04-.67-.04-1.29-.04-1.95,0-13.94,10.83-25.47,24.81-27.12,2.49-20.95,21.12-37.19,43.71-37.19,15.09,0,28.36,7.23,36.3,18.24,3.37-1.02,6.92-1.55,10.61-1.55,15.98,0,29.47,9.99,33.73,23.61,3.06-1.07,6.39-1.64,9.9-1.64,15.49,0,28.05,11.67,28.05,26.1,0,.44,0,.89-.04,1.33h0Z"/>
    <path class="cls-2" d="M718.21,766.36c7.15,0,13.41,3.88,16.79,9.61,1.63-.61,3.38-.91,5.21-.91,5.6,0,10.5,3.05,13.13,7.56,1.75-1,3.8-1.58,5.98-1.58,5.71,0,10.47,3.93,11.8,9.23h.19c4.18,0,7.56,3.38,7.56,7.54s-3.38,7.56-7.56,7.56h-71.87c-7.59,0-13.74-6.18-13.74-13.77s6.15-13.74,13.74-13.74c.33,0,.64.03.94.06,3.05-6.82,9.89-11.55,17.81-11.55h0Z"/>
    <path class="cls-2" d="M631.99,954.14c7.87,0,14.71,4.35,18.28,10.78,2.58-1.58,5.6-2.49,8.84-2.49,7.29,0,13.46,4.63,15.82,11.11.61-.11,1.22-.17,1.88-.17,5.98,0,10.86,4.65,11.28,10.53.36-.06.72-.11,1.11-.11,3.38,0,6.1,2.74,6.1,6.12s-2.72,6.1-6.1,6.1h-96.66c-4.27,0-7.73-3.46-7.73-7.73s3.46-7.7,7.73-7.7c.97,0,1.88.17,2.71.47.42-7.48,6.59-13.41,14.18-13.41.97,0,1.94.08,2.88.28,2.91-8.03,10.61-13.77,19.67-13.77h0Z"/>
    <g>
      <path class="cls-2" d="M398.9,183.32c5.26,0,10.08,1.88,13.85,5.01,1.08-.19,2.22-.3,3.35-.3,7.37,0,13.74,4.1,17.04,10.14,1.36-.42,2.8-.64,4.29-.64,6.32,0,11.66,3.96,13.71,9.56,3.96.17,7.34,2.72,8.73,6.23.42-.08.86-.14,1.33-.14,3.74,0,6.76,3.02,6.76,6.76s-3.02,6.76-6.76,6.76h-62.31c-12,0-21.69-9.7-21.69-21.69s9.7-21.69,21.69-21.69h0Z"/>
      <path class="cls-2" d="M435.5,183.32h24.8c1.19,0,2.19,1,2.19,2.22h0c0,1.19-1,2.19-2.19,2.19h-24.8c-1.22,0-2.22-1-2.22-2.19h0c0-1.22,1-2.22,2.22-2.22h0Z"/>
      <path class="cls-2" d="M441.9,192.02h9.45c1.22,0,2.19.97,2.19,2.19h0c0,1.22-.97,2.22-2.19,2.22h-9.45c-1.19,0-2.19-1-2.19-2.22h0c0-1.22,1-2.19,2.19-2.19h0Z"/>
      <path class="cls-2" d="M456.25,201.05h3.85c.75,0,1.36.61,1.36,1.33h0c0,.75-.61,1.36-1.36,1.36h-3.85c-.75,0-1.36-.61-1.36-1.36h0c0-.72.61-1.33,1.36-1.33h0Z"/>
    </g>
    <path class="cls-2" d="M490.13,0c5.35,0,9.89,3.49,11.5,8.31,5.68.91,10.36,4.85,12.33,10.11.91-.19,1.88-.28,2.85-.28,8.31,0,15.07,6.76,15.07,15.1s-6.76,15.07-15.07,15.07h-62.89c-4.57,0-8.26-3.68-8.26-8.26,0-3.44,2.08-6.37,5.04-7.62,1.22-4.85,5.24-8.62,10.25-9.45,1.14-6.62,6.93-11.66,13.88-11.66,1.08,0,2.16.11,3.16.33.25-6.48,5.57-11.66,12.13-11.66h0Z"/>
    <path class="cls-2" d="M368.56,278.62c17.45.91,28.42,2.24,28.42,3.71,0,2.77-38.68,5.01-86.38,5.01s-86.35-2.24-86.35-5.01c0-1.39,9.81-2.66,25.65-3.57-.11-.47-.17-.97-.17-1.5,0-4.27,3.46-7.7,7.73-7.7.94,0,1.83.17,2.66.47.19-8.87,7.45-15.99,16.37-15.99,1.86,0,3.63.3,5.29.86,3.32-7.62,10.92-12.97,19.75-12.97,8.15,0,15.24,4.54,18.89,11.25,1.63-.55,3.35-.86,5.18-.86,6.37,0,11.89,3.71,14.52,9.09,1.77-.97,3.82-1.52,6.01-1.52,4.79,0,8.98,2.69,11.14,6.62,1.11-.47,2.3-.75,3.57-.75,4.82,0,8.73,3.91,8.73,8.73,0,1.5-.36,2.91-1.03,4.13h0Z"/>
    <path class="cls-2" d="M328.53,333.64c8.84.69,14.21,1.61,14.21,2.6,0,2.16-24.99,3.93-55.82,3.93s-55.8-1.77-55.8-3.93c0-1.08,6.18-2.05,16.15-2.74-.14-.47-.22-.94-.22-1.44,0-2.74,2.22-4.93,4.93-4.93.8,0,1.52.17,2.19.5,1.16-1.94,3.27-3.24,5.71-3.24,1.16,0,2.24.3,3.21.83.91-5.32,5.54-9.36,11.14-9.36,1.94,0,3.8.5,5.4,1.39,2.49-3.6,6.68-5.98,11.39-5.98,5.6,0,10.39,3.3,12.58,8.06.72-.17,1.47-.28,2.24-.28,3.99,0,7.34,2.66,8.42,6.32.89-.5,1.91-.75,2.99-.75,3.1,0,5.68,2.19,6.26,5.13.42-.17.86-.25,1.33-.25,2.05,0,3.71,1.69,3.71,3.74,0,.14,0,.28-.03.42h0Z"/>
    <path class="cls-1" d="M202.82,808.14c1.27-.23,2.54-.35,3.87-.35,12.32,0,22.32,9.77,22.32,21.86s-10.01,21.86-22.32,21.86c-2.6,0-5.09-.46-7.4-1.21-6.71,9.54-17.93,15.79-30.59,15.79-6.42,0-12.43-1.56-17.64-4.4-8.5,9.31-20.59,15.09-34.06,15.09-10.81,0-20.76-3.76-28.69-10.06-3.82,1.39-7.98,2.08-12.32,2.08-10.93,0-20.76-4.68-27.76-12.2-4.63,2.43-10.01,3.82-15.67,3.82-17.99,0-32.56-13.76-32.56-30.77s14.57-30.71,32.56-30.71c1.33,0,2.6.06,3.93.17,4.34-14,17.41-24.12,32.85-24.12h.98c7-16.83,23.6-28.69,42.91-28.69,21.17,0,39.04,14.17,44.65,33.54,3.59-1.33,7.4-2.02,11.45-2.02,17.47,0,31.81,13.3,33.49,30.31h0Z"/>
    <path class="cls-2" d="M494.12,305.25h.3c.36,3.55,3.41,6.32,7.04,6.32h151.46c3.91,0,7.09-3.19,7.09-7.06v-.03c0-3.88-3.19-7.06-7.09-7.06h-2.02c-1-3.66-4.52-6.34-8.7-6.34-1.08,0-2.11.19-3.05.5-1.14-5.57-6.43-9.81-12.77-9.81-.64,0-1.25.06-1.86.14-1.83-6.76-8.34-11.75-16.12-11.75-1.72,0-3.41.25-4.96.69-3.16-4.32-8.37-7.15-14.21-7.15s-11.22,2.91-14.35,7.34c-2.63-3.93-7.4-6.57-12.85-6.57-6.9,0-12.69,4.18-14.46,9.92-1.5-.39-3.08-.58-4.71-.58-8.59,0-15.85,5.6-18.23,13.3-1.16-.3-2.38-.47-3.66-.47-6.95,0-12.61,4.79-12.88,10.78h-6.62c-3.91,0-7.09,3.19-7.09,7.06v.03c0,.14,0,.28.03.42-.11.11-.19.22-.28.33h0Z"/>
    <path class="cls-2" d="M513.63,241.56h96.38c2.8,0,5.07-2.27,5.07-5.07h0c0-2.11-1.27-3.91-3.1-4.68.14-.61.22-1.22.22-1.86,0-4.13-3.46-7.45-7.76-7.45-.39,0-.75.03-1.14.06-1.3-3.99-5.18-6.9-9.78-6.9-1.05,0-2.05.14-2.99.42-1.22-5.01-5.93-8.73-11.55-8.73-1.72,0-3.35.33-4.82.97-2.44-2.63-6.07-4.27-10.08-4.27-5.18,0-9.7,2.74-11.89,6.76-1.55-.75-3.3-1.14-5.15-1.14-4.43,0-8.28,2.35-10.33,5.87-1.41-.55-2.96-.89-4.57-.89-5.68,0-10.44,3.82-11.64,8.95-.17-.03-.36-.03-.55-.03-4.63,0-8.39,3.46-8.39,7.73v.11c-2.63.19-4.71,2.41-4.71,5.07h0c0,2.8,2.3,5.07,5.1,5.07h1.69Z"/>
    <path class="cls-2" d="M446.58,241.89c6.32,0,11.75,3.91,14.32,9.59,1.58-.47,3.27-.72,5.04-.72,6.54,0,12.08,3.52,14.13,8.39.42-.06.86-.08,1.3-.08,3.93,0,7.26,2.63,8.23,6.23.66-.25,1.39-.36,2.13-.36,3.27,0,5.93,2.44,5.93,5.46s-2.66,5.46-5.93,5.46h-85.19c-2.27,0-4.07-1.77-4.07-3.91s1.8-3.91,4.07-3.91c.69,0,1.33.17,1.91.44.06-3.93,3.16-7.09,6.95-7.09,1.63,0,3.16.58,4.35,1.55,1.27-3.85,4.9-6.62,9.17-6.62.64,0,1.3.08,1.91.19,1.05-8.26,7.7-14.63,15.74-14.63h0Z"/>
    <path class="cls-2" d="M578.54,325.8c9.17,0,16.76,6.12,17.87,14.02,3.8.5,6.98,2.63,8.64,5.6,1.22-.47,2.55-.72,3.93-.72,4.79,0,8.78,2.99,9.84,7.01,1.88-1.03,4.04-1.61,6.37-1.61,6.84,0,12.41,5.07,12.41,11.33,0,.53-.03,1.03-.11,1.52,2.91.64,5.1,3.24,5.1,6.34h0c0,3.57-2.91,6.48-6.48,6.48h-63.8c-.69.08-1.36.11-2.08.11s-1.39-.03-2.05-.11h-73.5c-3.57,0-6.48-2.91-6.48-6.48h0c0-3.57,2.91-6.48,6.48-6.48h.42c0-5.18,5.04-9.39,11.25-9.39,1.25,0,2.44.17,3.55.47-.08-.5-.11-1.02-.11-1.55,0-7.18,6.93-13.02,15.46-13.02,4.24,0,8.09,1.44,10.89,3.8,2.24-6.37,8.53-10.94,15.99-10.94,3.74,0,7.18,1.16,9.97,3.13,2.83-5.6,9.14-9.5,16.46-9.5h0Z"/>
    <path class="cls-2" d="M369.84,349.57c2.27.28,4.29,1.25,5.85,2.72,2.05-2.52,5.24-3.96,8.59-3.57,1.69.19,3.21.8,4.49,1.75,2.13-4.41,7.09-7.18,12.52-6.57,5.1.58,9.11,4.02,10.47,8.37.17.03.33.03.5.06,5.51.64,9.42,5.93,8.75,11.8-.11.89-.3,1.75-.58,2.55,2.99,2.49,4.68,6.59,4.18,10.94-.78,6.7-6.48,11.58-12.77,10.86-3.16-.39-5.87-2.11-7.67-4.57,0,.39,0,.8-.06,1.22-.66,5.85-6.54,9.97-13.1,9.2-3.88-.44-7.12-2.49-8.98-5.29-2.27,3.66-6.59,5.85-11.25,5.32-5.85-.66-10.2-5.49-10.28-11.05-.11-.03-.22-.03-.33-.03-5.85-.69-10.08-5.85-9.42-11.52.5-4.46,3.85-7.9,8.09-8.89-.42-1.3-.55-2.74-.39-4.18.66-5.68,5.76-9.72,11.39-9.09h0Z"/>
    <path class="cls-2" d="M545.51,407.34c.89,0,1.72.11,2.49.33,1.41-2.47,4.41-4.18,7.87-4.18.53,0,1.02.06,1.52.11-.08-.55-.14-1.14-.14-1.72,0-6.09,5.26-11.05,11.75-11.05,3.63,0,6.87,1.55,9,3.99,1.5-.66,3.16-1.05,4.9-1.05,4.07,0,7.65,2.05,9.67,5.1,1.97-1.69,4.6-2.72,7.48-2.72,6.07,0,11,4.57,11.11,10.22,1.55-.89,3.41-1.41,5.4-1.41,5.4,0,9.81,3.85,9.81,8.56s-4.4,8.53-9.81,8.53c-.75,0-1.5-.06-2.19-.19-.78,5.1-5.21,9.03-10.53,9.03-1.63,0-3.16-.36-4.52-1-.89,4.68-5.43,8.26-10.92,8.26-3.32,0-6.32-1.3-8.34-3.41-1.97,1.69-4.68,2.74-7.7,2.74-4.16,0-7.78-1.99-9.59-4.9-2.08,1.41-4.68,2.24-7.51,2.24-6.93,0-12.58-5.07-12.58-11.33,0-.3.03-.61.06-.89-3.3-1.08-5.65-3.99-5.65-7.42,0-4.32,3.77-7.84,8.39-7.84h0Z"/>
    <path class="cls-2" d="M447.88,284.36c6.51,0,12.22,3.32,15.24,8.28,5.18.83,9.14,5.43,9.14,10.97,0,2.49-.8,4.82-2.19,6.68,1.52,1.47,2.6,3.27,3.02,5.24.83-.33,1.72-.53,2.69-.53,3.8,0,6.87,2.94,6.87,6.57v.14c5.6.72,9.86,4.52,9.86,9.06,0,5.07-5.29,9.2-11.83,9.2-2.83,0-5.43-.78-7.45-2.08-2.13.97-4.6,1.5-7.23,1.5-2.35,0-4.54-.42-6.51-1.19-2.55,1.77-6.09,2.88-10.03,2.88-3.46,0-6.65-.86-9.09-2.3-2.22,1.44-5.1,2.3-8.26,2.3-4.57,0-8.56-1.8-10.75-4.52-1.8,2.05-4.71,3.41-8.01,3.41-5.49,0-9.95-3.74-9.95-8.37,0-4.29,3.91-7.84,8.89-8.28-.06-.42-.08-.83-.08-1.27,0-5.32,4.24-9.64,9.47-9.64.36,0,.72,0,1.08.06.39-3.99,3.66-7.26,7.98-8.12-.28-1.14-.42-2.35-.42-3.57,0-9.06,7.84-16.4,17.54-16.4h0Z"/>
    <path class="cls-2" d="M428.41,398.39c2.3,0,4.43.75,6.18,1.99,2.05-3.71,6.18-6.23,10.92-6.23,1.99,0,3.88.44,5.54,1.22,1.75-5.76,7.37-9.97,14.02-9.97s12.13,4.1,13.94,9.75c1.25-.42,2.58-.67,3.96-.67,6.57,0,11.91,5.21,11.91,11.64,0,2.19-.64,4.27-1.72,6.01,2.33,1.91,3.82,4.79,3.82,8.03,0,5.76-4.77,10.44-10.67,10.44-1.72,0-3.32-.39-4.77-1.11-1.58,4.41-6.34,7.59-12,7.59-4.32,0-8.15-1.88-10.42-4.74-2.52,3.16-6.76,5.21-11.58,5.21-5.98,0-11.08-3.16-13.1-7.62-1.52.86-3.3,1.36-5.21,1.36-5.46,0-9.92-4.13-9.92-9.25,0-1.91.64-3.71,1.72-5.18-2.02-1.97-3.27-4.71-3.27-7.73,0-5.96,4.77-10.75,10.64-10.75h0Z"/>
    <path class="cls-2" d="M220.46,419.56c-1.69,1.02-3.82,1.58-6.15,1.52-5.46-.17-9.86-3.77-9.86-8.03,0-3.63,3.19-6.59,7.48-7.29-.89-1.61-1.39-3.35-1.39-5.18,0-7.01,7.2-12.47,16.07-12.19,2.3.06,4.49.5,6.48,1.25,1.97-2.38,5.04-3.99,8.56-4.27-.11-.83-.17-1.66-.17-2.52,0-11.61,9.72-20.72,21.69-20.36,8.12.25,15.18,4.77,18.89,11.25.72-.08,1.47-.08,2.22-.08,3.3.11,6.34,1.08,8.87,2.66,2.88-5.37,8.64-8.92,15.27-8.73,8.31.22,15.24,6.29,16.87,14.1h.72c6.79.19,12.49,4.49,14.16,10.17,1.05-.22,2.16-.3,3.3-.28,7.78.22,14.07,6.23,14.07,13.44s-6.29,12.83-14.07,12.58c-2.22-.06-4.32-.58-6.18-1.5-1.83,5.98-7.87,10.25-15.02,10.03-3.91-.11-7.48-1.52-10.22-3.8-2.33,3.3-6.4,5.43-11,5.29-4.07-.14-7.7-1.97-10.11-4.77-3.02,2.8-7.26,4.49-11.94,4.35-4.54-.14-8.67-1.97-11.66-4.79-2.66,3.71-7.31,6.09-12.61,5.96-4.32-.14-8.2-1.94-10.94-4.71-2.6,2.47-6.29,3.96-10.39,3.85-5.68-.17-10.61-3.41-12.94-7.95h0Z"/>
    <g>
      <path class="cls-2" d="M385.05,71.59c4.99,0,9.56,1.72,13.1,4.54,3.08-5.07,8.89-8.51,15.57-8.51,9.86,0,17.87,7.48,17.87,16.71,0,.72-.06,1.39-.14,2.08,4.07.44,7.54,2.74,9.53,5.98.89-.28,1.8-.42,2.77-.42,5.24,0,9.47,4.24,9.47,9.47s-4.24,9.47-9.47,9.47h-58.71c-11.3,0-20.47-8.81-20.47-19.67s9.17-19.67,20.47-19.67h0Z"/>
      <path class="cls-2" d="M435.28,76.55h14.54c.83,0,1.52.69,1.52,1.55h0c0,.83-.69,1.52-1.52,1.52h-14.54c-.86,0-1.52-.69-1.52-1.52h0c0-.86.66-1.55,1.52-1.55h0Z"/>
      <path class="cls-2" d="M448.58,84.75h6.84c1.05,0,1.91.86,1.91,1.88h0c0,1.05-.86,1.91-1.91,1.91h-6.84c-1.02,0-1.88-.86-1.88-1.91h0c0-1.03.86-1.88,1.88-1.88h0Z"/>
      <path class="cls-2" d="M430.57,68.37h5.13c.8,0,1.47.66,1.47,1.47h0c0,.8-.66,1.47-1.47,1.47h-5.13c-.8,0-1.47-.66-1.47-1.47h0c0-.8.66-1.47,1.47-1.47h0Z"/>
    </g>
    <path class="cls-2" d="M606.36,107.42c-.28-.02-.55-.03-.84-.03-.3,0-.58,0-.89.03.33-.94.53-1.97.53-3.02,0-5.13-4.24-9.28-9.45-9.28-.42,0-.78,0-1.16.06.03-.44.06-.89.06-1.33,0-7.95-6.57-14.43-14.66-14.43-2.13,0-4.16.47-5.98,1.27-2.55-4.27-7.34-7.15-12.85-7.15-1.05,0-2.08.11-3.08.3-2.08-4.77-7.09-8.12-12.94-8.12-7.09,0-12.95,4.93-13.87,11.32-2.75-3.09-6.74-5.05-11.2-5.05-8.28,0-15,6.72-15,15,0,.69.06,1.37.16,2.04-7.89.44-14.16,6.96-14.16,14.96s6.74,14.96,14.82,15.04c10.58.11,21.18-.04,31.77-.04h68.2c7.38,0,7.91-11.12.54-11.58Z"/>
    <path class="cls-2" d="M653.02,36h-5.83c.13-.63.22-1.28.22-1.95,0-5.24-4.24-9.47-9.47-9.47-.72,0-1.41.08-2.11.22-1.63-3.99-5.62-6.82-10.31-6.82-1.16,0-2.3.17-3.35.5-2.71-5.01-8.06-8.45-14.24-8.45-7.65,0-14.05,5.26-15.71,12.33-1.16-.39-2.44-.58-3.77-.58-5.1,0-9.39,3.02-10.8,7.2h-.47c-5.17,0-9.69,2.82-12.08,7.02h-12.08c-3.87,0-7,3.13-7,7s3.13,7,7,7h100c3.87,0,7-3.13,7-7s-3.13-7-7-7Z"/>
  </g>
</svg>