<?xml version="1.0" encoding="UTF-8"?>
<svg id="OBJECTS" xmlns="http://www.w3.org/2000/svg" viewBox="0 0 500 500">
  <defs>
    <style>
      .cls-1 {
        fill: #29abe2;
        fill-rule: evenodd;
        stroke-width: 0px;
      }
    </style>
  </defs>
  <path class="cls-1" d="M405.74,301.73c46.53,2.44,75.78,5.98,75.78,9.9,0,7.39-103.11,13.37-230.3,13.37s-230.22-5.98-230.22-13.37c0-3.69,26.15-7.09,68.39-9.53-.3-1.26-.44-2.59-.44-3.99,0-11.37,9.23-20.53,20.61-20.53,2.51,0,4.87.44,7.09,1.26.52-23.64,19.87-42.62,43.65-42.62,4.95,0,9.68.81,14.11,2.29,8.86-20.31,29.1-34.57,52.66-34.57,21.71,0,40.62,12.11,50.37,29.99,4.36-1.48,8.94-2.29,13.81-2.29,16.99,0,31.69,9.9,38.7,24.23,4.73-2.59,10.19-4.06,16.03-4.06,12.78,0,23.93,7.16,29.69,17.65,2.95-1.26,6.13-1.99,9.53-1.99,12.85,0,23.27,10.41,23.27,23.27,0,3.99-.96,7.76-2.73,11.01h0Z"/>
</svg>