<?xml version="1.0" encoding="UTF-8"?>
<svg id="Capa_1" data-name="Capa 1" xmlns="http://www.w3.org/2000/svg" xmlns:xlink="http://www.w3.org/1999/xlink" viewBox="0 0 440.68 439.83">
  <defs>
    <style>
      .cls-1 {
        fill: url(#linear-gradient-38);
      }

      .cls-1, .cls-2, .cls-3, .cls-4, .cls-5, .cls-6, .cls-7, .cls-8, .cls-9, .cls-10, .cls-11, .cls-12, .cls-13, .cls-14, .cls-15, .cls-16, .cls-17, .cls-18, .cls-19, .cls-20, .cls-21, .cls-22, .cls-23, .cls-24, .cls-25, .cls-26, .cls-27, .cls-28, .cls-29, .cls-30, .cls-31, .cls-32, .cls-33, .cls-34, .cls-35, .cls-36, .cls-37, .cls-38, .cls-39, .cls-40, .cls-41, .cls-42, .cls-43, .cls-44 {
        stroke-width: 0px;
      }

      .cls-2 {
        fill: url(#linear-gradient-12);
      }

      .cls-3 {
        fill: url(#linear-gradient-17);
      }

      .cls-4 {
        fill: url(#linear-gradient-19);
      }

      .cls-5 {
        fill: url(#linear-gradient-33);
      }

      .cls-6 {
        fill: url(#linear-gradient);
      }

      .cls-7 {
        fill: url(#linear-gradient-21);
      }

      .cls-8 {
        fill: url(#linear-gradient-6);
      }

      .cls-9 {
        fill: #331857;
      }

      .cls-10 {
        fill: url(#linear-gradient-15);
      }

      .cls-11 {
        fill: url(#linear-gradient-11);
      }

      .cls-12 {
        fill: url(#linear-gradient-5);
      }

      .cls-13 {
        fill: url(#linear-gradient-31);
      }

      .cls-14 {
        fill: url(#linear-gradient-34);
      }

      .cls-15 {
        fill: #801900;
      }

      .cls-16 {
        fill: url(#linear-gradient-40);
      }

      .cls-17 {
        fill: url(#linear-gradient-13);
      }

      .cls-18 {
        fill: url(#linear-gradient-23);
      }

      .cls-19 {
        fill: url(#linear-gradient-25);
      }

      .cls-20 {
        fill: url(#linear-gradient-16);
      }

      .cls-21 {
        fill: url(#linear-gradient-22);
      }

      .cls-22 {
        fill: url(#linear-gradient-35);
      }

      .cls-23 {
        fill: url(#linear-gradient-32);
      }

      .cls-24 {
        fill: url(#linear-gradient-20);
      }

      .cls-25 {
        fill: url(#linear-gradient-14);
      }

      .cls-26 {
        fill: url(#linear-gradient-2);
      }

      .cls-27 {
        fill: url(#linear-gradient-7);
      }

      .cls-28 {
        fill: #ff8900;
      }

      .cls-29 {
        fill: url(#linear-gradient-39);
      }

      .cls-30 {
        fill: url(#linear-gradient-3);
      }

      .cls-31 {
        fill: url(#linear-gradient-9);
      }

      .cls-32 {
        fill: url(#linear-gradient-27);
      }

      .cls-33 {
        fill: url(#linear-gradient-36);
      }

      .cls-34 {
        fill: url(#linear-gradient-8);
      }

      .cls-35 {
        fill: url(#linear-gradient-24);
      }

      .cls-36 {
        fill: url(#linear-gradient-26);
      }

      .cls-37 {
        fill: url(#linear-gradient-18);
      }

      .cls-38 {
        fill: #6142a1;
      }

      .cls-39 {
        fill: url(#linear-gradient-30);
      }

      .cls-40 {
        fill: url(#linear-gradient-29);
      }

      .cls-41 {
        fill: url(#linear-gradient-28);
      }

      .cls-42 {
        fill: url(#linear-gradient-10);
      }

      .cls-43 {
        fill: url(#linear-gradient-4);
      }

      .cls-44 {
        fill: url(#linear-gradient-37);
      }
    </style>
    <linearGradient id="linear-gradient" x1="103.7" y1="243.97" x2="7.24" y2="188.28" gradientTransform="translate(68.32 -54.87) rotate(9.94)" gradientUnits="userSpaceOnUse">
      <stop offset="0" stop-color="#b21c0a" stop-opacity=".7"/>
      <stop offset="1" stop-color="#b21c0a" stop-opacity="0"/>
    </linearGradient>
    <linearGradient id="linear-gradient-2" x1="245.87" y1="351.28" x2="39.7" y2="232.25" gradientTransform="translate(68.32 -54.87) rotate(9.94)" gradientUnits="userSpaceOnUse">
      <stop offset="0" stop-color="#b21c0a" stop-opacity=".7"/>
      <stop offset=".63" stop-color="#b21c0a" stop-opacity="0"/>
    </linearGradient>
    <linearGradient id="linear-gradient-3" x1="131.09" y1="454.31" x2="125" y2="454.31" xlink:href="#linear-gradient"/>
    <linearGradient id="linear-gradient-4" x1="105.32" y1="447.97" x2="100.3" y2="447.97" xlink:href="#linear-gradient"/>
    <linearGradient id="linear-gradient-5" x1="111.11" y1="449.8" x2="105.66" y2="449.8" xlink:href="#linear-gradient"/>
    <linearGradient id="linear-gradient-6" x1="99.5" y1="445.77" x2="94.49" y2="445.77" xlink:href="#linear-gradient"/>
    <linearGradient id="linear-gradient-7" x1="160.7" y1="456.22" x2="153.76" y2="456.22" xlink:href="#linear-gradient"/>
    <linearGradient id="linear-gradient-8" x1="137.55" y1="455.2" x2="131.71" y2="455.2" xlink:href="#linear-gradient"/>
    <linearGradient id="linear-gradient-9" x1="145.34" y1="455.87" x2="138.86" y2="455.87" xlink:href="#linear-gradient"/>
    <linearGradient id="linear-gradient-10" x1="123.77" y1="452.26" x2="112.17" y2="452.26" xlink:href="#linear-gradient"/>
    <linearGradient id="linear-gradient-11" x1="93.93" y1="443.46" x2="89.36" y2="443.46" xlink:href="#linear-gradient"/>
    <linearGradient id="linear-gradient-12" x1="327.72" y1="294.75" x2="152.74" y2="294.75" xlink:href="#linear-gradient"/>
    <linearGradient id="linear-gradient-13" x1="186.89" y1="454.01" x2="179.02" y2="454.01" xlink:href="#linear-gradient"/>
    <linearGradient id="linear-gradient-14" x1="177.24" y1="455.2" x2="169.76" y2="455.2" xlink:href="#linear-gradient"/>
    <linearGradient id="linear-gradient-15" x1="168.86" y1="455.87" x2="162.24" y2="455.87" xlink:href="#linear-gradient"/>
    <linearGradient id="linear-gradient-16" x1="88.9" y1="441.01" x2="84.27" y2="441.01" xlink:href="#linear-gradient"/>
    <linearGradient id="linear-gradient-17" x1="83.68" y1="438.25" x2="79.27" y2="438.25" xlink:href="#linear-gradient"/>
    <linearGradient id="linear-gradient-18" x1="152.53" y1="456.21" x2="146.5" y2="456.21" xlink:href="#linear-gradient"/>
    <linearGradient id="linear-gradient-19" x1="384.68" y1="394.14" x2="218.59" y2="106.47" xlink:href="#linear-gradient"/>
    <linearGradient id="linear-gradient-20" x1="204.44" y1="211.19" x2="425.35" y2="211.19" gradientTransform="translate(68.32 -54.87) rotate(9.94)" gradientUnits="userSpaceOnUse">
      <stop offset="0" stop-color="#b21c0a" stop-opacity=".6"/>
      <stop offset="1" stop-color="#b21c0a" stop-opacity="0"/>
    </linearGradient>
    <linearGradient id="linear-gradient-21" x1="179.31" y1="116.31" x2="179.31" y2="75.86" xlink:href="#linear-gradient-20"/>
    <linearGradient id="linear-gradient-22" x1="206.67" y1="116.31" x2="206.67" y2="292.45" gradientTransform="translate(68.32 -54.87) rotate(9.94)" gradientUnits="userSpaceOnUse">
      <stop offset="0" stop-color="#ec4600"/>
      <stop offset=".79" stop-color="#ec4600" stop-opacity="0"/>
    </linearGradient>
    <linearGradient id="linear-gradient-23" x1="114.79" y1="137.9" x2="114.79" y2="287.28" gradientTransform="translate(68.32 -54.87) rotate(9.94)" gradientUnits="userSpaceOnUse">
      <stop offset="0" stop-color="#ffb900" stop-opacity=".8"/>
      <stop offset=".72" stop-color="#ffb900" stop-opacity="0"/>
    </linearGradient>
    <linearGradient id="linear-gradient-24" x1="234.05" y1="139.41" x2="234.05" y2="294.74" gradientTransform="translate(68.32 -54.87) rotate(9.94)" gradientUnits="userSpaceOnUse">
      <stop offset="0" stop-color="#ffb900" stop-opacity=".8"/>
      <stop offset=".51" stop-color="#ffb900" stop-opacity="0"/>
    </linearGradient>
    <linearGradient id="linear-gradient-25" x1="133" y1="134.98" x2="133" y2="141.46" xlink:href="#linear-gradient-23"/>
    <linearGradient id="linear-gradient-26" x1="53.91" y1="98.32" x2="53.91" y2="260.63" xlink:href="#linear-gradient-23"/>
    <linearGradient id="linear-gradient-27" x1="322.48" y1="157.71" x2="322.48" y2="292.45" xlink:href="#linear-gradient-23"/>
    <linearGradient id="linear-gradient-28" x1="366.22" y1="112.4" x2="366.22" y2="317" xlink:href="#linear-gradient-23"/>
    <linearGradient id="linear-gradient-29" x1="295.98" y1="348.35" x2="29" y2="348.35" gradientTransform="translate(68.32 -54.87) rotate(9.94)" gradientUnits="userSpaceOnUse">
      <stop offset="0" stop-color="#ffb900" stop-opacity=".7"/>
      <stop offset="1" stop-color="#ffb900" stop-opacity=".3"/>
    </linearGradient>
    <linearGradient id="linear-gradient-30" x1="32.18" y1="240.79" x2="100.53" y2="240.79" xlink:href="#linear-gradient-29"/>
    <linearGradient id="linear-gradient-31" x1="131.3" y1="268.88" x2="262.84" y2="268.88" xlink:href="#linear-gradient-29"/>
    <linearGradient id="linear-gradient-32" x1="-15.44" y1="307.52" x2="418.6" y2="231.43" gradientTransform="translate(68.32 -54.87) rotate(9.94)" gradientUnits="userSpaceOnUse">
      <stop offset=".02" stop-color="#f178e0" stop-opacity=".8"/>
      <stop offset="1" stop-color="#f178e0" stop-opacity="0"/>
    </linearGradient>
    <linearGradient id="linear-gradient-33" x1="227.5" y1="134.97" x2="227.5" y2="28.32" gradientTransform="translate(68.32 -54.87) rotate(9.94)" gradientUnits="userSpaceOnUse">
      <stop offset="0" stop-color="#530e01" stop-opacity=".8"/>
      <stop offset="1" stop-color="#530e01" stop-opacity="0"/>
    </linearGradient>
    <linearGradient id="linear-gradient-34" x1="214.9" y1="12.15" x2="214.9" y2="135.18" gradientTransform="translate(68.32 -54.87) rotate(9.94)" gradientUnits="userSpaceOnUse">
      <stop offset=".02" stop-color="#f178e0" stop-opacity=".3"/>
      <stop offset="1" stop-color="#f178e0" stop-opacity="0"/>
    </linearGradient>
    <linearGradient id="linear-gradient-35" x1="138.23" y1="267.33" x2="262.36" y2="267.33" gradientTransform="translate(68.32 -54.87) rotate(9.94)" gradientUnits="userSpaceOnUse">
      <stop offset="0" stop-color="#a24ad5"/>
      <stop offset="1" stop-color="#a24ad5" stop-opacity="0"/>
    </linearGradient>
    <linearGradient id="linear-gradient-36" x1="96.64" y1="242.87" x2="35.38" y2="242.87" xlink:href="#linear-gradient-35"/>
    <linearGradient id="linear-gradient-37" x1="288.03" y1="346.4" x2="29.24" y2="346.4" xlink:href="#linear-gradient-35"/>
    <linearGradient id="linear-gradient-38" x1="81.14" y1="359.49" x2="81.14" y2="332.07" xlink:href="#linear-gradient-35"/>
    <linearGradient id="linear-gradient-39" x1="200.21" y1="382.84" x2="200.21" y2="341.49" xlink:href="#linear-gradient-35"/>
    <linearGradient id="linear-gradient-40" x1="254.02" y1="439.9" x2="180.25" y2="21.56" gradientUnits="userSpaceOnUse">
      <stop offset="0" stop-color="#060002" stop-opacity=".7"/>
      <stop offset=".59" stop-color="#361a51" stop-opacity="0"/>
    </linearGradient>
  </defs>
  <g>
    <path class="cls-28" d="M189.54,61.78s-76.27-16.83-153.3,78.12c-77.02,94.95-7.32,182.16-7.32,182.16,0,0,20.39,100.87,145.18,101.98,0,0,68.24,38.5,141.97-4.72,0,0,69.73-5.08,94.45-71.51,0,0,35.95-17.16,29.34-97.92-6.61-80.77-86.45-168.6-170.4-183.32,0,0-34.05-31.74-79.92-4.78Z"/>
    <g>
      <path class="cls-6" d="M36.24,139.9c-77.02,94.95-7.32,182.16-7.32,182.16C22.22,118.98,209.3,100.43,209.3,100.43c0,0,12.59-5.87,11.51-12.98-3.45-22.59-31.27-25.67-31.27-25.67,0,0-76.27-16.83-153.3,78.12Z"/>
      <path class="cls-26" d="M228.37,110.12l-19.07-9.69S22.22,118.98,28.92,322.06c0,0,20.39,100.87,145.18,101.98,0,0-44.31-189.29,54.26-313.92Z"/>
      <g>
        <path class="cls-30" d="M113.07,413.74c1.91.7,3.84,1.37,5.83,2.01-1.99-.64-3.93-1.31-5.83-2.01Z"/>
        <path class="cls-43" d="M89.91,402.83c1.51.89,3.05,1.76,4.63,2.62-1.58-.85-3.12-1.73-4.63-2.62Z"/>
        <path class="cls-12" d="M94.86,405.62c1.65.88,3.35,1.74,5.08,2.57-1.73-.83-3.43-1.69-5.08-2.57Z"/>
        <path class="cls-8" d="M84.58,399.53c1.49.98,3.02,1.93,4.59,2.87-1.57-.94-3.1-1.89-4.59-2.87Z"/>
        <path class="cls-27" d="M140.98,421.13c2.24.39,4.53.74,6.86,1.06-2.33-.32-4.62-.67-6.86-1.06Z"/>
        <path class="cls-34" d="M119.5,415.93c1.84.58,3.72,1.13,5.64,1.66-1.91-.53-3.8-1.08-5.64-1.66Z"/>
        <path class="cls-31" d="M126.4,417.93c2.06.55,4.16,1.07,6.31,1.55-2.15-.48-4.25-1-6.31-1.55Z"/>
        <path class="cls-42" d="M100.93,408.67c3.49,1.65,7.14,3.2,10.97,4.63-3.82-1.43-7.48-2.98-10.97-4.63Z"/>
        <path class="cls-11" d="M79.94,396.34c1.35.97,2.73,1.92,4.14,2.85-1.41-.94-2.79-1.89-4.14-2.85Z"/>
        <path class="cls-2" d="M236.6,106.52l-8.24,3.61c-98.57,124.63-54.26,313.92-54.26,313.92,0,0,52.04,29.35,114.33,8.01l27.64-12.73s59.07-177.31-79.47-312.8Z"/>
        <path class="cls-17" d="M174.1,424.04c-2.7-.02-5.34-.11-7.95-.23,2.61.12,5.25.2,7.95.23Z"/>
        <path class="cls-25" d="M164.36,423.73c-2.54-.13-5.05-.3-7.5-.52,2.45.22,4.96.38,7.5.52Z"/>
        <path class="cls-10" d="M155.96,423.12c-2.24-.21-4.43-.46-6.59-.73,2.16.28,4.35.52,6.59.73Z"/>
        <path class="cls-20" d="M75.37,392.91c1.35,1.06,2.73,2.11,4.16,3.14-1.42-1.03-2.81-2.08-4.16-3.14Z"/>
        <path class="cls-3" d="M70.93,389.27c1.27,1.09,2.58,2.16,3.92,3.22-1.34-1.06-2.65-2.14-3.92-3.22Z"/>
        <path class="cls-37" d="M133.85,419.73c1.94.42,3.91.82,5.91,1.18-2.01-.36-3.98-.76-5.91-1.18Z"/>
      </g>
      <path class="cls-4" d="M235.38,98.66l1.23,7.86c138.54,135.49,79.47,312.8,79.47,312.8,0,0,69.73-5.08,94.45-71.51,0,0,9.92-194.78-175.15-249.15Z"/>
      <path class="cls-24" d="M439.87,249.88c-6.61-80.77-86.45-168.6-170.4-183.32,0,0-21.88.62-19.1,36.95l.02.03c169.49,60.21,160.14,244.26,160.14,244.26,0,0,35.95-17.16,29.34-97.92Z"/>
      <path class="cls-7" d="M220.8,87.45c.13.84.05,1.67-.16,2.47l29.53,5.18c.95-28,19.29-28.54,19.29-28.54,0,0-34.05-31.74-79.92-4.78,0,0,27.82,3.08,31.27,25.67Z"/>
    </g>
    <path class="cls-21" d="M86.05,159.66s50.27-42.22,120.15-50.35c0,0,4.93,3.94,10.23,4.87,0,0-39.86,65.6-46.27,140.48,0,0,18.71-99.16,62.27-139.21,0,0,73.53,43.3,93.7,171.81,0,0-5.65-103.69-74.31-174.95,0,0,79.95,19.53,132.01,111.08,0,0-25.84-84.01-132.04-128.01l-44.02,3.33s-70.6,5.18-121.73,60.94Z"/>
    <g>
      <path class="cls-18" d="M86.05,159.66s52.33-43.01,120.15-50.35l10.23,4.87s-40.32,77.91-46.27,140.48c0,0-5.54-89.18-32.7-76.25-27.17,12.93-51.41-18.75-51.41-18.75Z"/>
      <path class="cls-35" d="M173.31,240.41s14.32-77.64,59.12-124.96c0,0,71.27,35.63,93.98,174.18,0,0-26.79-95.87-65.93-123.12-39.15-27.25-87.17,73.89-87.17,73.89Z"/>
      <g>
        <path class="cls-19" d="M168.45,106.31c8.21-1.92,14.01-4.13,14.01-4.13,0,0-5.52,1.34-14.01,4.13Z"/>
        <path class="cls-36" d="M168.45,106.31c-11.38,2.67-27.41,4.78-39.16-.29-20.23-8.74,32.74-44.63,32.74-44.63-29.04,3.25-77.26,18.69-125.79,78.51-10.42,12.84-18.13,25.54-23.72,37.91l-7.55,20.74s-.02.07-.03.1c.44-.74,41.99-69.64,68.94-80.41,27.1-10.82,12.16,41.43,12.16,41.43,17.86-28.96,60.26-46.08,82.4-53.35Z"/>
      </g>
      <path class="cls-32" d="M326.13,287.26s-4.12-61.95-31.57-113.26c0,0,47.56,53.94,51.02,34.17,3.47-19.77-24.41-58.58-24.41-58.58,0,0,55.8,32.63,78.98,118.37,0,0-42.2-72.41-74.03,19.3Z"/>
      <path class="cls-41" d="M439.87,249.88c-4.11-50.25-36.58-103.23-80.75-139.64.74.83,24.85,28.09,32.08,51.62,7.35,23.9-48.41-3.91-48.41-3.91,33.16,29.92,50.65,88.65,50.65,88.65,0,0-2.92-44.6,19.63-38.34,22.55,6.26,14.15,121.63,14.15,121.64,8.34-14.27,16.02-38.88,12.65-80.02Z"/>
    </g>
    <g>
      <path class="cls-40" d="M216.02,323.25s66.83-19.36,91.97-31.11c0,0-54.7,117.32-163.77,85.89-114.3-32.93-102.88-120.61-95.83-149.48,0,0,5.79,73.32,32.48,96.07,26.69,22.75,110.51,38.22,143.51,23.24,33.01-14.98-8.36-24.61-8.36-24.61Z"/>
      <path class="cls-39" d="M90.76,175.38l-9.59-38.37s-29.14,32.39-21.72,71.23c7.19,37.61,40.61,44.74,57.35,42.5l-14.52-36.92s-21.15,8.95-28.91-12.6c-7.76-21.55,17.39-25.83,17.39-25.83Z"/>
      <path class="cls-13" d="M197.74,244.69l-51.34,15.47s24.18,34.57,78.56,21.03c52.28-13.01,62.41-49.26,62.46-68.93l-39.79,46.28-42.75,11.87-18.69-5.3,11.54-20.43Z"/>
    </g>
    <path class="cls-23" d="M189.54,61.78s-76.27-16.83-153.3,78.12c-77.02,94.95-7.32,182.16-7.32,182.16,0,0,20.39,100.87,145.18,101.98,0,0,68.24,38.5,141.97-4.72,0,0,69.73-5.08,94.45-71.51,0,0,35.95-17.16,29.34-97.92-6.61-80.77-86.45-168.6-170.4-183.32,0,0-34.05-31.74-79.92-4.78Z"/>
  </g>
  <g>
    <path class="cls-15" d="M208.46,77.21s-8.06,14.74.83,23.22c0,0-2.26,7.97,19.07,9.69,0,0,18.35,5.55,23.74-10.39,0,0,4.4-76.11,52.85-61.27,0,0,21.94,6.44,23.7-13.44,0,0,5.89-17.14-11.99-23.73-17.88-6.6-85.9,11.19-108.21,75.93Z"/>
    <path class="cls-5" d="M252.11,99.73s4.4-76.11,52.85-61.27c0,0,21.94,6.44,23.7-13.44,0,0,.72-2.1.89-5.11,0,0-95.62-27.07-101.19,90.21,0,0,18.35,5.55,23.74-10.39Z"/>
    <path class="cls-14" d="M208.46,77.21s-8.06,14.74.83,23.22c0,0-2.26,7.97,19.07,9.69,0,0,18.35,5.55,23.74-10.39,0,0,4.4-76.11,52.85-61.27,0,0,21.94,6.44,23.7-13.44,0,0,5.89-17.14-11.99-23.73-17.88-6.6-85.9,11.19-108.21,75.93Z"/>
  </g>
  <g>
    <g>
      <path class="cls-9" d="M287.42,212.26l-51.95,18.78c1.23,3.25,1.64,6.86,1,10.53-1.91,10.92-12.32,18.22-23.24,16.31-7.43-1.3-13.18-6.54-15.49-13.19l-44.41,16.06s19.89,32.98,78.55,14.74c55.51-17.26,55.54-63.23,55.54-63.23Z"/>
      <g>
        <path class="cls-38" d="M210.2,257.1h0c-5.95-2.04-10.48-6.69-12.47-12.41l-12.55,4.54,25.01,7.87Z"/>
        <g>
          <path class="cls-38" d="M287.42,212.26l-11.71,4.23c-3.91,13.49-15.24,34.81-48.05,45.01-33.41,10.39-52.87,2.37-62.69-4.97l-11.64,4.21s19.89,32.98,78.55,14.74c55.51-17.26,55.54-63.23,55.54-63.23Z"/>
          <path class="cls-22" d="M287.42,212.26l-11.71,4.23c-3.91,13.49-15.24,34.81-48.05,45.01-33.41,10.39-52.87,2.37-62.69-4.97l-11.64,4.21s19.89,32.98,78.55,14.74c55.51-17.26,55.54-63.23,55.54-63.23Z"/>
        </g>
      </g>
    </g>
    <g>
      <path class="cls-9" d="M93.59,214.22c-10.92-1.91-18.22-12.32-16.31-23.24,1.32-7.54,6.69-13.35,13.48-15.6l-9.57-31.93s-28.07,33.44-17.63,69.31c10.44,35.87,49.48,36.94,49.48,36.94l-10.76-35.89c-2.75.74-5.7.93-8.69.41Z"/>
      <g>
        <path class="cls-38" d="M73.4,207.66c-6.58-22.6,3.32-44.16,10.35-55.67l-2.56-8.53s-28.07,33.44-17.63,69.31c10.44,35.87,49.48,36.94,49.48,36.94l-2.72-9.08c-11.39-2.59-30.32-10.28-36.92-32.97Z"/>
        <path class="cls-33" d="M73.4,207.66c-6.58-22.6,3.32-44.16,10.35-55.67l-2.56-8.53s-28.07,33.44-17.63,69.31c10.44,35.87,49.48,36.94,49.48,36.94l-2.72-9.08c-11.39-2.59-30.32-10.28-36.92-32.97Z"/>
      </g>
    </g>
    <g>
      <path class="cls-9" d="M216.02,323.25c-18.51,28.69-46.36,29.63-46.36,29.63l14.31-27.58c-48.07-.72-80.1-19.56-100.89-40.44l-9.53,26.17c-7.91-11.27-7.07-33.36-6-44.69-14.25-20.19-19.15-37.79-19.15-37.79,0,0-23.8,98.48,82.59,140.97,106.39,42.49,167.62-69.91,167.62-69.91-31.09,12.94-58.47,20.34-82.58,23.63Z"/>
      <g>
        <g>
          <path class="cls-38" d="M295.18,301.01c-19.85,28.06-75.66,90.87-159.56,57.36-77.88-31.11-85.99-92.21-84.75-122.72-1.74-4.42-2.49-7.09-2.49-7.09,0,0-23.8,98.48,82.59,140.97,106.39,42.49,167.62-69.91,167.62-69.91-1.15.48-2.28.93-3.42,1.39Z"/>
          <path class="cls-44" d="M295.18,301.01c-19.85,28.06-75.66,90.87-159.56,57.36-77.88-31.11-85.99-92.21-84.75-122.72-1.74-4.42-2.49-7.09-2.49-7.09,0,0-23.8,98.48,82.59,140.97,106.39,42.49,167.62-69.91,167.62-69.91-1.15.48-2.28.93-3.42,1.39Z"/>
        </g>
        <g>
          <path class="cls-38" d="M83.07,284.86l-9.53,26.17,23.82-3.13,4.09-7.61c-6.92-4.83-13.02-10.06-18.37-15.43Z"/>
          <path class="cls-1" d="M83.07,284.86l-9.53,26.17,23.82-3.13,4.09-7.61c-6.92-4.83-13.02-10.06-18.37-15.43Z"/>
        </g>
        <g>
          <path class="cls-38" d="M216.02,323.25c-14.07,21.81-33.53,27.58-42.06,29.1l27.74-3.46s17.21-3.33,30.3-28.34c0,0,0,0,0-.01-5.48,1.1-10.81,2.01-15.98,2.71Z"/>
          <path class="cls-29" d="M216.02,323.25c-14.07,21.81-33.53,27.58-42.06,29.1l27.74-3.46s17.21-3.33,30.3-28.34c0,0,0,0,0-.01-5.48,1.1-10.81,2.01-15.98,2.71Z"/>
        </g>
      </g>
    </g>
  </g>
  <path class="cls-16" d="M439.87,249.88c-6.61-80.77-86.45-168.6-170.4-183.32,0,0-2.82-2.62-7.91-5.71,7.4-16.03,20.45-29.42,43.41-22.39,0,0,21.94,6.44,23.7-13.44,0,0,5.89-17.14-11.99-23.73-15.2-5.61-66.58,6.42-95.37,49.88-9.62.83-20.32,3.9-31.76,10.62,0,0-76.27-16.83-153.3,78.12-77.02,94.95-7.32,182.16-7.32,182.16,0,0,20.39,100.87,145.18,101.98,0,0,68.24,38.5,141.97-4.72,0,0,69.73-5.08,94.45-71.51,0,0,35.95-17.16,29.34-97.92Z"/>
</svg>