<?xml version="1.0" encoding="UTF-8"?>
<svg id="Capa_1" data-name="Capa 1" xmlns="http://www.w3.org/2000/svg" xmlns:xlink="http://www.w3.org/1999/xlink" viewBox="0 0 379.91 383.19">
  <defs>
    <style>
      .cls-1 {
        fill: url(#linear-gradient-38);
      }

      .cls-1, .cls-2, .cls-3, .cls-4, .cls-5, .cls-6, .cls-7, .cls-8, .cls-9, .cls-10, .cls-11, .cls-12, .cls-13, .cls-14, .cls-15, .cls-16, .cls-17, .cls-18, .cls-19, .cls-20, .cls-21, .cls-22, .cls-23, .cls-24, .cls-25, .cls-26, .cls-27, .cls-28, .cls-29, .cls-30, .cls-31, .cls-32, .cls-33, .cls-34, .cls-35, .cls-36, .cls-37, .cls-38, .cls-39, .cls-40, .cls-41, .cls-42, .cls-43, .cls-44, .cls-45, .cls-46 {
        stroke-width: 0px;
      }

      .cls-2 {
        fill: url(#linear-gradient-12);
      }

      .cls-3 {
        fill: url(#linear-gradient-17);
      }

      .cls-4 {
        fill: url(#linear-gradient-19);
      }

      .cls-5 {
        fill: url(#linear-gradient-33);
      }

      .cls-6 {
        fill: url(#linear-gradient);
      }

      .cls-7 {
        fill: url(#linear-gradient-21);
      }

      .cls-8 {
        fill: url(#linear-gradient-6);
      }

      .cls-9 {
        fill: #331857;
      }

      .cls-10 {
        fill: url(#linear-gradient-42);
      }

      .cls-11 {
        fill: url(#linear-gradient-15);
      }

      .cls-12 {
        fill: url(#linear-gradient-11);
      }

      .cls-13 {
        fill: url(#linear-gradient-5);
      }

      .cls-14 {
        fill: url(#linear-gradient-31);
      }

      .cls-15 {
        fill: url(#linear-gradient-34);
      }

      .cls-16 {
        fill: #801900;
      }

      .cls-17 {
        fill: url(#linear-gradient-41);
      }

      .cls-18 {
        fill: url(#linear-gradient-40);
      }

      .cls-19 {
        fill: url(#linear-gradient-13);
      }

      .cls-20 {
        fill: url(#linear-gradient-23);
      }

      .cls-21 {
        fill: url(#linear-gradient-25);
      }

      .cls-22 {
        fill: url(#linear-gradient-16);
      }

      .cls-23 {
        fill: url(#linear-gradient-22);
      }

      .cls-24 {
        fill: url(#linear-gradient-35);
      }

      .cls-25 {
        fill: url(#linear-gradient-32);
      }

      .cls-26 {
        fill: url(#linear-gradient-20);
      }

      .cls-27 {
        fill: url(#linear-gradient-14);
      }

      .cls-28 {
        fill: url(#linear-gradient-2);
      }

      .cls-29 {
        fill: url(#linear-gradient-7);
      }

      .cls-30 {
        fill: #ff8900;
      }

      .cls-31 {
        fill: url(#linear-gradient-39);
      }

      .cls-32 {
        fill: url(#linear-gradient-3);
      }

      .cls-33 {
        fill: url(#linear-gradient-9);
      }

      .cls-34 {
        fill: url(#linear-gradient-27);
      }

      .cls-35 {
        fill: url(#linear-gradient-36);
      }

      .cls-36 {
        fill: url(#linear-gradient-8);
      }

      .cls-37 {
        fill: url(#linear-gradient-24);
      }

      .cls-38 {
        fill: url(#linear-gradient-26);
      }

      .cls-39 {
        fill: url(#linear-gradient-18);
      }

      .cls-40 {
        fill: #6142a1;
      }

      .cls-41 {
        fill: url(#linear-gradient-30);
      }

      .cls-42 {
        fill: url(#linear-gradient-29);
      }

      .cls-43 {
        fill: url(#linear-gradient-28);
      }

      .cls-44 {
        fill: url(#linear-gradient-10);
      }

      .cls-45 {
        fill: url(#linear-gradient-4);
      }

      .cls-46 {
        fill: url(#linear-gradient-37);
      }
    </style>
    <linearGradient id="linear-gradient" x1="-519.77" y1="96.41" x2="-602.13" y2="48.86" gradientTransform="translate(618.06 81.61) rotate(-2.88)" gradientUnits="userSpaceOnUse">
      <stop offset="0" stop-color="#b21c0a" stop-opacity=".7"/>
      <stop offset="1" stop-color="#b21c0a" stop-opacity="0"/>
    </linearGradient>
    <linearGradient id="linear-gradient-2" x1="-398.37" y1="188.05" x2="-574.42" y2="86.41" gradientTransform="translate(618.06 81.61) rotate(-2.88)" gradientUnits="userSpaceOnUse">
      <stop offset="0" stop-color="#b21c0a" stop-opacity=".7"/>
      <stop offset=".63" stop-color="#b21c0a" stop-opacity="0"/>
    </linearGradient>
    <linearGradient id="linear-gradient-3" x1="-496.38" y1="276.02" x2="-501.58" y2="276.02" xlink:href="#linear-gradient"/>
    <linearGradient id="linear-gradient-4" x1="-518.38" y1="270.61" x2="-522.66" y2="270.61" xlink:href="#linear-gradient"/>
    <linearGradient id="linear-gradient-5" x1="-513.44" y1="272.17" x2="-518.09" y2="272.17" xlink:href="#linear-gradient"/>
    <linearGradient id="linear-gradient-6" x1="-523.35" y1="268.72" x2="-527.63" y2="268.72" xlink:href="#linear-gradient"/>
    <linearGradient id="linear-gradient-7" x1="-471.09" y1="277.65" x2="-477.02" y2="277.65" xlink:href="#linear-gradient"/>
    <linearGradient id="linear-gradient-8" x1="-490.86" y1="276.78" x2="-495.85" y2="276.78" xlink:href="#linear-gradient"/>
    <linearGradient id="linear-gradient-9" x1="-484.21" y1="277.35" x2="-489.75" y2="277.35" xlink:href="#linear-gradient"/>
    <linearGradient id="linear-gradient-10" x1="-502.63" y1="274.27" x2="-512.53" y2="274.27" xlink:href="#linear-gradient"/>
    <linearGradient id="linear-gradient-11" x1="-528.1" y1="266.75" x2="-532.01" y2="266.75" xlink:href="#linear-gradient"/>
    <linearGradient id="linear-gradient-12" x1="-328.48" y1="139.77" x2="-477.89" y2="139.77" xlink:href="#linear-gradient"/>
    <linearGradient id="linear-gradient-13" x1="-448.73" y1="275.76" x2="-455.45" y2="275.76" xlink:href="#linear-gradient"/>
    <linearGradient id="linear-gradient-14" x1="-456.97" y1="276.78" x2="-463.35" y2="276.78" xlink:href="#linear-gradient"/>
    <linearGradient id="linear-gradient-15" x1="-464.13" y1="277.35" x2="-469.78" y2="277.35" xlink:href="#linear-gradient"/>
    <linearGradient id="linear-gradient-16" x1="-532.4" y1="264.66" x2="-536.36" y2="264.66" xlink:href="#linear-gradient"/>
    <linearGradient id="linear-gradient-17" x1="-536.86" y1="262.31" x2="-540.62" y2="262.31" xlink:href="#linear-gradient"/>
    <linearGradient id="linear-gradient-18" x1="-478.07" y1="277.64" x2="-483.22" y2="277.64" xlink:href="#linear-gradient"/>
    <linearGradient id="linear-gradient-19" x1="-279.85" y1="224.64" x2="-421.67" y2="-21" xlink:href="#linear-gradient"/>
    <linearGradient id="linear-gradient-20" x1="-433.75" y1="68.42" x2="-245.12" y2="68.42" gradientTransform="translate(618.06 81.61) rotate(-2.88)" gradientUnits="userSpaceOnUse">
      <stop offset="0" stop-color="#b21c0a" stop-opacity=".6"/>
      <stop offset="1" stop-color="#b21c0a" stop-opacity="0"/>
    </linearGradient>
    <linearGradient id="linear-gradient-21" x1="-455.21" y1="-12.59" x2="-455.21" y2="-47.13" xlink:href="#linear-gradient-20"/>
    <linearGradient id="linear-gradient-22" x1="-431.85" y1="-12.6" x2="-431.85" y2="137.81" gradientTransform="translate(618.06 81.61) rotate(-2.88)" gradientUnits="userSpaceOnUse">
      <stop offset="0" stop-color="#ec4600"/>
      <stop offset=".79" stop-color="#ec4600" stop-opacity="0"/>
    </linearGradient>
    <linearGradient id="linear-gradient-23" x1="-510.3" y1="5.84" x2="-510.3" y2="133.4" gradientTransform="translate(618.06 81.61) rotate(-2.88)" gradientUnits="userSpaceOnUse">
      <stop offset="0" stop-color="#ffb900" stop-opacity=".8"/>
      <stop offset=".72" stop-color="#ffb900" stop-opacity="0"/>
    </linearGradient>
    <linearGradient id="linear-gradient-24" x1="-408.46" y1="7.13" x2="-408.46" y2="139.77" gradientTransform="translate(618.06 81.61) rotate(-2.88)" gradientUnits="userSpaceOnUse">
      <stop offset="0" stop-color="#ffb900" stop-opacity=".8"/>
      <stop offset=".51" stop-color="#ffb900" stop-opacity="0"/>
    </linearGradient>
    <linearGradient id="linear-gradient-25" x1="-494.75" y1="3.35" x2="-494.75" y2="8.89" xlink:href="#linear-gradient-23"/>
    <linearGradient id="linear-gradient-26" x1="-562.29" y1="-27.95" x2="-562.29" y2="110.65" xlink:href="#linear-gradient-23"/>
    <linearGradient id="linear-gradient-27" x1="-332.96" y1="22.76" x2="-332.96" y2="137.81" xlink:href="#linear-gradient-23"/>
    <linearGradient id="linear-gradient-28" x1="-295.61" y1="-15.93" x2="-295.61" y2="158.77" xlink:href="#linear-gradient-23"/>
    <linearGradient id="linear-gradient-29" x1="-355.58" y1="185.55" x2="-583.55" y2="185.55" gradientTransform="translate(618.06 81.61) rotate(-2.88)" gradientUnits="userSpaceOnUse">
      <stop offset="0" stop-color="#ffb900" stop-opacity=".7"/>
      <stop offset="1" stop-color="#ffb900" stop-opacity=".3"/>
    </linearGradient>
    <linearGradient id="linear-gradient-30" x1="656.67" y1="211.46" x2="741.48" y2="211.46" gradientTransform="translate(862.2 -32.44) rotate(175.77) scale(1 -1)" xlink:href="#linear-gradient-29"/>
    <linearGradient id="linear-gradient-31" x1="782.63" y1="176.57" x2="836.78" y2="176.57" gradientTransform="translate(862.2 -32.44) rotate(175.77) scale(1 -1)" xlink:href="#linear-gradient-29"/>
    <linearGradient id="linear-gradient-32" x1="760.26" y1="241.69" x2="779.51" y2="241.69" gradientTransform="translate(862.2 -32.44) rotate(175.77) scale(1 -1)" xlink:href="#linear-gradient-29"/>
    <linearGradient id="linear-gradient-33" x1="-434.96" y1="-47.13" x2="-434.96" y2="280.54" gradientTransform="translate(618.06 81.61) rotate(-2.88)" gradientUnits="userSpaceOnUse">
      <stop offset=".02" stop-color="#f178e0" stop-opacity=".7"/>
      <stop offset="1" stop-color="#f178e0" stop-opacity="0"/>
    </linearGradient>
    <linearGradient id="linear-gradient-34" x1="-414.06" y1="3.35" x2="-414.06" y2="-87.73" gradientTransform="translate(618.06 81.61) rotate(-2.88)" gradientUnits="userSpaceOnUse">
      <stop offset="0" stop-color="#530e01" stop-opacity=".8"/>
      <stop offset="1" stop-color="#530e01" stop-opacity="0"/>
    </linearGradient>
    <linearGradient id="linear-gradient-35" x1="-424.82" y1="-101.53" x2="-424.82" y2="3.52" gradientTransform="translate(618.06 81.61) rotate(-2.88)" gradientUnits="userSpaceOnUse">
      <stop offset=".02" stop-color="#f178e0" stop-opacity=".3"/>
      <stop offset="1" stop-color="#f178e0" stop-opacity="0"/>
    </linearGradient>
    <linearGradient id="linear-gradient-36" x1="-362.37" y1="183.88" x2="-583.34" y2="183.88" gradientTransform="translate(618.06 81.61) rotate(-2.88)" gradientUnits="userSpaceOnUse">
      <stop offset="0" stop-color="#a24ad5"/>
      <stop offset="1" stop-color="#a24ad5" stop-opacity="0"/>
    </linearGradient>
    <linearGradient id="linear-gradient-37" x1="-539.03" y1="195.06" x2="-539.03" y2="171.64" xlink:href="#linear-gradient-36"/>
    <linearGradient id="linear-gradient-38" x1="-437.36" y1="214.99" x2="-437.36" y2="179.68" xlink:href="#linear-gradient-36"/>
    <linearGradient id="linear-gradient-39" x1="791.17" y1="195.89" x2="837.53" y2="169.13" gradientTransform="translate(862.2 -32.44) rotate(175.77) scale(1 -1)" xlink:href="#linear-gradient-36"/>
    <linearGradient id="linear-gradient-40" x1="667.61" y1="242.14" x2="736.81" y2="202.19" gradientTransform="translate(862.2 -32.44) rotate(175.77) scale(1 -1)" xlink:href="#linear-gradient-36"/>
    <linearGradient id="linear-gradient-41" x1="761.54" y1="249.33" x2="779.17" y2="239.15" gradientTransform="translate(862.2 -32.44) rotate(175.77) scale(1 -1)" xlink:href="#linear-gradient-36"/>
    <linearGradient id="linear-gradient-42" x1="0" y1="191.59" x2="379.91" y2="191.59" gradientUnits="userSpaceOnUse">
      <stop offset="0" stop-color="#060002" stop-opacity=".7"/>
      <stop offset=".59" stop-color="#361a51" stop-opacity="0"/>
    </linearGradient>
  </defs>
  <g>
    <g>
      <path class="cls-30" d="M127.88,74.58s-66.7.45-112.82,94.1c-46.13,93.66,28.44,153.05,28.44,153.05,0,0,36.1,80.12,140.21,57.38,0,0,64.12,19.12,117.31-30.85,0,0,57.09-17.45,65.08-77.45,0,0,26.68-21.1,5.86-87.09-20.82-65.99-103.95-123.99-176.63-120.32,0,0-34.37-19.97-67.45,11.17Z"/>
      <g>
        <path class="cls-6" d="M15.06,168.69c-46.13,93.66,28.44,153.05,28.44,153.05C-.58,153.93,151.66,103.02,151.66,103.02c0,0,9.37-7.27,7.12-12.99-7.15-18.15-30.9-15.45-30.9-15.45,0,0-66.7.45-112.82,94.1Z"/>
        <path class="cls-28" d="M169.38,107.47l-17.71-4.45S-.58,153.93,43.5,321.74c0,0,36.1,80.12,140.21,57.38,0,0-72.78-149.2-14.34-271.65Z"/>
        <g>
          <path class="cls-32" d="M130.95,382.12c1.72.22,3.46.41,5.23.57-1.78-.15-3.52-.35-5.23-.57Z"/>
          <path class="cls-45" d="M109.6,377.43c1.43.46,2.87.89,4.35,1.3-1.48-.41-2.93-.84-4.35-1.3Z"/>
          <path class="cls-13" d="M114.25,378.81c1.54.42,3.12.81,4.71,1.18-1.6-.37-3.17-.76-4.71-1.18Z"/>
          <path class="cls-8" d="M104.53,375.69c1.43.53,2.88,1.04,4.37,1.52-1.48-.48-2.94-.99-4.37-1.52Z"/>
          <path class="cls-29" d="M155.58,382.98c1.94-.1,3.91-.24,5.91-.42-2,.18-3.97.32-5.91.42Z"/>
          <path class="cls-36" d="M136.71,382.72c1.64.13,3.31.24,5.01.31-1.69-.08-3.36-.18-5.01-.31Z"/>
          <path class="cls-33" d="M142.84,383.08c1.82.07,3.67.1,5.55.1-1.88,0-3.73-.03-5.55-.1Z"/>
          <path class="cls-44" d="M119.88,380.2c3.22.71,6.55,1.31,10.01,1.78-3.45-.47-6.79-1.07-10.01-1.78Z"/>
          <path class="cls-12" d="M100.06,373.92c1.3.55,2.63,1.08,3.99,1.59-1.35-.51-2.68-1.04-3.99-1.59Z"/>
          <path class="cls-2" d="M175.55,102.9l-6.17,4.56c-58.44,122.45,14.34,271.65,14.34,271.65,0,0,48.9,14.57,96.71-15.01l20.6-15.84s15.56-158.83-125.47-245.37Z"/>
          <path class="cls-19" d="M183.71,379.12c-2.26.49-4.47.92-6.66,1.32,2.19-.4,4.41-.83,6.66-1.32Z"/>
          <path class="cls-27" d="M175.54,380.71c-2.14.37-4.26.71-6.34.99,2.08-.28,4.2-.62,6.34-.99Z"/>
          <path class="cls-11" d="M168.43,381.8c-1.9.25-3.77.46-5.63.64,1.85-.18,3.72-.39,5.63-.64Z"/>
          <path class="cls-22" d="M95.6,371.92c1.32.63,2.67,1.24,4.06,1.82-1.38-.59-2.73-1.2-4.06-1.82Z"/>
          <path class="cls-3" d="M91.22,369.74c1.26.67,2.55,1.31,3.87,1.94-1.32-.63-2.61-1.28-3.87-1.94Z"/>
          <path class="cls-39" d="M149.38,383.17c1.69-.02,3.41-.06,5.15-.14-1.74.08-3.46.12-5.15.14Z"/>
        </g>
        <path class="cls-4" d="M173.04,96.6l2.51,6.31c141.04,86.54,125.47,245.37,125.47,245.37,0,0,57.09-17.45,65.08-77.45,0,0-28.67-164.05-193.07-174.23Z"/>
        <path class="cls-26" d="M371.97,183.73c-20.81-65.99-103.95-123.99-176.63-120.32,0,0-18.1,4.66-8.89,34.39l.02.02c152.53,17.99,179.64,173.01,179.64,173.01,0,0,26.68-21.1,5.86-87.09Z"/>
        <path class="cls-7" d="M158.78,90.03c.27.68.36,1.38.34,2.09l25.57-1.29c-4.52-23.49,10.65-27.42,10.65-27.42,0,0-34.37-19.97-67.45,11.17,0,0,23.74-2.71,30.9,15.45Z"/>
      </g>
      <path class="cls-23" d="M60.28,175.7s33.85-44.68,90.49-64.7c0,0,4.85,2.35,9.44,2.12,0,0-20.75,62.17-11.89,125.73,0,0-3.22-86.11,25.45-127.71,0,0,69.43,22.11,110.59,125.28,0,0-24.36-85.26-95.04-131.57,0,0,70.27,1.1,130.97,67.46,0,0-37.44-65.05-134.2-81.55l-36.01,11.12s-57.8,17.7-89.8,73.82Z"/>
      <g>
        <path class="cls-20" d="M60.28,175.7s35.42-45.73,90.49-64.7l9.44,2.12s-18.8,72.51-11.89,125.73c0,0-21.52-73.2-41.69-57.29-20.17,15.91-46.36-5.86-46.36-5.86Z"/>
        <path class="cls-37" d="M148.24,226.38s-2.8-67.36,25.53-115.25c0,0,66.09,16.15,111.27,127.2,0,0-40.48-74.74-78.24-90-37.76-15.26-58.57,78.05-58.57,78.05Z"/>
        <g>
          <path class="cls-21" d="M118.77,115.66c6.47-3.16,10.88-6.09,10.88-6.09,0,0-4.34,2.17-10.88,6.09Z"/>
          <path class="cls-38" d="M118.77,115.66c-8.97,4.38-21.91,9.18-32.66,7.18-18.5-3.44,18.8-43.37,18.8-43.37-23.57,8.21-60.79,30.21-89.85,89.22-6.24,12.67-10.26,24.7-12.56,36.06L.15,223.44s0,.06,0,.09c.23-.7,21.76-65.94,42.16-80.02,20.51-14.15,17.98,32.19,17.98,32.19,9.38-27.5,41.44-49.79,58.49-60.04Z"/>
        </g>
        <path class="cls-34" d="M284.36,236.41s-15.18-50.8-47.76-88.31c0,0,49.82,35.89,48.96,18.77-.86-17.12-31.43-44.14-31.43-44.14,0,0,52.65,16.59,88.2,83.58,0,0-48.86-52.29-57.98,30.1Z"/>
        <path class="cls-43" d="M371.97,183.73c-12.95-41.06-50.03-79.01-93.71-100.96.77.55,26.02,18.67,36.5,36.9,10.65,18.51-41.05,5.93-41.05,5.93,33.28,18.62,58.98,64.2,58.98,64.2,0,0-10.89-36.58,9.07-35.64,19.96.94,34.84,98.59,34.84,98.6,4.24-13.46,5.97-35.41-4.64-69.03Z"/>
      </g>
      <g>
        <path class="cls-42" d="M199.5,287.26s51.97-28.79,70.67-43.34c0,0-23.3,108.05-120.07,102.57-101.41-5.75-108.52-80.91-108.13-106.29,0,0,18.72,59.94,45.25,73.83s99.25,10.87,123.89-7.86c24.64-18.73-11.63-18.91-11.63-18.91Z"/>
        <path class="cls-41" d="M138.3,233.09c1.8,24.41,22.2,42.8,45.56,41.07,23.36-1.72,40.83-22.91,39.03-47.32-1.8-24.41-22.2-42.8-45.56-41.07-23.36,1.72-40.83,22.91-39.03,47.32Z"/>
        <path class="cls-14" d="M40.69,205.33c1.31,17.75,14.46,31.24,29.37,30.14,14.91-1.1,25.94-16.38,24.63-34.13-1.31-17.75-14.46-31.24-29.37-30.14-14.91,1.1-25.94,16.38-24.62,34.13Z"/>
        <path class="cls-25" d="M102.6,266.05c.51,6.93,5.22,12.22,10.53,11.83,5.3-.39,9.18-6.32,8.67-13.25-.51-6.93-5.22-12.22-10.53-11.83-5.3.39-9.18,6.32-8.67,13.25Z"/>
      </g>
      <path class="cls-5" d="M127.88,74.58s-66.7.45-112.82,94.1c-46.13,93.66,28.44,153.05,28.44,153.05,0,0,36.1,80.12,140.21,57.38,0,0,64.12,19.12,117.31-30.85,0,0,57.09-17.45,65.08-77.45,0,0,26.68-21.1,5.86-87.09-20.82-65.99-103.95-123.99-176.63-120.32,0,0-34.37-19.97-67.45,11.17Z"/>
    </g>
    <g>
      <path class="cls-16" d="M146.57,83.84s-3.92,13.8,5.1,19.18c0,0-.37,7.06,17.71,4.45,0,0,16.33,1.14,17.8-13.15,0,0-10.77-64.2,32.39-61.03,0,0,19.49,1.2,17.18-15.68,0,0,1.65-15.39-14.48-17.49-16.14-2.1-69.4,25.6-75.7,83.73Z"/>
      <path class="cls-15" d="M187.17,94.32s-10.77-64.2,32.39-61.03c0,0,19.49,1.2,17.18-15.68,0,0,.2-1.88-.23-4.42,0,0-84.75-4.41-67.14,94.29,0,0,16.33,1.14,17.8-13.15Z"/>
      <path class="cls-24" d="M146.57,83.84s-3.92,13.8,5.1,19.18c0,0-.37,7.06,17.71,4.45,0,0,16.33,1.14,17.8-13.15,0,0-10.77-64.2,32.39-61.03,0,0,19.49,1.2,17.18-15.68,0,0,1.65-15.39-14.48-17.49-16.14-2.1-69.4,25.6-75.7,83.73Z"/>
    </g>
    <g>
      <g>
        <path class="cls-9" d="M199.5,287.26c-9.97,27.4-32.98,33.46-32.98,33.46l6.68-25.67c-40.16,8.52-70.4-1.1-91.67-14.54l-2.97,23.6c-8.72-7.89-12.21-26.44-13.47-36.07-15.69-14.1-23.11-27.83-23.11-27.83,0,0-1.14,86.5,95.49,101.71,96.63,15.21,126.31-89.99,126.31-89.99-23.43,16.67-44.82,28.02-64.27,35.34Z"/>
        <g>
          <g>
            <path class="cls-40" d="M261.2,253.73c-11.21,27.12-45.76,90.01-121.97,78.01-70.74-11.13-89.08-60.47-93.83-86.11-2.28-3.35-3.41-5.43-3.41-5.43,0,0-1.14,86.5,95.49,101.71,96.63,15.21,126.31-89.99,126.31-89.99-.87.62-1.72,1.21-2.58,1.81Z"/>
            <path class="cls-35" d="M261.2,253.73c-11.21,27.12-45.76,90.01-121.97,78.01-70.74-11.13-89.08-60.47-93.83-86.11-2.28-3.35-3.41-5.43-3.41-5.43,0,0-1.14,86.5,95.49,101.71,96.63,15.21,126.31-89.99,126.31-89.99-.87.62-1.72,1.21-2.58,1.81Z"/>
          </g>
          <g>
            <path class="cls-40" d="M81.54,280.5l-2.97,23.6,19.23-7.12,1.96-7.11c-6.68-2.71-12.75-5.9-18.22-9.36Z"/>
            <path class="cls-46" d="M81.54,280.5l-2.97,23.6,19.23-7.12,1.96-7.11c-6.68-2.71-12.75-5.9-18.22-9.36Z"/>
          </g>
          <g>
            <path class="cls-40" d="M199.5,287.26c-7.58,20.83-22.69,29.32-29.5,32.2l22.44-8.14s13.7-6.03,19.85-29.34c0,0,0,0,0-.01-4.35,1.95-8.62,3.72-12.79,5.29Z"/>
            <path class="cls-1" d="M199.5,287.26c-7.58,20.83-22.69,29.32-29.5,32.2l22.44-8.14s13.7-6.03,19.85-29.34c0,0,0,0,0-.01-4.35,1.95-8.62,3.72-12.79,5.29Z"/>
          </g>
        </g>
      </g>
      <g>
        <path class="cls-9" d="M40.6,206.33c1.24,16.81,13.7,29.6,27.82,28.55,14.12-1.04,24.57-15.52,23.33-32.33-1.24-16.81-13.7-29.6-27.82-28.55-14.12,1.04-24.57,15.52-23.33,32.33Z"/>
        <g>
          <path class="cls-40" d="M52.63,178.16c-3.93,5.77-6.06,13.31-5.46,21.4,1.24,16.81,13.7,29.6,27.82,28.55,4.16-.31,7.99-1.81,11.3-4.16-4.23,6.22-10.54,10.39-17.87,10.93-14.12,1.04-26.58-11.74-27.82-28.55-.88-11.86,4.08-22.53,12.02-28.17Z"/>
          <path class="cls-31" d="M52.63,178.16c-3.93,5.77-6.06,13.31-5.46,21.4,1.24,16.81,13.7,29.6,27.82,28.55,4.16-.31,7.99-1.81,11.3-4.16-4.23,6.22-10.54,10.39-17.87,10.93-14.12,1.04-26.58-11.74-27.82-28.55-.88-11.86,4.08-22.53,12.02-28.17Z"/>
        </g>
      </g>
      <g>
        <path class="cls-9" d="M143.54,234.18c1.69,22.93,20.85,40.2,42.79,38.58,21.94-1.62,38.36-21.52,36.66-44.45-1.69-22.93-20.85-40.2-42.79-38.58-21.94,1.62-38.36,21.52-36.66,44.45Z"/>
        <g>
          <path class="cls-40" d="M159.18,197.97c-5.59,7.76-8.62,17.57-7.85,28.05,1.69,22.93,20.85,40.2,42.79,38.58,7.94-.59,15.13-3.59,21.02-8.23-6.64,9.22-16.9,15.52-28.81,16.4-21.94,1.62-41.1-15.65-42.79-38.58-1.08-14.64,5.24-28.01,15.64-36.21Z"/>
          <path class="cls-18" d="M159.18,197.97c-5.59,7.76-8.62,17.57-7.85,28.05,1.69,22.93,20.85,40.2,42.79,38.58,7.94-.59,15.13-3.59,21.02-8.23-6.64,9.22-16.9,15.52-28.81,16.4-21.94,1.62-41.1-15.65-42.79-38.58-1.08-14.64,5.24-28.01,15.64-36.21Z"/>
        </g>
      </g>
      <g>
        <path class="cls-9" d="M103.54,266.55c.5,6.77,5.11,11.95,10.29,11.57,5.18-.38,8.98-6.18,8.48-12.96-.5-6.77-5.11-11.95-10.29-11.57-5.19.38-8.98,6.18-8.48,12.96Z"/>
        <g>
          <path class="cls-40" d="M107.66,255.46c-.71,1.91-1.07,4.08-.9,6.39.5,6.77,5.11,11.96,10.29,11.57,1.63-.12,3.1-.82,4.36-1.88-1.38,3.68-4.16,6.31-7.58,6.56-5.18.38-9.79-4.8-10.29-11.57-.34-4.64,1.36-8.78,4.12-11.08Z"/>
          <path class="cls-17" d="M107.66,255.46c-.71,1.91-1.07,4.08-.9,6.39.5,6.77,5.11,11.96,10.29,11.57,1.63-.12,3.1-.82,4.36-1.88-1.38,3.68-4.16,6.31-7.58,6.56-5.18.38-9.79-4.8-10.29-11.57-.34-4.64,1.36-8.78,4.12-11.08Z"/>
        </g>
      </g>
    </g>
  </g>
  <path class="cls-10" d="M371.97,183.73c-20.82-65.99-103.95-123.99-176.63-120.32,0,0-2.84-1.65-7.67-3.26,3.12-14.75,11.45-28.37,31.9-26.87,0,0,19.49,1.2,17.18-15.68,0,0,1.65-15.39-14.48-17.49-13.71-1.79-54.22,17.97-69.95,59.61-7.86,2.51-16.18,7.1-24.43,14.86,0,0-66.7.45-112.82,94.1-46.13,93.66,28.44,153.05,28.44,153.05,0,0,36.1,80.12,140.21,57.38,0,0,64.12,19.12,117.31-30.85,0,0,57.09-17.45,65.08-77.45,0,0,26.68-21.1,5.86-87.09Z"/>
</svg>