<?xml version="1.0" encoding="UTF-8"?>
<svg xmlns="http://www.w3.org/2000/svg" xmlns:xlink="http://www.w3.org/1999/xlink" viewBox="0 0 1107.29 620.69">
  <defs>
    <style>
      .cls-1 {
        fill: url(#Degradado_sin_nombre_37-4);
      }

      .cls-1, .cls-2, .cls-3, .cls-4, .cls-5, .cls-6, .cls-7, .cls-8, .cls-9, .cls-10, .cls-11, .cls-12, .cls-13, .cls-14, .cls-15, .cls-16, .cls-17, .cls-18, .cls-19, .cls-20, .cls-21, .cls-22, .cls-23, .cls-24, .cls-25, .cls-26, .cls-27, .cls-28, .cls-29, .cls-30, .cls-31, .cls-32 {
        stroke-width: 0px;
      }

      .cls-1, .cls-4, .cls-5, .cls-6, .cls-10, .cls-20, .cls-21, .cls-23, .cls-24, .cls-33, .cls-29, .cls-30, .cls-31 {
        mix-blend-mode: screen;
      }

      .cls-1, .cls-23 {
        opacity: .2;
      }

      .cls-2 {
        fill: #1e1e1e;
      }

      .cls-3 {
        fill: #000;
      }

      .cls-4 {
        fill: url(#Degradado_sin_nombre_5-4);
      }

      .cls-4, .cls-5, .cls-10, .cls-20, .cls-21, .cls-24, .cls-29, .cls-30 {
        opacity: .28;
      }

      .cls-5 {
        fill: url(#Degradado_sin_nombre_5-3);
      }

      .cls-6 {
        fill: url(#Degradado_sin_nombre_5);
        opacity: .19;
      }

      .cls-7 {
        fill: url(#Degradado_sin_nombre_3);
      }

      .cls-8 {
        fill: #474747;
      }

      .cls-34 {
        isolation: isolate;
      }

      .cls-9 {
        fill: #211917;
      }

      .cls-10 {
        fill: url(#Degradado_sin_nombre_5-6);
      }

      .cls-11 {
        fill: #0c0c0c;
      }

      .cls-12 {
        fill: url(#Degradado_sin_nombre_35);
        mix-blend-mode: multiply;
        opacity: .83;
      }

      .cls-13 {
        filter: url(#drop-shadow-2);
      }

      .cls-13, .cls-16, .cls-17, .cls-26 {
        fill: #e2e2e2;
      }

      .cls-14 {
        fill: url(#Degradado_sin_nombre_116);
      }

      .cls-15 {
        fill: url(#Degradado_sin_nombre_3-2);
      }

      .cls-35 {
        fill: none;
        stroke: #000;
        stroke-miterlimit: 10;
        stroke-width: 1.4px;
      }

      .cls-16 {
        filter: url(#drop-shadow-3);
      }

      .cls-17 {
        filter: url(#drop-shadow-4);
      }

      .cls-18 {
        fill: url(#Degradado_sin_nombre_18-3);
      }

      .cls-19 {
        fill: url(#Degradado_sin_nombre_18);
      }

      .cls-20 {
        fill: url(#Degradado_sin_nombre_37-2);
      }

      .cls-21 {
        fill: url(#Degradado_sin_nombre_5-2);
      }

      .cls-22 {
        fill: url(#Degradado_sin_nombre_116-2);
      }

      .cls-23 {
        fill: url(#Degradado_sin_nombre_37-3);
      }

      .cls-24 {
        fill: url(#Degradado_sin_nombre_5-5);
      }

      .cls-33 {
        opacity: .46;
      }

      .cls-25 {
        fill: url(#Degradado_sin_nombre_116-3);
      }

      .cls-26 {
        filter: url(#drop-shadow-1);
      }

      .cls-27 {
        fill: #fff;
      }

      .cls-28 {
        fill: url(#Degradado_sin_nombre_116-4);
      }

      .cls-29 {
        fill: url(#Degradado_sin_nombre_36);
      }

      .cls-30 {
        fill: url(#Degradado_sin_nombre_37);
      }

      .cls-31 {
        fill: url(#Degradado_sin_nombre_39);
        opacity: .14;
      }

      .cls-32 {
        fill: url(#Degradado_sin_nombre_18-2);
      }
    </style>
    <filter id="drop-shadow-1" filterUnits="userSpaceOnUse">
      <feOffset dx="9" dy="9"/>
      <feGaussianBlur result="blur" stdDeviation="9"/>
      <feFlood flood-color="#3d3d3d" flood-opacity=".59"/>
      <feComposite in2="blur" operator="in"/>
      <feComposite in="SourceGraphic"/>
    </filter>
    <filter id="drop-shadow-2" filterUnits="userSpaceOnUse">
      <feOffset dx="9" dy="9"/>
      <feGaussianBlur result="blur-2" stdDeviation="9"/>
      <feFlood flood-color="#3d3d3d" flood-opacity=".59"/>
      <feComposite in2="blur-2" operator="in"/>
      <feComposite in="SourceGraphic"/>
    </filter>
    <filter id="drop-shadow-3" filterUnits="userSpaceOnUse">
      <feOffset dx="9" dy="9"/>
      <feGaussianBlur result="blur-3" stdDeviation="9"/>
      <feFlood flood-color="#3d3d3d" flood-opacity=".59"/>
      <feComposite in2="blur-3" operator="in"/>
      <feComposite in="SourceGraphic"/>
    </filter>
    <filter id="drop-shadow-4" filterUnits="userSpaceOnUse">
      <feOffset dx="9" dy="9"/>
      <feGaussianBlur result="blur-4" stdDeviation="9"/>
      <feFlood flood-color="#3d3d3d" flood-opacity=".59"/>
      <feComposite in2="blur-4" operator="in"/>
      <feComposite in="SourceGraphic"/>
    </filter>
    <radialGradient id="Degradado_sin_nombre_39" data-name="Degradado sin nombre 39" cx="244.4" cy="218.56" fx="244.4" fy="218.56" r="78.2" gradientUnits="userSpaceOnUse">
      <stop offset=".06" stop-color="#fff" stop-opacity=".14"/>
      <stop offset=".27" stop-color="rgba(204, 204, 204, .69)" stop-opacity=".69"/>
      <stop offset=".4" stop-color="#b0b0b0"/>
      <stop offset=".45" stop-color="#9c9c9c"/>
      <stop offset=".5" stop-color="#8d8d8d"/>
      <stop offset=".54" stop-color="#777"/>
      <stop offset=".64" stop-color="#4c4c4c"/>
      <stop offset=".73" stop-color="#2b2b2b"/>
      <stop offset=".82" stop-color="#131313"/>
      <stop offset=".91" stop-color="#040404"/>
      <stop offset=".98" stop-color="#000"/>
    </radialGradient>
    <radialGradient id="Degradado_sin_nombre_37" data-name="Degradado sin nombre 37" cx="244.71" cy="195.89" fx="244.71" fy="195.89" r="90.5" gradientUnits="userSpaceOnUse">
      <stop offset=".06" stop-color="#fff" stop-opacity=".5"/>
      <stop offset=".4" stop-color="#b0b0b0"/>
      <stop offset=".41" stop-color="#ababab"/>
      <stop offset=".51" stop-color="#777"/>
      <stop offset=".62" stop-color="#4c4c4c"/>
      <stop offset=".72" stop-color="#2b2b2b"/>
      <stop offset=".82" stop-color="#131313"/>
      <stop offset=".9" stop-color="#040404"/>
      <stop offset=".98" stop-color="#000"/>
    </radialGradient>
    <radialGradient id="Degradado_sin_nombre_18" data-name="Degradado sin nombre 18" cx="221.57" cy="283.21" fx="221.57" fy="283.21" r="1.59" gradientUnits="userSpaceOnUse">
      <stop offset="0" stop-color="#ffff1e"/>
      <stop offset=".21" stop-color="#f1d629"/>
      <stop offset=".51" stop-color="#e1a239"/>
      <stop offset=".65" stop-color="#db8e3f"/>
    </radialGradient>
    <radialGradient id="Degradado_sin_nombre_18-2" data-name="Degradado sin nombre 18" cx="229.82" cy="283.21" fx="229.82" fy="283.21" r="2.84" xlink:href="#Degradado_sin_nombre_18"/>
    <radialGradient id="Degradado_sin_nombre_37-2" data-name="Degradado sin nombre 37" cx="217.43" cy="325.12" fx="217.43" fy="325.12" r="30.46" xlink:href="#Degradado_sin_nombre_37"/>
    <radialGradient id="Degradado_sin_nombre_35" data-name="Degradado sin nombre 35" cx="629.76" cy="380.11" fx="629.76" fy="380.11" r="55.12" gradientUnits="userSpaceOnUse">
      <stop offset="0" stop-color="#000"/>
      <stop offset=".14" stop-color="#000"/>
      <stop offset=".98" stop-color="#000"/>
    </radialGradient>
    <radialGradient id="Degradado_sin_nombre_5" data-name="Degradado sin nombre 5" cx="595.86" cy="483.24" fx="595.86" fy="483.24" r="29.25" gradientTransform="translate(20.05 -37.89) rotate(2.95)" gradientUnits="userSpaceOnUse">
      <stop offset=".06" stop-color="#fff"/>
      <stop offset=".18" stop-color="#e2e2e2"/>
      <stop offset=".4" stop-color="#b0b0b0"/>
      <stop offset=".41" stop-color="#ababab"/>
      <stop offset=".51" stop-color="#777"/>
      <stop offset=".62" stop-color="#4c4c4c"/>
      <stop offset=".72" stop-color="#2b2b2b"/>
      <stop offset=".82" stop-color="#131313"/>
      <stop offset=".9" stop-color="#040404"/>
      <stop offset=".98" stop-color="#000"/>
    </radialGradient>
    <radialGradient id="Degradado_sin_nombre_18-3" data-name="Degradado sin nombre 18" cx="564.33" cy="435.25" fx="564.33" fy="435.25" r="2.11" xlink:href="#Degradado_sin_nombre_18"/>
    <radialGradient id="Degradado_sin_nombre_5-2" data-name="Degradado sin nombre 5" cx="696.22" cy="376.42" fx="696.22" fy="376.42" r="98.83" gradientTransform="matrix(1,0,0,1,0,0)" xlink:href="#Degradado_sin_nombre_5"/>
    <radialGradient id="Degradado_sin_nombre_5-3" data-name="Degradado sin nombre 5" cx="561.04" cy="355.08" fx="561.04" fy="355.08" r="71.12" gradientTransform="matrix(1,0,0,1,0,0)" xlink:href="#Degradado_sin_nombre_5"/>
    <radialGradient id="Degradado_sin_nombre_5-4" data-name="Degradado sin nombre 5" cx="54.62" cy="365.93" fx="54.62" fy="365.93" r="109.04" gradientTransform="matrix(1,0,0,1,0,0)" xlink:href="#Degradado_sin_nombre_5"/>
    <radialGradient id="Degradado_sin_nombre_5-5" data-name="Degradado sin nombre 5" cx="182.31" cy="387.77" fx="182.31" fy="387.77" r="121.63" gradientTransform="matrix(1,0,0,1,0,0)" xlink:href="#Degradado_sin_nombre_5"/>
    <radialGradient id="Degradado_sin_nombre_116" data-name="Degradado sin nombre 116" cx="159.41" cy="485.39" fx="159.41" fy="485.39" r="2.08" gradientUnits="userSpaceOnUse">
      <stop offset="0" stop-color="#db8e3f"/>
      <stop offset=".08" stop-color="#d36733"/>
      <stop offset=".18" stop-color="#cb4028"/>
      <stop offset=".27" stop-color="#c62420"/>
      <stop offset=".34" stop-color="#c3141b"/>
      <stop offset=".4" stop-color="#c20e1a"/>
      <stop offset=".47" stop-color="#af0f15"/>
      <stop offset=".63" stop-color="#88110c"/>
      <stop offset=".77" stop-color="#6d1205"/>
      <stop offset=".9" stop-color="#5c1301"/>
      <stop offset="1" stop-color="#561400"/>
    </radialGradient>
    <radialGradient id="Degradado_sin_nombre_116-2" data-name="Degradado sin nombre 116" cx="169.51" fx="169.51" xlink:href="#Degradado_sin_nombre_116"/>
    <radialGradient id="Degradado_sin_nombre_3" data-name="Degradado sin nombre 3" cx="158.38" cy="531.01" fx="158.38" fy="531.01" r="13.88" gradientUnits="userSpaceOnUse">
      <stop offset=".06" stop-color="#fff"/>
      <stop offset=".18" stop-color="#e2e2e2"/>
      <stop offset=".4" stop-color="#b0b0b0"/>
      <stop offset=".47" stop-color="#a2a2a2"/>
      <stop offset=".61" stop-color="#7d7d7d"/>
      <stop offset=".79" stop-color="#424242"/>
      <stop offset=".98" stop-color="#000"/>
    </radialGradient>
    <radialGradient id="Degradado_sin_nombre_37-3" data-name="Degradado sin nombre 37" cx="143.46" cy="536.05" fx="143.46" fy="536.05" r="30.46" xlink:href="#Degradado_sin_nombre_37"/>
    <radialGradient id="Degradado_sin_nombre_5-6" data-name="Degradado sin nombre 5" cx="578.07" cy="-5.46" fx="578.07" fy="-5.46" r="114.95" gradientTransform="matrix(1,0,0,1,0,0)" xlink:href="#Degradado_sin_nombre_5"/>
    <radialGradient id="Degradado_sin_nombre_36" data-name="Degradado sin nombre 36" cx="710.07" cy="-7.62" fx="710.07" fy="-7.62" r=".5" gradientUnits="userSpaceOnUse">
      <stop offset=".06" stop-color="#fff" stop-opacity=".41"/>
      <stop offset=".16" stop-color="rgba(231, 231, 231, .59)" stop-opacity=".59"/>
      <stop offset=".4" stop-color="#b0b0b0"/>
      <stop offset=".41" stop-color="#ababab"/>
      <stop offset=".51" stop-color="#777"/>
      <stop offset=".62" stop-color="#4c4c4c"/>
      <stop offset=".72" stop-color="#2b2b2b"/>
      <stop offset=".82" stop-color="#131313"/>
      <stop offset=".9" stop-color="#040404"/>
      <stop offset=".98" stop-color="#000"/>
    </radialGradient>
    <radialGradient id="Degradado_sin_nombre_116-3" data-name="Degradado sin nombre 116" cx="578.33" cy="46.68" fx="578.33" fy="46.68" r="2.31" xlink:href="#Degradado_sin_nombre_116"/>
    <radialGradient id="Degradado_sin_nombre_116-4" data-name="Degradado sin nombre 116" cx="589.57" cy="46.68" fx="589.57" fy="46.68" r="2.31" xlink:href="#Degradado_sin_nombre_116"/>
    <radialGradient id="Degradado_sin_nombre_37-4" data-name="Degradado sin nombre 37" cx="539.29" cy="100.91" fx="539.29" fy="100.91" r="30.46" gradientTransform="translate(-29.82 -64.92) rotate(6.1) scale(1.12 1)" xlink:href="#Degradado_sin_nombre_37"/>
    <radialGradient id="Degradado_sin_nombre_3-2" data-name="Degradado sin nombre 3" cx="574.67" cy="93.23" fx="574.67" fy="93.23" r="13.9" xlink:href="#Degradado_sin_nombre_3"/>
  </defs>
  <g class="cls-34">
    <g id="OBJECTS">
      <path class="cls-26" d="M354.28,164s-65.51-19.27-93.45,57.48c0,0,0,50.77-21.99,67.58-1.58-3.66-3.39-5.97-3.39-5.97-14.23-9.51-13.28-42-13.28-42-15.46-46.71-55.25-36.27-55.25-36.27,34.14,17.07,15.41,42.06,15.41,42.06,16.92,3.79,7.93,26.36,7.93,26.36,23.63-.66,23.39,27.39,23.39,27.39,10.93,2.2,15.38,6.68,17.14,10.52-2.19,14.63-.85,34.21,15.92,49.04,0,0-10.28-33.4,25.37-39.5,0,0,.96-46.56,40.14-44.31,0,0-13.81-37.89,14.45-43.35,0,0-29.86-42.39,27.62-69.04Z"/>
      <path class="cls-13" d="M224.55,406.9c1.44,2.88,16.14,99.28-57.71,79.93v-.03s-.04.01-.07.02c-.02,0-.04-.01-.07-.02v.03c-73.85,19.35-59.14-77.06-57.71-79.93-99.73-21.58-90.29,96.79-89.66,95.41,24.93-54.66,36.83-23.87,36.83-23.87,36.33-13.11,26.94,50.72,26.94,50.72,16.78-29.25,32.6,3.84,32.6,3.84,20.62-30.21,25.89,5.27,25.89,5.27,15.56-.28,25.24,46.32,25.24,46.32,0,0,9.54-46.6,25.1-46.32,0,0,5.27-35.48,25.89-5.27,0,0,15.82-33.08,32.6-3.84,0,0-9.39-63.83,26.94-50.72,0,0,11.9-30.79,36.83,23.87.63,1.38,10.07-116.99-89.66-95.41Z"/>
      <path class="cls-16" d="M1070.9,187.75c-42.63-42.82-21.55-74.79-21.55-74.79-11.21,3.44-20.48,7.65-28.17,12.27-1.23-15.41,4.09-25.13,4.09-25.13-74.31,29.63-70.08,83.72-70.08,83.72,28.38,30.92,10.99,45.81,7.25,48.47l-2.86-2.1c.66-5.72-4.16-11.06-9.31-12.61-1.15-.35-12.68-2.86-15.88,11.22l-1.24-.3c-2.4-.59-4.53,1.64-3.84,4.02,1.68,5.74,6.08,13.66,17.37,9.75.22,6.13,4.19,21.69,38.3,24.72,0,0,9.73,9.35,28.29,10.73,0,0-23.17-15.38-20.13-23.95l51.42,34.47c-12.99-15.62-14.45-24.76-11.53-30.11l19.59,15.6c-7.39-10.53-9.61-17.57-9.08-22.27,4.28-.98,8.08-.84,8.08-.84-1.28-2.11-2.44-4.15-3.5-6.13,5.26-3.07,13.11-2.15,13.11-2.15-23.44-46.86,9.69-54.58,9.69-54.58Z"/>
      <path class="cls-17" d="M617,22.84s1.67,32.02-33.35,33.02c-35.02-1-33.36-33.02-33.36-33.02-54.37-20.01-89.57,40.14-88.67,39.69,28.06-14.01,35.64,8.34,35.64,8.34,39.02-9.01,42.03,25.68,42.03,25.68,39.69,2.33,44.36,40.69,44.36,40.69,0,0,4.67-38.36,44.36-40.69,0,0,3-34.69,42.03-25.68,0,0,7.58-22.35,35.64-8.34.9.45-34.31-59.7-88.68-39.69Z"/>
      <g>
        <path class="cls-9" d="M231.7,316.86s3.33-12.99-18.03-17.29c0,0,.24-28.05-23.39-27.39,0,0,8.99-22.57-7.93-26.36,0,0,18.73-25-15.41-42.06,0,0,39.79-10.44,55.25,36.27,0,0-.95,32.48,13.28,42,0,0,15.07,19.14-3.78,34.84Z"/>
        <path class="cls-31" d="M231.7,316.86s3.33-12.99-18.03-17.29c0,0,.24-28.05-23.39-27.39,0,0,8.99-22.57-7.93-26.36,0,0,18.73-25-15.41-42.06,0,0,39.79-10.44,55.25,36.27,0,0-.95,32.48,13.28,42,0,0,15.07,19.14-3.78,34.84Z"/>
        <path class="cls-3" d="M246.73,359.13s-10.28-33.4,25.37-39.5c0,0,.96-46.56,40.14-44.31,0,0-13.81-37.89,14.45-43.35,0,0-29.86-42.39,27.62-69.04,0,0-65.51-19.27-93.45,57.48,0,0,0,53.95-24.08,69.04,0,0-20.55,42.71,9.95,69.68Z"/>
        <path class="cls-30" d="M246.73,359.13s-10.28-33.4,25.37-39.5c0,0,.96-46.56,40.14-44.31,0,0-13.81-37.89,14.45-43.35,0,0-29.86-42.39,27.62-69.04,0,0-65.51-19.27-93.45,57.48,0,0,0,53.95-24.08,69.04,0,0-20.55,42.71,9.95,69.68Z"/>
        <g>
          <path class="cls-3" d="M286.84,191.03c2.62-3.02,5.45-5.86,8.41-8.57l.03-.03.04-.04c1.27-1.28,2.9-2.53,4.5-3.63,1.62-1.11,3.34-2.12,5.09-3.04,3.52-1.84,7.22-3.36,11.04-4.54,3.82-1.18,7.73-2.12,11.71-2.74,3.98-.62,8-1,12.04-1.18-4.04-.19-8.11-.09-12.15.31-4.04.39-8.08,1.03-12.04,2.07-3.95,1.04-7.84,2.39-11.55,4.18-1.85.9-3.67,1.88-5.42,3-1.76,1.13-3.41,2.29-5.04,3.82l.07-.07c-3.08,2.7-6.04,5.56-8.8,8.62-2.77,3.04-5.32,6.3-7.62,9.72-2.31,3.41-4.38,6.99-6.22,10.67-1.83,3.69-3.41,7.49-4.82,11.35l-.09.24v.26c-.02,3.07-.19,6.22-.39,9.33-.2,3.12-.49,6.23-.86,9.34-.76,6.2-1.78,12.38-3.3,18.44-1.51,6.05-3.49,12.01-6.29,17.58-.26.52-.54,1.03-.82,1.55l-.42.02c.02.21.05.41.07.62-1.13,2-2.39,3.91-3.81,5.71-1.96,2.42-4.2,4.65-6.8,6.45,2.74-1.57,5.21-3.63,7.34-5.99,1.25-1.4,2.4-2.9,3.47-4.45.38,3.09.91,6.12,1.56,9.15.82,3.78,1.85,7.51,3.16,11.15,1.33,3.63,2.94,7.18,5.06,10.41,2.1,3.23,4.81,6.15,8.16,8.04-3.25-2.06-5.76-5.06-7.67-8.34-1.93-3.28-3.33-6.85-4.46-10.47-1.11-3.64-1.95-7.36-2.56-11.11-.61-3.74-1.06-7.56-1.24-11.3l-.42.02c.17-.28.35-.56.52-.85,3.21-5.52,5.47-11.53,7.24-17.64,1.74-6.12,3.01-12.36,3.87-18.66.7-5.04,1.19-10.09,1.41-15.19,4.21,2.39,8.33,5.19,12.2,8.21,4.31,3.37,8.38,7.07,12.07,11.13,3.69,4.06,7.01,8.47,9.72,13.26,2.73,4.78,4.79,9.95,6.05,15.35-.98-5.45-2.78-10.77-5.3-15.75-2.49-4.99-5.63-9.66-9.18-13.98-3.54-4.33-7.5-8.32-11.73-11.99-3.95-3.41-8.06-6.54-12.55-9.36,1.42-.58,2.94-1.1,4.43-1.54,2.21-.6,4.46-1.09,6.74-1.38,4.56-.58,9.24-.63,13.82.15,1.16.1,2.28.45,3.42.67,1.14.25,2.28.48,3.38.88l3.33,1.08c1.08.44,2.15.93,3.22,1.4l1.61.71c.53.24,1.03.56,1.55.84l3.08,1.73c.53.27,1.01.6,1.49.95l1.45,1.01,2.91,2.03-2.78-2.2-1.39-1.1c-.46-.38-.93-.74-1.44-1.04l-2.99-1.93c-.51-.31-.99-.67-1.51-.94l-1.59-.81c-1.06-.54-2.12-1.1-3.19-1.62l-3.33-1.31c-1.1-.48-2.26-.79-3.41-1.12-1.16-.3-2.29-.73-3.48-.9-4.69-1.09-9.57-1.33-14.39-1.02-2.42.16-4.82.53-7.21,1.03-1.24.29-2.46.6-3.68.97,2.57-6.33,5.66-12.45,9.44-18.12,2.22-3.32,4.65-6.49,7.27-9.51Z"/>
          <path class="cls-3" d="M225.47,276.35c-.65-1.77-1.2-3.57-1.64-5.41-.43-1.84-.77-3.69-1.06-5.56-.55-3.74-.82-7.51-.92-11.29-.09-3.77,0-7.58.28-11.31l.02-.2-.05-.18c-.73-2.44-1.67-4.82-2.8-7.09-1.15-2.27-2.47-4.44-3.9-6.53-2.93-4.15-6.53-7.79-10.53-10.89-4.02-3.08-8.52-5.49-13.22-7.25-4.71-1.76-9.67-2.78-14.64-3.13,2.46.43,4.88.97,7.27,1.62,1.18.36,2.36.74,3.52,1.15,1.14.47,2.32.85,3.43,1.38,4.5,1.99,8.78,4.48,12.56,7.59,3.81,3.07,7.15,6.69,9.96,10.67,2.16,3.19,4.03,6.6,5.42,10.19-1.87-.77-3.77-1.27-5.74-1.6-2.79-.45-5.62-.5-8.4-.14-.69.09-1.38.24-2.06.36-.34.07-.69.12-1.02.2l-1,.28c-.67.2-1.34.36-2,.58l-1.94.75c-.32.13-.65.24-.96.38l-.93.46-1.85.92c-1.2.67-2.35,1.43-3.53,2.14,1.22-.64,2.41-1.32,3.64-1.91l1.89-.8.94-.4c.32-.12.65-.21.97-.32l1.95-.62c.65-.18,1.33-.3,1.99-.45l.99-.21c.33-.06.67-.09,1.01-.13.67-.07,1.34-.18,2.01-.22,2.69-.17,5.4.05,8,.63,1.31.28,2.57.7,3.81,1.17,1.1.46,2.22,1,3.17,1.59,0,.01,0,.02.01.03-.02.25-.03.5-.04.74-2.9,1.31-5.59,2.86-8.2,4.59-2.75,1.84-5.34,3.91-7.73,6.18-2.41,2.25-4.49,4.84-6.32,7.56-1.84,2.73-3.14,5.77-4.19,8.86,1.21-3.03,2.65-5.97,4.61-8.56,1.95-2.59,4.12-5.01,6.59-7.09,2.45-2.1,5.09-3.98,7.86-5.63,2.33-1.38,4.78-2.63,7.26-3.65-.1,2.79-.07,5.57.06,8.35.17,3.84.6,7.68,1.29,11.47.73,3.78,1.74,7.54,3.34,11.06,1.6,3.49,3.79,6.84,6.88,9.12-2.82-2.59-4.75-5.94-6.07-9.46Z"/>
        </g>
        <g>
          <path class="cls-8" d="M242.07,288.54c2.6-1.8,4.84-4.03,6.8-6.45,1.93-2.45,3.59-5.11,4.98-7.9,2.8-5.57,4.78-11.53,6.29-17.58,1.52-6.06,2.54-12.24,3.3-18.44.37-3.1.66-6.22.86-9.34.21-3.11.38-6.26.39-9.33v-.26s.09-.24.09-.24c1.41-3.86,2.99-7.66,4.82-11.35,1.84-3.68,3.91-7.25,6.22-10.67,2.3-3.42,4.85-6.67,7.62-9.72,2.76-3.05,5.72-5.92,8.8-8.62l-.07.07c1.63-1.53,3.28-2.69,5.04-3.82,1.75-1.12,3.56-2.1,5.42-3,3.71-1.79,7.6-3.14,11.55-4.18,3.95-1.04,7.99-1.68,12.04-2.07,4.05-.4,8.11-.5,12.15-.31-4.04.18-8.07.56-12.04,1.18-3.98.62-7.89,1.55-11.71,2.74-3.82,1.18-7.52,2.7-11.04,4.54-1.76.92-3.47,1.92-5.09,3.04-1.61,1.1-3.23,2.35-4.5,3.63l-.04.04-.03.03c-2.96,2.71-5.79,5.55-8.41,8.57-2.62,3.02-5.05,6.19-7.27,9.51-4.42,6.65-7.91,13.89-10.72,21.39l.09-.5c-.1,6.42-.66,12.71-1.53,19.01-.86,6.29-2.12,12.54-3.87,18.66-1.76,6.1-4.03,12.12-7.24,17.64-1.6,2.76-3.45,5.37-5.57,7.74-2.13,2.36-4.6,4.43-7.34,5.99Z"/>
          <path class="cls-8" d="M265.39,217.97c2.41-1.03,4.7-1.66,7.1-2.22,2.39-.49,4.79-.86,7.21-1.03,4.83-.32,9.7-.07,14.39,1.02,1.19.17,2.32.6,3.48.9,1.15.33,2.31.63,3.41,1.12l3.33,1.31c1.08.52,2.13,1.08,3.19,1.62l1.59.81c.52.28,1.01.63,1.51.94l2.99,1.93c.51.3.98.67,1.44,1.04l1.39,1.1,2.78,2.2-2.91-2.03-1.45-1.01c-.48-.34-.96-.68-1.49-.95l-3.08-1.73c-.52-.28-1.01-.6-1.55-.84l-1.61-.71c-1.08-.46-2.14-.95-3.22-1.4l-3.33-1.08c-1.1-.41-2.24-.64-3.38-.88-1.14-.22-2.26-.58-3.42-.67-4.58-.78-9.26-.72-13.82-.15-2.28.29-4.53.78-6.74,1.38-2.17.64-4.41,1.43-6.29,2.37l-1.53-3.06Z"/>
          <path class="cls-8" d="M267.74,219.53c4.91,2.98,9.33,6.36,13.59,10.03,4.23,3.67,8.18,7.67,11.73,11.99,3.54,4.32,6.69,8.99,9.18,13.98,2.52,4.98,4.31,10.3,5.3,15.75-1.26-5.4-3.32-10.57-6.05-15.35-2.71-4.79-6.03-9.21-9.72-13.26-3.69-4.06-7.76-7.76-12.07-11.13-4.3-3.35-8.9-6.47-13.59-9.01l1.64-3Z"/>
          <path class="cls-8" d="M254.89,275.63c.18,3.74.62,7.56,1.24,11.3.62,3.75,1.46,7.47,2.56,11.11,1.13,3.63,2.54,7.19,4.46,10.47,1.91,3.28,4.42,6.28,7.67,8.34-3.35-1.89-6.06-4.81-8.16-8.04-2.12-3.24-3.73-6.78-5.06-10.41-1.31-3.64-2.35-7.37-3.16-11.15-.81-3.79-1.45-7.58-1.83-11.49l2.28-.13Z"/>
          <path class="cls-8" d="M230.22,283.88c-3.09-2.29-5.28-5.63-6.88-9.12-1.6-3.52-2.61-7.28-3.34-11.06-.7-3.79-1.13-7.63-1.29-11.47-.18-3.85-.18-7.68.11-11.56l.04.38c-1.42-4.64-3.69-9.03-6.42-13.06-2.81-3.98-6.15-7.6-9.96-10.67-3.78-3.11-8.06-5.6-12.56-7.59-1.11-.53-2.29-.91-3.43-1.38-1.16-.42-2.34-.79-3.52-1.15-2.39-.65-4.81-1.2-7.27-1.62,4.97.35,9.92,1.37,14.64,3.13,4.7,1.76,9.2,4.17,13.22,7.25,4,3.09,7.6,6.74,10.53,10.89,1.43,2.1,2.76,4.27,3.9,6.53,1.12,2.28,2.07,4.65,2.8,7.09l.05.18-.02.2c-.29,3.73-.36,7.54-.28,11.31.1,3.78.37,7.56.92,11.29.29,1.86.62,3.72,1.06,5.56.45,1.83,1,3.64,1.64,5.41,1.31,3.52,3.24,6.87,6.07,9.46Z"/>
          <path class="cls-8" d="M219.07,241.04c-1-.67-2.25-1.27-3.45-1.77-1.24-.47-2.5-.9-3.81-1.17-2.6-.59-5.3-.81-8-.63-.67.04-1.34.15-2.01.22-.34.04-.67.07-1.01.13l-.99.21c-.66.15-1.33.27-1.99.45l-1.95.62c-.32.11-.65.2-.97.32l-.94.4-1.89.8c-1.23.59-2.42,1.28-3.64,1.91,1.17-.71,2.32-1.47,3.53-2.14l1.85-.92.93-.46c.32-.14.64-.25.96-.38l1.94-.75c.65-.23,1.33-.39,2-.58l1-.28c.34-.08.68-.13,1.02-.2.69-.12,1.37-.27,2.06-.36,2.77-.35,5.61-.31,8.4.14,2.8.47,5.49,1.27,8.11,2.74l-1.15,1.71Z"/>
          <path class="cls-8" d="M220,243.32c-2.94,1.1-5.86,2.58-8.62,4.21-2.77,1.65-5.4,3.53-7.86,5.63-2.48,2.08-4.64,4.51-6.59,7.09-1.96,2.6-3.4,5.53-4.61,8.56,1.05-3.08,2.34-6.13,4.19-8.86,1.83-2.72,3.91-5.31,6.32-7.56,2.39-2.27,4.98-4.34,7.73-6.18,2.76-1.83,5.61-3.47,8.72-4.83l.73,1.93Z"/>
        </g>
        <path class="cls-8" d="M225.5,276.01c-.07,2.04-.35,3.95-.75,5.89-.42,1.92-.95,3.82-1.76,5.61-.8,1.79-1.8,3.51-3.1,4.97-1.33,1.44-2.96,2.57-4.73,3.31,1.71-.9,3.18-2.14,4.34-3.63,1.12-1.52,1.93-3.24,2.54-5.01.62-1.78.96-3.64,1.2-5.5.22-1.85.32-3.77.22-5.58l2.06-.05Z"/>
        <path class="cls-3" d="M215.46,264.64c.63,2.18.72,4.07.81,5.04.26,2.53.2,4.04.62,6.53.41,2.49,2.1,5.2,4.14,2.91,3.09-3.2,2.08-6.49.76-9.29-1.69-3.35-6.15-5.22-6.32-5.19Z"/>
        <path class="cls-8" d="M220.7,275.61c.24-.63.4-1.36.48-2.06.08-.71.08-1.44-.04-2.15-.12-.71-.39-1.39-.79-2.01-.38-.64-.97-1.11-1.58-1.56.65.36,1.32.77,1.8,1.39.49.59.89,1.29,1.11,2.04.23.75.33,1.54.34,2.33,0,.79-.06,1.56-.26,2.37l-1.07-.35Z"/>
        <path class="cls-3" d="M243.2,260.37c-1.3,3.08-1.78,5.85-2.1,7.26-.85,3.66-1.06,5.9-2.12,9.49-1.05,3.58-3.92,7.26-6.31,3.51-3.67-5.27-1.64-9.91.75-13.8,3-4.61,9.55-6.55,9.78-6.47Z"/>
        <path class="cls-8" d="M232.22,275.83c-.11-1.22-.05-2.33.11-3.48.16-1.14.45-2.26.9-3.31.46-1.05,1.12-2.02,1.92-2.81.79-.82,1.82-1.34,2.82-1.76-.96.55-1.87,1.17-2.53,2.04-.66.85-1.16,1.8-1.46,2.82-.29,1.02-.43,2.08-.45,3.14-.02,1.05.07,2.15.28,3.11l-1.59.27Z"/>
        <path class="cls-3" d="M241.74,281.79c-.17-.56-.36-1.11-.58-1.65-.79-1.91-2.26-3.52-4.18-4.29-.02,0-.03-.01-.05-.02-4.07-1.61-7.84-2.07-10.81-2.07-6.81,0-12.07,6.2-10.78,12.89.02.08.03.16.05.24.46,2.22.47,4.02.37,5.57-.15,2.37.73,4.68,2.38,6.38,2.58,2.67,6.03,4.3,9.82,4.3,4.52,0,8.57-2.32,11.23-5.95,2.06-2.8,3.29-6.39,3.29-10.3,0-1.78-.27-3.5-.74-5.1Z"/>
        <g>
          <path class="cls-19" d="M219.95,281.76l3.33,2.17s-4.06,2.69-3.33-2.17Z"/>
          <path class="cls-32" d="M232.72,280.61l-5.95,3.87s7.26,4.8,5.95-3.87Z"/>
        </g>
        <path class="cls-27" d="M240.38,278.5c.55,1.03,1.02,2.12,1.36,3.28-.25-1.21-.69-2.32-1.36-3.28Z"/>
        <path class="cls-3" d="M228.81,301.37c-.59.7-14.77,19.99,6.61,35.07,0,0,6.47,5.61,14.19-11.4,7.71-17.01-9.23-32.66-9.23-32.66l-11.57,8.99Z"/>
        <path class="cls-20" d="M228.81,301.37c-.59.7-14.77,19.99,6.61,35.07,0,0,6.47,5.61,14.19-11.4,7.71-17.01-9.23-32.66-9.23-32.66l-11.57,8.99Z"/>
      </g>
      <g>
        <g>
          <path class="cls-2" d="M608.29,431.04s22.14-10.62-2.18-41.91c0,0,.17-46.13,65.21-66.07,0,0-21.08,31.98,21.55,74.79,0,0-33.13,7.71-9.69,54.58,0,0-33.38-3.94-8.59,31.39l-66.29-52.78Z"/>
          <path class="cls-12" d="M608.29,431.04s22.14-10.62-2.18-41.91c0,0,.17-46.13,65.21-66.07,0,0-21.08,31.98,21.55,74.79,0,0-33.13,7.71-9.69,54.58,0,0-33.38-3.94-8.59,31.39l-66.29-52.78Z"/>
          <path class="cls-8" d="M613.01,429.68c3.49-1.97,6.29-5.08,7.77-8.7.74-1.81,1.18-3.72,1.32-5.66.15-1.94-.02-3.89-.34-5.81-.3-1.93-.9-3.8-1.53-5.65-.71-1.83-1.48-3.64-2.38-5.39-1.78-3.52-3.96-6.84-6.24-10.08l-.25-.35.03-.38c.53-5.97,2.26-11.51,4.64-16.82,2.37-5.3,5.49-10.23,9.11-14.74.93-1.11,1.92-2.16,2.88-3.24.49-.53.94-1.09,1.47-1.59l1.57-1.49c1.06-.98,2.06-2.01,3.17-2.93l3.38-2.68c.57-.44,1.12-.9,1.7-1.33l1.8-1.18,3.6-2.35c2.45-1.47,5.01-2.76,7.53-4.09l-3.57,2.35c-1.18.79-2.42,1.49-3.55,2.35l-3.38,2.58-1.69,1.29c-.55.45-1.07.93-1.6,1.4l-3.18,2.8c-1.03.96-1.98,2.01-2.97,3.01l-1.48,1.51c-.49.5-.91,1.07-1.37,1.6l-2.69,3.25c-3.41,4.47-6.29,9.31-8.57,14.42-.28.64-.58,1.27-.84,1.92l-.73,1.97c-.52,1.3-.87,2.65-1.31,3.98-.75,2.66-1.38,5.45-1.6,8.1l-.22-.73c2.34,3.32,4.45,6.82,6.23,10.51,1.79,3.68,3.12,7.62,3.69,11.72.52,4.08.17,8.42-1.75,12.13-1.86,3.69-4.96,6.7-8.67,8.29Z"/>
          <path class="cls-8" d="M611.96,386.42c2.98-1.22,5.91-2.05,8.93-2.77,3.01-.71,6.05-1.22,9.11-1.56,6.12-.69,12.32-.64,18.4.15,6.09.78,12.05,2.38,17.72,4.63,5.65,2.31,11.01,5.29,15.96,8.82-5.08-3.34-10.53-6.09-16.21-8.15-5.7-2.01-11.63-3.34-17.63-3.88-5.99-.54-12.04-.35-17.96.55-2.96.45-5.9,1.06-8.78,1.86-2.86.79-5.76,1.76-8.36,2.94l-1.19-2.59Z"/>
          <path class="cls-8" d="M623.11,413.86c5.53,1.47,10.75,3.41,15.91,5.64,5.14,2.24,10.11,4.84,14.88,7.76,1.18.75,2.4,1.44,3.54,2.24l3.45,2.38c1.15.8,2.22,1.7,3.33,2.54l1.65,1.28c.54.44,1.05.91,1.58,1.37l3.14,2.76,2.95,2.96,1.47,1.48,1.36,1.58,2.71,3.16-2.85-3.04-1.42-1.52-1.53-1.41-3.06-2.82-3.24-2.61c-.54-.43-1.07-.88-1.63-1.29l-1.69-1.2c-1.14-.79-2.23-1.63-3.4-2.37l-3.51-2.21c-1.16-.75-2.4-1.37-3.59-2.06-4.83-2.67-9.84-5.02-14.98-7.01-5.13-1.97-10.44-3.67-15.7-4.83l.61-2.78Z"/>
        </g>
        <g>
          <path class="cls-3" d="M583.28,421.61c-2.07,1.09-3.11,2.64-3.64,3.41-1.39,2.05-1.77,3.49-2.69,5.76-.89,2.2-2.74,4.89-5.5,2.26-4.14-3.95-1.56-8.77,1.57-10.82,3.91-2.58,10.13-.65,10.26-.6Z"/>
          <path class="cls-8" d="M571.4,427.2c.17-1.05.63-1.76,1.2-2.43.57-.65,1.27-1.13,2-1.5.73-.38,1.5-.6,2.27-.8l1.17-.2,1.17-.11-1.13.29-1.1.37c-.71.3-1.4.62-2,1.07-.6.43-1.14.94-1.51,1.54-.37.56-.62,1.31-.6,1.81l-1.46-.05Z"/>
        </g>
        <g>
          <path class="cls-3" d="M572.22,427.69c-1.15-.35-12.68-2.86-15.88,11.22l-1.24-.3c-2.4-.59-4.53,1.64-3.84,4.02,1.76,6.01,6.5,14.43,19.02,9.13,18.53-7.84,10.7-21.41,1.94-24.05Z"/>
          <path class="cls-3" d="M568.76,449.88s-4.51,23.42,38.17,27.21c0,0,9.73,9.35,28.29,10.73,0,0-23.84-15.81-20.01-24.3l-39.68-26.09-6.77,12.46Z"/>
          <path class="cls-6" d="M573.66,449.89s-4.44,18,26.1,24.48c6.7,1.42,13.19-3.28,13.92-10.09.01-.12.02-.24.04-.36l-33.56-24.63-6.49,10.6Z"/>
        </g>
        <path class="cls-18" d="M566.57,433.43l-4.61,2.71s5.62,3.37,4.61-2.71Z"/>
        <path class="cls-3" d="M583.73,442.84s24.93-14.58-6.58-48.91c0,0-4.23-54.09,70.08-83.72,0,0-21.64,39.51,32.45,85.6,0,0-38.1,12.23-6.11,64.91,0,0-39.51-1.41-7.06,37.63l-82.78-55.5Z"/>
        <path class="cls-21" d="M583.73,442.84s24.93-14.58-6.58-48.91c0,0-4.23-54.09,70.08-83.72,0,0-21.64,39.51,32.45,85.6,0,0-38.1,12.23-6.11,64.91,0,0-39.51-1.41-7.06,37.63l-82.78-55.5Z"/>
        <path class="cls-5" d="M583.73,442.84s24.93-14.58-6.58-48.91c0,0-4.23-54.09,70.08-83.72,0,0-21.64,39.51,32.45,85.6,0,0-38.1,12.23-6.11,64.91,0,0-39.51-1.41-7.06,37.63l-82.78-55.5Z"/>
        <path class="cls-3" d="M667.44,452.74l-1.75-1.73-1.86-1.6-3.74-3.19-3.95-2.93c-.66-.48-1.31-.99-1.99-1.45l-2.06-1.34c-1.38-.88-2.73-1.83-4.15-2.65l-4.27-2.46c-1.42-.83-2.91-1.52-4.37-2.29-5.87-2.95-11.95-5.52-18.19-7.66l-4.7-1.52c-1.59-.45-3.16-.95-4.76-1.36-3.01-.81-6.01-1.52-9.14-2.08-.04-1.86-.27-3.72-.66-5.52-1.05-4.76-3-9.25-5.45-13.38-2.1-3.57-4.48-6.94-7.05-10.15,2.55-1.31,5.29-2.47,8.03-3.47,3.3-1.22,6.68-2.21,10.11-3.02,6.86-1.63,13.93-2.44,21-2.37,7.08.05,14.16,1.04,21.04,2.85,6.86,1.88,13.51,4.58,19.79,8-6.14-3.66-12.7-6.64-19.55-8.8-6.87-2.1-14.01-3.39-21.22-3.72-7.21-.34-14.47.19-21.58,1.59-3.55.7-7.08,1.58-10.53,2.71-2.69.88-5.3,1.83-7.91,3.01.17-2.37.54-4.8,1-7.15.38-1.6.66-3.21,1.15-4.79l.66-2.37c.24-.79.53-1.56.79-2.33,2.18-6.2,5.09-12.16,8.66-17.72l2.84-4.06c.49-.67.92-1.38,1.45-2.01l1.59-1.91c1.07-1.26,2.08-2.58,3.2-3.81l3.45-3.59c.58-.59,1.14-1.21,1.74-1.79l1.86-1.67,3.73-3.34c.6-.58,1.28-1.07,1.94-1.58l1.98-1.53,3.96-3.11c-2.81,1.81-5.7,3.56-8.44,5.51l-3.98,3.11-2,1.56c-.64.55-1.24,1.15-1.86,1.72l-3.71,3.46c-1.21,1.18-2.29,2.49-3.44,3.74l-1.7,1.9c-.57.63-1.04,1.34-1.57,2-1.02,1.36-2.08,2.69-3.06,4.07-3.8,5.64-6.99,11.72-9.26,18.15-2.28,6.45-3.78,13.11-3.82,20.16v.45s.32.39.32.39c2.99,3.58,5.86,7.26,8.29,11.21,1.23,1.97,2.3,4.01,3.31,6.09.91,2.11,1.8,4.25,2.33,6.48.56,2.22.94,4.49.96,6.77.02,2.28-.31,4.57-1.02,6.75-1.42,4.36-4.34,8.3-8.26,10.95,2.1-1.09,3.98-2.62,5.58-4.41,1.62-1.78,2.89-3.87,3.8-6.13.73-1.77,1.17-3.63,1.38-5.52,2.84.4,5.74.95,8.59,1.59,1.58.34,3.14.76,4.72,1.13l4.68,1.3c6.22,1.84,12.31,4.11,18.23,6.78,1.47.7,2.98,1.31,4.41,2.07l4.33,2.25c1.44.75,2.81,1.64,4.22,2.45l2.1,1.24c.69.43,1.35.9,2.03,1.35l4.04,2.74,3.85,3.01,1.93,1.51,1.81,1.64,3.63,3.29-3.49-3.45Z"/>
        <g>
          <path class="cls-8" d="M589.14,440.79c3.92-2.64,6.84-6.59,8.26-10.95.7-2.18,1.03-4.47,1.02-6.75-.01-2.29-.39-4.56-.96-6.77-.53-2.23-1.43-4.37-2.33-6.48-1.01-2.08-2.09-4.12-3.31-6.09-2.42-3.96-5.29-7.64-8.29-11.21l-.33-.39v-.45c.05-7.05,1.55-13.71,3.83-20.16,2.27-6.44,5.46-12.52,9.26-18.15.98-1.39,2.04-2.72,3.06-4.07.53-.67,1-1.37,1.57-2l1.7-1.89c1.15-1.25,2.23-2.56,3.44-3.74l3.71-3.46c.62-.57,1.22-1.16,1.86-1.72l2-1.56,3.98-3.11c2.75-1.95,5.63-3.69,8.44-5.51l-3.96,3.11-1.98,1.53c-.66.52-1.34,1-1.94,1.58l-3.73,3.34-1.86,1.67c-.6.58-1.16,1.19-1.74,1.79l-3.45,3.59c-1.11,1.23-2.12,2.55-3.2,3.81l-1.59,1.91c-.53.64-.96,1.34-1.45,2.01l-2.84,4.06c-3.56,5.57-6.48,11.52-8.66,17.72-.26.78-.56,1.55-.79,2.33l-.66,2.37c-.48,1.57-.77,3.19-1.15,4.79-.62,3.19-1.09,6.53-1.1,9.65l-.32-.83c3.07,3.67,5.88,7.57,8.31,11.72,2.45,4.14,4.4,8.63,5.45,13.38,1.01,4.73,1,9.85-.87,14.39-.9,2.26-2.18,4.35-3.8,6.13-1.59,1.79-3.48,3.32-5.58,4.41Z"/>
          <path class="cls-8" d="M583.75,390.18c3.38-1.72,6.73-2.97,10.21-4.11,3.46-1.12,6.98-2.01,10.53-2.71,7.11-1.4,14.37-1.94,21.58-1.59,7.21.33,14.35,1.63,21.22,3.72,6.85,2.17,13.42,5.14,19.55,8.8-6.28-3.42-12.93-6.12-19.79-8-6.88-1.81-13.95-2.8-21.04-2.85-7.08-.06-14.15.74-21,2.37-3.43.81-6.81,1.81-10.11,3.02-3.27,1.21-6.58,2.61-9.51,4.25l-1.65-2.92Z"/>
          <path class="cls-8" d="M599.45,421.27c3.35.59,6.53,1.33,9.73,2.2,1.6.42,3.17.91,4.76,1.36l4.7,1.52c6.24,2.14,12.31,4.71,18.19,7.66,1.45.77,2.95,1.45,4.37,2.29l4.27,2.46c1.42.82,2.77,1.77,4.15,2.65l2.06,1.34c.68.46,1.32.97,1.99,1.45l3.95,2.93,3.74,3.19,1.86,1.6,1.75,1.73,3.49,3.45-3.63-3.29-1.81-1.64-1.93-1.51-3.85-3.01-4.04-2.74c-.68-.45-1.34-.93-2.03-1.35l-2.1-1.24c-1.41-.81-2.78-1.7-4.22-2.45l-4.33-2.25c-1.43-.76-2.94-1.38-4.41-2.07-5.92-2.67-12.01-4.94-18.23-6.78l-4.68-1.3c-1.57-.38-3.14-.8-4.72-1.13-3.14-.71-6.36-1.31-9.47-1.72l.44-3.32Z"/>
        </g>
      </g>
      <g>
        <g>
          <path class="cls-11" d="M19.68,501.89c-.63,1.38-10.07-116.99,89.66-95.41-1.44,2.88-16.16,99.4,57.84,79.9v97.79s-9.67-46.6-25.24-46.32c0,0-5.27-35.48-25.89-5.27,0,0-15.82-33.08-32.6-3.84,0,0,9.39-63.83-26.94-50.72,0,0-11.9-30.79-36.83,23.87Z"/>
          <path class="cls-11" d="M314.55,501.89c.63,1.38,10.07-116.99-89.66-95.41,1.44,2.88,16.16,99.4-57.84,79.9l.13,97.79s9.54-46.6,25.1-46.32c0,0,5.27-35.48,25.89-5.27,0,0,15.82-33.08,32.6-3.84,0,0-9.39-63.83,26.94-50.72,0,0,11.9-30.79,36.83,23.87Z"/>
          <path class="cls-4" d="M19.68,501.89c-.63,1.38-10.07-116.99,89.66-95.41-1.44,2.88-16.16,99.4,57.84,79.9v97.79s-9.67-46.6-25.24-46.32c0,0-5.27-35.48-25.89-5.27,0,0-15.82-33.08-32.6-3.84,0,0,9.39-63.83-26.94-50.72,0,0-11.9-30.79-36.83,23.87Z"/>
          <path class="cls-24" d="M314.55,501.89c.63,1.38,10.07-116.99-89.66-95.41,1.44,2.88,16.16,99.4-57.84,79.9l.13,97.79s9.54-46.6,25.1-46.32c0,0,5.27-35.48,25.89-5.27,0,0,15.82-33.08,32.6-3.84,0,0-9.39-63.83,26.94-50.72,0,0,11.9-30.79,36.83,23.87Z"/>
          <g>
            <path class="cls-3" d="M139.11,496.51c-.54-.12-1.05-.32-1.58-.47l-3.15-.96c-1.03-.38-2.04-.82-3.05-1.23-4.01-1.74-7.82-3.97-11.1-6.83-3.31-2.81-6.18-6.12-8.53-9.76-2.32-3.67-4.11-7.65-5.5-11.76-2.86-8.22-3.95-16.98-4.23-25.69-.12-4.37,0-8.75.34-13.11.34-4.35.84-8.74,1.65-12.97l.23-1.17-1.13-.29c-6.79-1.75-13.87-2.55-20.9-2.08-3.51.32-7.01.81-10.4,1.8-3.38.99-6.67,2.28-9.79,3.89-6.22,3.27-11.77,7.72-16.34,12.97-2.29,2.62-4.36,5.43-6.21,8.36-1.8,2.95-3.54,5.99-4.59,9.29.57-1.63,1.46-3.12,2.31-4.61.87-1.48,1.81-2.93,2.78-4.35,1.97-2.81,4.15-5.48,6.52-7.95,4.74-4.93,10.21-9.16,16.33-12.13,3.06-1.46,6.26-2.62,9.53-3.47,3.28-.84,6.64-1.3,10.01-1.55,6.22-.3,12.47.4,18.55,1.84-2.38,1.26-4.57,2.66-6.74,4.17-2.49,1.74-4.86,3.63-7.14,5.62-4.55,3.99-8.64,8.49-12.19,13.37-3.55,4.88-6.5,10.17-8.85,15.7-2.29,5.56-3.96,11.35-4.99,17.24,1.24-5.86,3.11-11.56,5.57-16.99,2.52-5.4,5.62-10.52,9.28-15.19,3.66-4.68,7.83-8.93,12.41-12.68,2.29-1.87,4.67-3.63,7.15-5.23,1.78-1.15,3.64-2.26,5.51-3.23-1.18,7.56-1.6,15.17-1.37,22.8.27,8.14,1.42,16.33,3.95,24.13-1.63,1.26-3.18,2.63-4.53,4.17-1.47,1.71-2.78,3.54-3.87,5.49-1.07,1.96-1.95,3.99-2.67,6.07-.69,2.09-1.22,4.22-1.61,6.37-.77,4.3-.98,8.64-.82,12.95.18,4.31.69,8.6,1.65,12.78-.68-4.23-.9-8.52-.8-12.78.13-4.26.62-8.5,1.63-12.59.52-2.04,1.16-4.04,1.94-5.98.81-1.92,1.76-3.77,2.87-5.51,1.12-1.73,2.43-3.31,3.85-4.76,1.09-1.09,2.28-2.05,3.53-2.94.11.28.22.56.34.84-1.75,4.62-2.87,9.47-3.12,14.38-.16,2.47-.11,4.94.13,7.39.22,2.45.61,4.88,1.17,7.27,1.09,4.78,2.78,9.39,4.9,13.77,2.12,4.38,4.65,8.56,7.59,12.41-2.77-3.97-5.11-8.24-7.02-12.67-1.91-4.43-3.37-9.05-4.23-13.77-.45-2.35-.72-4.74-.83-7.12-.13-2.38-.07-4.77.18-7.13.36-3.87,1.3-7.65,2.65-11.27,1.13,2.37,2.39,4.67,3.86,6.84,2.55,3.71,5.63,7.05,9.13,9.84,3.47,2.86,7.53,4.9,11.68,6.48,4.14,1.68,8.56,2.41,12.92,3.02l-3.24-.7-1.61-.35Z"/>
            <path class="cls-3" d="M296.71,437.22c-1.85-2.93-3.92-5.74-6.21-8.36-4.58-5.25-10.13-9.7-16.34-12.97-3.12-1.61-6.41-2.9-9.79-3.89-3.39-.99-6.89-1.48-10.4-1.8-7.04-.47-14.11.33-20.9,2.08l-1.13.29.22,1.17c.81,4.23,1.31,8.62,1.65,12.97.34,4.36.46,8.74.34,13.11-.28,8.71-1.37,17.48-4.23,25.69-1.39,4.11-3.18,8.09-5.5,11.76-2.35,3.64-5.22,6.95-8.53,9.76-3.28,2.86-7.09,5.09-11.1,6.83-1.02.41-2.02.85-3.05,1.23l-3.15.96c-.53.15-1.05.35-1.58.47l-1.61.35-3.24.7c4.36-.61,8.78-1.34,12.92-3.02,4.14-1.58,8.2-3.62,11.68-6.48,3.51-2.8,6.58-6.14,9.13-9.84,1.47-2.18,2.73-4.48,3.86-6.84,1.35,3.62,2.29,7.4,2.65,11.27.25,2.36.31,4.75.18,7.13-.11,2.38-.38,4.77-.83,7.12-.86,4.72-2.32,9.34-4.23,13.77-1.91,4.43-4.24,8.7-7.01,12.67,2.95-3.85,5.47-8.03,7.59-12.41,2.12-4.38,3.8-8.99,4.9-13.77.56-2.39.95-4.82,1.17-7.27.24-2.45.29-4.92.13-7.39-.24-4.9-1.37-9.76-3.12-14.38.11-.28.23-.56.34-.84,1.25.88,2.44,1.85,3.53,2.94,1.42,1.45,2.73,3.03,3.85,4.76,1.1,1.74,2.06,3.58,2.87,5.51.78,1.93,1.42,3.94,1.94,5.98,1.02,4.09,1.51,8.33,1.63,12.59.1,4.26-.12,8.55-.8,12.78.96-4.18,1.47-8.47,1.65-12.78.16-4.31-.05-8.66-.82-12.95-.39-2.14-.92-4.27-1.61-6.37-.72-2.08-1.6-4.12-2.67-6.07-1.08-1.95-2.39-3.78-3.87-5.49-1.35-1.54-2.9-2.91-4.53-4.17,2.54-7.8,3.68-15.99,3.95-24.13.23-7.63-.19-15.24-1.37-22.8,1.87.97,3.72,2.08,5.51,3.23,2.48,1.6,4.86,3.36,7.15,5.23,4.58,3.74,8.75,8,12.41,12.68,3.67,4.67,6.76,9.79,9.28,15.19,2.46,5.43,4.33,11.13,5.57,16.99-1.03-5.89-2.7-11.69-4.99-17.24-2.35-5.53-5.29-10.82-8.85-15.7-3.54-4.88-7.64-9.37-12.19-13.37-2.27-2-4.65-3.89-7.14-5.62-2.17-1.51-4.36-2.91-6.74-4.17,6.08-1.44,12.33-2.13,18.55-1.84,3.37.25,6.73.71,10.01,1.55,3.27.85,6.47,2,9.53,3.47,6.12,2.96,11.59,7.19,16.33,12.13,2.37,2.47,4.55,5.13,6.52,7.95.97,1.42,1.91,2.86,2.78,4.35.85,1.49,1.74,2.99,2.31,4.61-1.05-3.3-2.78-6.34-4.59-9.29Z"/>
          </g>
          <g>
            <path class="cls-8" d="M33.86,444.73c1.05-3.3,2.78-6.34,4.59-9.29,1.85-2.93,3.92-5.74,6.21-8.36,4.58-5.25,10.13-9.7,16.34-12.97,3.12-1.61,6.41-2.9,9.79-3.89,3.39-.99,6.89-1.48,10.4-1.8,7.04-.47,14.11.33,20.9,2.08l1.13.29-.23,1.17c-.81,4.23-1.31,8.62-1.65,12.97-.34,4.36-.46,8.74-.34,13.11.28,8.71,1.37,17.48,4.23,25.69,1.39,4.11,3.18,8.09,5.5,11.76,2.35,3.64,5.22,6.95,8.53,9.76,3.28,2.86,7.09,5.09,11.1,6.83,1.02.41,2.02.85,3.05,1.23l3.15.96c.53.15,1.05.35,1.58.47l1.61.35,3.24.7c-4.36-.61-8.78-1.34-12.92-3.02-4.14-1.58-8.2-3.62-11.68-6.48-3.51-2.8-6.58-6.14-9.13-9.84-2.52-3.73-4.5-7.8-6.06-12.01-3.08-8.45-4.4-17.42-4.69-26.33-.27-8.94.34-17.83,2.03-26.67l.9,1.46c-6.58-1.7-13.37-2.54-20.13-2.22-3.37.25-6.73.71-10.01,1.55-3.27.85-6.47,2-9.53,3.47-6.12,2.96-11.59,7.19-16.33,12.13-2.37,2.47-4.55,5.13-6.52,7.95-.97,1.42-1.91,2.86-2.78,4.35-.85,1.49-1.74,2.99-2.31,4.61Z"/>
            <path class="cls-8" d="M102.04,414.25c-2.58,1.17-5.18,2.68-7.64,4.27-2.48,1.6-4.86,3.36-7.15,5.23-4.58,3.74-8.75,8-12.41,12.68-3.67,4.67-6.76,9.79-9.28,15.19-2.46,5.42-4.33,11.13-5.57,16.99,1.03-5.89,2.7-11.69,4.99-17.24,2.35-5.53,5.29-10.82,8.85-15.7,3.54-4.88,7.64-9.37,12.19-13.37,2.27-2,4.65-3.89,7.14-5.62,2.51-1.74,5.03-3.35,7.85-4.75l1.04,2.33Z"/>
            <path class="cls-8" d="M90.64,510.05c-.96-4.18-1.47-8.47-1.65-12.78-.16-4.31.05-8.66.82-12.95.39-2.14.92-4.27,1.61-6.36.72-2.08,1.6-4.12,2.67-6.07,1.08-1.95,2.4-3.78,3.87-5.49,1.49-1.7,3.2-3.19,5.02-4.55l1.9,2.82c-1.69,1.1-3.31,2.33-4.75,3.77-1.42,1.45-2.73,3.03-3.85,4.76-1.1,1.74-2.06,3.58-2.87,5.51-.79,1.93-1.42,3.94-1.94,5.98-1.02,4.09-1.51,8.33-1.63,12.59-.1,4.26.12,8.55.8,12.78Z"/>
            <path class="cls-8" d="M114.67,521.55c-2.95-3.85-5.47-8.03-7.59-12.41-2.12-4.38-3.8-8.99-4.9-13.77-.56-2.39-.95-4.82-1.17-7.27-.24-2.45-.29-4.92-.13-7.39.25-4.94,1.38-9.84,3.16-14.49l2.35.98c-1.87,4.32-3.16,8.93-3.6,13.66-.25,2.36-.31,4.75-.18,7.13.11,2.38.38,4.77.83,7.12.86,4.72,2.32,9.34,4.23,13.77,1.91,4.43,4.24,8.7,7.01,12.67Z"/>
            <path class="cls-8" d="M300.36,444.73c-.57-1.63-1.46-3.12-2.31-4.61-.87-1.48-1.81-2.93-2.78-4.35-1.97-2.81-4.15-5.48-6.52-7.95-4.74-4.93-10.21-9.16-16.33-12.13-3.06-1.46-6.26-2.62-9.53-3.47-3.28-.84-6.64-1.3-10.01-1.55-6.76-.32-13.55.51-20.13,2.22l.9-1.46c1.69,8.84,2.3,17.73,2.03,26.67-.3,8.91-1.62,17.88-4.69,26.33-1.56,4.21-3.54,8.27-6.06,12.01-2.55,3.71-5.63,7.05-9.13,9.84-3.47,2.86-7.53,4.9-11.68,6.48-4.14,1.68-8.56,2.41-12.92,3.02l3.24-.7,1.61-.35c.54-.12,1.05-.32,1.58-.47l3.15-.96c1.03-.38,2.04-.82,3.05-1.23,4.01-1.74,7.82-3.97,11.1-6.83,3.31-2.81,6.18-6.12,8.53-9.76,2.32-3.67,4.11-7.65,5.5-11.76,2.86-8.22,3.95-16.98,4.23-25.69.12-4.37,0-8.75-.34-13.11-.34-4.35-.84-8.74-1.65-12.97l-.22-1.17,1.13-.29c6.79-1.75,13.87-2.55,20.9-2.08,3.51.32,7.01.81,10.4,1.8,3.38.99,6.67,2.28,9.79,3.89,6.22,3.27,11.77,7.72,16.34,12.97,2.29,2.62,4.36,5.43,6.21,8.36,1.8,2.95,3.54,5.99,4.59,9.29Z"/>
            <path class="cls-8" d="M233.22,411.93c2.82,1.4,5.35,3.01,7.85,4.75,2.49,1.74,4.86,3.63,7.14,5.62,4.55,3.99,8.64,8.49,12.19,13.37,3.55,4.88,6.5,10.17,8.85,15.7,2.29,5.56,3.96,11.35,4.99,17.24-1.24-5.86-3.11-11.56-5.57-16.99-2.52-5.4-5.62-10.52-9.28-15.19-3.66-4.68-7.83-8.93-12.41-12.68-2.29-1.87-4.67-3.63-7.15-5.23-2.46-1.59-5.06-3.1-7.64-4.27l1.04-2.33Z"/>
            <path class="cls-8" d="M243.58,510.05c.68-4.23.9-8.52.8-12.78-.13-4.26-.62-8.5-1.63-12.59-.52-2.04-1.16-4.04-1.94-5.98-.81-1.92-1.76-3.77-2.87-5.51-1.12-1.73-2.43-3.31-3.85-4.76-1.44-1.44-3.06-2.67-4.75-3.77l1.9-2.82c1.82,1.36,3.53,2.86,5.02,4.55,1.47,1.71,2.78,3.54,3.87,5.49,1.07,1.96,1.95,3.99,2.67,6.07.69,2.09,1.22,4.22,1.61,6.36.77,4.3.98,8.64.82,12.95-.18,4.31-.69,8.6-1.65,12.78Z"/>
            <path class="cls-8" d="M219.55,521.55c2.77-3.98,5.11-8.24,7.01-12.67,1.91-4.43,3.37-9.05,4.23-13.77.45-2.35.72-4.74.83-7.12.13-2.38.07-4.77-.18-7.13-.44-4.73-1.74-9.34-3.6-13.66l2.35-.98c1.77,4.65,2.91,9.55,3.16,14.49.16,2.47.11,4.94-.13,7.39-.22,2.45-.61,4.88-1.17,7.27-1.09,4.78-2.78,9.39-4.9,13.77-2.12,4.38-4.65,8.56-7.59,12.41Z"/>
          </g>
          <g>
            <circle class="cls-3" cx="164.46" cy="489.13" r="14.74"/>
            <g>
              <path class="cls-3" d="M150.41,467.73c1.49,1.52,1.96,3.14,2.2,3.96.64,2.15.57,3.51.73,5.73.16,2.15,1.01,4.99,4.12,3.48,4.68-2.27,3.78-7.15,1.65-9.79-2.67-3.31-8.57-3.37-8.7-3.37Z"/>
              <path class="cls-3" d="M178.5,467.73c-1.49,1.52-1.96,3.14-2.2,3.96-.64,2.15-.57,3.51-.73,5.73-.16,2.15-1.01,4.99-4.12,3.48-4.68-2.27-3.78-7.15-1.65-9.79,2.67-3.31,8.57-3.37,8.7-3.37Z"/>
            </g>
            <g>
              <path class="cls-14" d="M157.2,483.6l4.53,2.67s-5.53,3.31-4.53-2.67Z"/>
              <path class="cls-22" d="M171.71,483.6l-4.53,2.67s5.53,3.31,4.53-2.67Z"/>
            </g>
            <path class="cls-8" d="M169.78,475.86c-.15-.96.06-1.7.36-2.44.31-.72.79-1.33,1.32-1.85.52-.53,1.13-.94,1.74-1.32l.95-.5.98-.42-.9.57-.84.63c-.53.46-1.04.93-1.43,1.48-.4.54-.72,1.13-.88,1.75-.16.59-.17,1.3-.02,1.73l-1.28.37Z"/>
            <path class="cls-8" d="M157.85,475.5c.15-.43.14-1.15-.02-1.73-.16-.62-.48-1.21-.88-1.75-.39-.55-.9-1.02-1.43-1.48l-.84-.63-.9-.57.98.42.95.5c.61.38,1.22.79,1.74,1.32.53.52,1,1.13,1.32,1.85.3.74.51,1.48.36,2.44l-1.28-.37Z"/>
          </g>
          <g class="cls-33">
            <path class="cls-7" d="M154.32,512.84c-1.29,3.1-1.81,6.45-1.8,9.75.03,3.31.64,6.58,1.7,9.71l.88,2.32c.3.77.72,1.49,1.07,2.24.65,1.53,1.65,2.87,2.47,4.32.89,1.4,1.95,2.7,2.91,4.06,1.07,1.28,2.18,2.54,3.24,3.85-1.22-1.15-2.41-2.34-3.61-3.53-1.05-1.31-2.19-2.57-3.18-3.95-.93-1.41-1.95-2.78-2.67-4.32-.38-.76-.81-1.5-1.13-2.28l-.93-2.38c-1.07-3.23-1.68-6.64-1.52-10.05l.06-1.27.17-1.26c.09-.85.29-1.67.47-2.5.46-1.63,1-3.25,1.86-4.7Z"/>
          </g>
        </g>
        <path class="cls-23" d="M154.84,504.44c-.59.7-14.77,27.84,6.6,42.92,0,0,6.47,5.61,14.19-11.4,7.71-17.01-9.23-32.66-9.23-32.66l-11.56,1.14Z"/>
      </g>
      <g>
        <path class="cls-3" d="M617.31,22.22s1.67,32.02-33.35,33.02c-35.02-1-33.36-33.02-33.36-33.02-54.37-20.01-89.57,40.14-88.68,39.69,28.06-14.01,35.64,8.34,35.64,8.34,39.02-9.01,42.03,25.68,42.03,25.68,39.69,2.33,44.36,40.69,44.36,40.69,0,0,4.67-38.36,44.36-40.69,0,0,3-34.69,42.03-25.68,0,0,7.58-22.35,35.64-8.34.9.45-34.31-59.7-88.68-39.69Z"/>
        <path class="cls-10" d="M617.31,22.22s1.67,32.02-33.35,33.02c-35.02-1-33.36-33.02-33.36-33.02-54.37-20.01-89.57,40.14-88.68,39.69,28.06-14.01,35.64,8.34,35.64,8.34,39.02-9.01,42.03,25.68,42.03,25.68,39.69,2.33,44.36,40.69,44.36,40.69,0,0,4.67-38.36,44.36-40.69,0,0,3-34.69,42.03-25.68,0,0,7.58-22.35,35.64-8.34.9.45-34.31-59.7-88.68-39.69Z"/>
        <path class="cls-29" d="M617.31,22.22s1.67,32.02-33.35,33.02c-35.02-1-33.36-33.02-33.36-33.02-54.37-20.01-89.57,40.14-88.68,39.69,28.06-14.01,35.64,8.34,35.64,8.34,39.02-9.01,42.03,25.68,42.03,25.68,39.69,2.33,44.36,40.69,44.36,40.69,0,0,4.67-38.36,44.36-40.69,0,0,3-34.69,42.03-25.68,0,0,7.58-22.35,35.64-8.34.9.45-34.31-59.7-88.68-39.69Z"/>
        <path class="cls-3" d="M639.94,27.48c5.88-.68,11.89-.44,17.66.93,5.78,1.36,11.31,3.74,16.44,6.79,5.15,3.03,9.98,6.61,14.76,10.23-4.61-3.83-9.33-7.56-14.44-10.76-5.09-3.21-10.61-5.85-16.51-7.32-5.88-1.51-12.04-1.87-18.07-1.28-5.65.53-11.19,1.84-16.55,3.63l-.93-.36-.24.75-.54.19v.65c0,.3,0,.59-.01.89l-.2.61.18.06c-.32,8.95-3.8,18.08-10.49,24.12-3.51,3.2-7.79,5.49-12.34,6.93-4.55,1.43-9.39,2.07-14.15,2.22-4.76-.12-9.61-.76-14.16-2.19-4.55-1.44-8.84-3.73-12.35-6.94-7.1-6.4-10.53-16.26-10.57-25.71v-.61s-.52-.18-.52-.18c-.18-.06-.37-.12-.55-.18l-.2-.63-.78.3c-4.4-1.42-8.89-2.56-13.49-3.18-5.12-.71-10.35-.78-15.47-.02-5.12.77-10.07,2.38-14.74,4.53-4.68,2.13-9.09,4.76-13.39,7.55,4.41-2.59,8.91-5.06,13.61-7.05,4.69-1.99,9.62-3.43,14.66-4.03,5.03-.66,10.14-.49,15.14.3,3.88.6,7.69,1.58,11.43,2.78l-3.44,1.34c-2.09,1-4.21,1.93-6.27,2.99l-3.03,1.69-1.51.85-1.45.96-2.89,1.91-2.74,2.12c-3.59,2.9-6.91,6.16-9.63,9.87-1.34,1.87-2.61,3.79-3.61,5.86-1.02,2.05-1.9,4.18-2.37,6.42.6-2.2,1.6-4.27,2.73-6.23,1.11-1.98,2.47-3.8,3.89-5.55,2.89-3.48,6.32-6.47,9.97-9.08l2.78-1.9,2.92-1.69,1.46-.84,1.52-.74,3.03-1.47c2.05-.91,4.17-1.69,6.24-2.54l5.15-1.66c.13,4.37,1.02,8.64,2.58,12.71,1.79,4.67,4.61,9,8.33,12.42,3.71,3.43,8.24,5.87,13,7.4,4.79,1.52,9.73,2.21,14.74,2.36,5.01-.11,9.96-.81,14.75-2.33,4.76-1.53,9.3-3.98,13.01-7.41,3.72-3.42,6.54-7.75,8.33-12.43.91-2.34,1.56-4.76,2.01-7.22.31-1.76.52-3.51.59-5.3l4.52,1.45c2.07.85,4.19,1.62,6.24,2.54l3.03,1.47,1.52.74,1.46.84,2.92,1.69,2.78,1.9c3.66,2.61,7.08,5.59,9.97,9.08,1.42,1.75,2.78,3.57,3.89,5.55,1.13,1.96,2.13,4.02,2.73,6.23-.47-2.23-1.35-4.37-2.37-6.42-1-2.07-2.27-3.99-3.61-5.86-2.73-3.71-6.04-6.97-9.63-9.87l-2.74-2.12-2.89-1.91-1.45-.96-1.51-.85-3.03-1.69c-2.05-1.06-4.17-1.99-6.27-2.99l-3.03-1.18c1.8-.58,3.61-1.11,5.45-1.58,2.88-.72,5.8-1.26,8.75-1.6Z"/>
        <ellipse class="cls-3" cx="583.95" cy="86.38" rx="19.65" ry="27.23"/>
        <g>
          <g>
            <path class="cls-35" d="M573.53,97.63c-.42,0-12.55,4.46-12.55,4.46l.56,12.83"/>
            <polygon class="cls-3" points="562.05 115.04 560.46 116.26 560.52 116.18 558.99 118.87 559.92 115.92 559.97 115.83 561.01 114.11 562.05 115.04"/>
            <polygon class="cls-3" points="561.93 113.33 564.99 115.92 565.23 116.12 565.08 116.33 563.25 118.87 564.55 116.02 564.64 116.43 561.13 114.48 561.93 113.33"/>
            <polygon class="cls-3" points="562.22 114.28 561.79 118.87 560.82 114.37 562.22 114.28"/>
          </g>
          <g>
            <path class="cls-35" d="M594.37,97.63c.42,0,12.55,4.46,12.55,4.46l-.56,12.83"/>
            <polygon class="cls-3" points="606.9 114.11 607.93 115.83 607.96 115.87 609.45 118.87 607.41 116.22 607.44 116.26 605.85 115.04 606.9 114.11"/>
            <polygon class="cls-3" points="606.77 114.48 603.26 116.43 603.35 116.02 604.65 118.87 602.82 116.33 602.67 116.12 602.91 115.92 605.98 113.33 606.77 114.48"/>
            <polygon class="cls-3" points="607.09 114.37 606.12 118.87 605.69 114.28 607.09 114.37"/>
          </g>
        </g>
        <g>
          <path class="cls-8" d="M688.52,43.33c-4.78-3.62-9.6-7.2-14.76-10.23-5.14-3.04-10.67-5.42-16.44-6.79-5.78-1.37-11.78-1.61-17.66-.93-2.94.34-5.87.89-8.75,1.6-2.88.74-5.71,1.63-8.52,2.6l.57-.85c.08,2.58-.18,5.03-.61,7.5-.45,2.46-1.11,4.88-2.01,7.22-1.79,4.68-4.61,9.01-8.33,12.43-3.71,3.43-8.25,5.88-13.01,7.41-4.79,1.52-9.74,2.22-14.75,2.33-5.01-.15-9.95-.84-14.74-2.36-4.76-1.53-9.29-3.98-13-7.4-3.72-3.41-6.53-7.74-8.33-12.42-1.79-4.69-2.71-9.64-2.58-14.71l.52.78c-4.78-1.71-9.68-3.12-14.69-3.89-5-.79-10.11-.95-15.14-.3-5.03.61-9.96,2.04-14.66,4.03-4.7,1.99-9.19,4.46-13.61,7.05,4.3-2.78,8.71-5.42,13.39-7.55,4.67-2.15,9.62-3.76,14.74-4.53,5.12-.76,10.35-.69,15.47.02,5.13.7,10.14,2.04,15.02,3.69l.52.18v.61c.03,9.45,3.47,19.31,10.57,25.71,3.51,3.21,7.8,5.5,12.35,6.94,4.55,1.43,9.4,2.08,14.16,2.19,4.76-.15,9.6-.8,14.15-2.22,4.55-1.44,8.83-3.73,12.34-6.93,7.07-6.39,10.56-16.25,10.52-25.68v-.65s.57-.2.57-.2c5.71-1.98,11.64-3.43,17.69-4.01,6.04-.59,12.19-.23,18.07,1.28,5.89,1.47,11.42,4.12,16.51,7.32,5.11,3.2,9.83,6.93,14.44,10.76Z"/>
          <path class="cls-8" d="M505.9,62.42c.47-2.23,1.35-4.37,2.37-6.42,1-2.07,2.27-3.99,3.61-5.86,2.73-3.71,6.04-6.97,9.63-9.87l2.74-2.12,2.89-1.91,1.45-.96,1.51-.85,3.03-1.69c2.05-1.06,4.17-1.99,6.27-2.99l6.47-2.51.99,3.1-6.42,2.06c-2.07.85-4.19,1.62-6.24,2.54l-3.03,1.47-1.52.74-1.46.84-2.92,1.69-2.78,1.9c-3.66,2.61-7.08,5.6-9.97,9.08-1.42,1.75-2.78,3.57-3.89,5.55-1.13,1.96-2.13,4.02-2.73,6.23Z"/>
          <path class="cls-8" d="M662,62.42c-.6-2.2-1.6-4.27-2.73-6.23-1.11-1.98-2.47-3.8-3.89-5.55-2.89-3.48-6.32-6.47-9.97-9.08l-2.78-1.9-2.92-1.69-1.46-.84-1.52-.74-3.03-1.47c-2.05-.91-4.17-1.69-6.24-2.54l-6.42-2.06.99-3.1,6.47,2.51c2.09,1,4.21,1.93,6.27,2.99l3.03,1.69,1.51.85,1.45.96,2.89,1.91,2.74,2.12c3.59,2.9,6.91,6.16,9.63,9.87,1.34,1.87,2.61,3.79,3.61,5.86,1.02,2.05,1.9,4.18,2.37,6.42Z"/>
        </g>
        <circle class="cls-3" cx="583.95" cy="50.84" r="16.41"/>
        <g>
          <path class="cls-3" d="M568.31,27.01c1.66,1.69,2.18,3.5,2.45,4.41.71,2.4.63,3.9.81,6.38.18,2.4,1.12,5.55,4.59,3.87,5.21-2.52,4.21-7.96,1.84-10.9-2.97-3.69-9.55-3.75-9.69-3.75Z"/>
          <path class="cls-3" d="M599.59,27.01c-1.66,1.69-2.18,3.5-2.45,4.41-.71,2.4-.63,3.9-.81,6.38-.18,2.4-1.12,5.55-4.59,3.87-5.21-2.52-4.21-7.96-1.84-10.9,2.97-3.69,9.55-3.75,9.69-3.75Z"/>
        </g>
        <g>
          <path class="cls-25" d="M575.87,44.69l5.05,2.97s-6.16,3.69-5.05-2.97Z"/>
          <path class="cls-28" d="M592.03,44.69l-5.05,2.97s6.16,3.69,5.05-2.97Z"/>
        </g>
        <path class="cls-8" d="M589.89,36.07c-.16-1.06.06-1.89.4-2.71.35-.8.88-1.48,1.47-2.06.58-.59,1.26-1.04,1.94-1.47l1.06-.56,1.09-.47-1,.63-.94.7c-.59.51-1.16,1.03-1.59,1.65-.45.6-.8,1.26-.98,1.95-.18.66-.19,1.45-.02,1.93l-1.42.41Z"/>
        <path class="cls-8" d="M576.59,35.66c.17-.48.16-1.28-.02-1.93-.18-.69-.53-1.35-.98-1.95-.44-.62-1.01-1.14-1.59-1.65l-.94-.7-1-.63,1.09.47,1.06.56c.68.43,1.36.88,1.94,1.47.59.58,1.12,1.26,1.47,2.06.33.82.56,1.65.4,2.71l-1.42-.41Z"/>
        <path class="cls-1" d="M574.39,69.35c-.73.63-19.36,25.93,2.77,43.46,0,0,6.59,6.35,16.97-9.65,10.37-16-6.78-33.57-6.78-33.57l-12.96-.24Z"/>
        <g class="cls-33">
          <path class="cls-15" d="M573.46,74.62c-1.65,2.93-2.56,6.19-2.94,9.47-.36,3.29-.14,6.61.54,9.84l.6,2.41c.21.8.54,1.56.8,2.35.47,1.6,1.29,3.05,1.94,4.58.72,1.5,1.61,2.91,2.41,4.38.91,1.4,1.86,2.78,2.76,4.2-1.08-1.29-2.12-2.61-3.17-3.93-.89-1.43-1.87-2.81-2.69-4.29-.76-1.51-1.6-2.99-2.14-4.61-.29-.8-.63-1.58-.85-2.4l-.64-2.47c-.68-3.33-.88-6.79-.32-10.16l.21-1.26.31-1.24c.19-.83.48-1.63.76-2.43.64-1.56,1.38-3.11,2.4-4.44Z"/>
        </g>
      </g>
    </g>
  </g>
</svg>